<svg xmlns="http://www.w3.org/2000/svg" width="1030" height="499.109" viewBox="0 0 1030 499.109">
  <g id="svg01" transform="translate(-8.5 -2.4)">
    <g id="Grupo_1072066" data-name="Grupo 1072066" transform="translate(752.537 55.084)">
      <rect id="Rectángulo_377678" data-name="Rectángulo 377678" width="160.813" height="42.751" transform="translate(0 4.022)" fill="none"/>
      <path id="Trazado_838843" data-name="Trazado 838843" d="M10.807-6.778H4.619v4.189h7.262V0H1.4V-15.641H11.859v2.61H4.619V-9.3h6.188Zm12.375.387H16.994V0H13.771V-15.641H23.955v2.61H16.994v4.039h6.188Zm12.053-.387H29.047v4.189h7.262V0H25.824V-15.641H36.287v2.61h-7.24V-9.3h6.188ZM50.478-5.21a5.535,5.535,0,0,1-1.864,3.975A6.546,6.546,0,0,1,44.183.215,5.886,5.886,0,0,1,39.451-1.81a8.3,8.3,0,0,1-1.724-5.559v-.956a9.376,9.376,0,0,1,.795-3.975,5.957,5.957,0,0,1,2.272-2.637,6.364,6.364,0,0,1,3.432-.918,6.376,6.376,0,0,1,4.361,1.45A5.948,5.948,0,0,1,50.5-10.334H47.276a3.266,3.266,0,0,0-.843-2.2,3.123,3.123,0,0,0-2.208-.682,2.738,2.738,0,0,0-2.412,1.155,6.472,6.472,0,0,0-.822,3.583v1.182a6.927,6.927,0,0,0,.768,3.706,2.687,2.687,0,0,0,2.422,1.171A3.182,3.182,0,0,0,46.412-3.1a3.081,3.081,0,0,0,.843-2.111Zm13.578-7.82H59.265V0H56.042V-13.03H51.315v-2.61h12.74ZM78.439-7.466a9.442,9.442,0,0,1-.816,4.05A6.148,6.148,0,0,1,75.287-.73,6.463,6.463,0,0,1,71.8.215a6.507,6.507,0,0,1-3.47-.935,6.209,6.209,0,0,1-2.363-2.669,9.172,9.172,0,0,1-.849-3.991v-.773a9.392,9.392,0,0,1,.833-4.066,6.2,6.2,0,0,1,2.353-2.7,6.471,6.471,0,0,1,3.475-.94,6.471,6.471,0,0,1,3.475.94,6.2,6.2,0,0,1,2.353,2.7,9.366,9.366,0,0,1,.833,4.055Zm-3.266-.709a6.582,6.582,0,0,0-.881-3.738,2.871,2.871,0,0,0-2.514-1.278,2.872,2.872,0,0,0-2.5,1.262,6.507,6.507,0,0,0-.892,3.7v.763a6.664,6.664,0,0,0,.881,3.717A2.863,2.863,0,0,0,71.8-2.428,2.837,2.837,0,0,0,74.293-3.7a6.626,6.626,0,0,0,.881-3.711Z" transform="translate(33.066 21)" fill="#3c3c3b"/>
    </g>
    <g id="Grupo_1072067" data-name="Grupo 1072067" transform="translate(752.537 218.152)">
      <rect id="Rectángulo_377679" data-name="Rectángulo 377679" width="160.813" height="42.751" transform="translate(0 4.203)" fill="none"/>
      <path id="Trazado_838844" data-name="Trazado 838844" d="M4.619-5.511V0H1.4V-15.641H7.5A7.059,7.059,0,0,1,10.6-15a4.75,4.75,0,0,1,2.057,1.832,5.107,5.107,0,0,1,.72,2.7A4.491,4.491,0,0,1,11.8-6.837,6.555,6.555,0,0,1,7.444-5.511Zm0-2.61H7.5a2.831,2.831,0,0,0,1.95-.6,2.188,2.188,0,0,0,.671-1.719A2.58,2.58,0,0,0,9.442-12.3a2.528,2.528,0,0,0-1.869-.73H4.619Zm16.758,2.4H18.81V0H15.587V-15.641H21.4a6.57,6.57,0,0,1,4.275,1.235,4.264,4.264,0,0,1,1.5,3.491,4.812,4.812,0,0,1-.693,2.669,4.725,4.725,0,0,1-2.1,1.7L27.769-.15V0H24.31ZM18.81-8.336h2.6a2.662,2.662,0,0,0,1.88-.618,2.208,2.208,0,0,0,.666-1.7,2.363,2.363,0,0,0-.628-1.74A2.612,2.612,0,0,0,21.4-13.03H18.81Zm23.665.87a9.442,9.442,0,0,1-.816,4.05A6.148,6.148,0,0,1,39.322-.73a6.463,6.463,0,0,1-3.486.945,6.507,6.507,0,0,1-3.47-.935A6.209,6.209,0,0,1,30-3.389a9.172,9.172,0,0,1-.849-3.991v-.773a9.392,9.392,0,0,1,.833-4.066,6.2,6.2,0,0,1,2.353-2.7,6.471,6.471,0,0,1,3.475-.94,6.471,6.471,0,0,1,3.475.94,6.2,6.2,0,0,1,2.353,2.7,9.366,9.366,0,0,1,.833,4.055Zm-3.266-.709a6.582,6.582,0,0,0-.881-3.738,2.871,2.871,0,0,0-2.514-1.278,2.872,2.872,0,0,0-2.5,1.262,6.507,6.507,0,0,0-.892,3.7v.763A6.664,6.664,0,0,0,33.3-3.749a2.863,2.863,0,0,0,2.535,1.321A2.837,2.837,0,0,0,38.328-3.7a6.626,6.626,0,0,0,.881-3.711ZM44.816,0V-15.641h5.479a7.194,7.194,0,0,1,4.318,1.09,3.728,3.728,0,0,1,1.472,3.2,3.534,3.534,0,0,1-.591,2.025,3.413,3.413,0,0,1-1.644,1.284,3.3,3.3,0,0,1,1.9,1.214A3.589,3.589,0,0,1,56.439-4.6,4.128,4.128,0,0,1,55-1.182,6.48,6.48,0,0,1,50.9,0Zm3.223-6.811v4.222H50.8a2.664,2.664,0,0,0,1.778-.542,1.86,1.86,0,0,0,.639-1.5,1.964,1.964,0,0,0-2.224-2.181Zm0-2.277h2.385q2.438-.043,2.438-1.944a1.8,1.8,0,0,0-.618-1.531,3.249,3.249,0,0,0-1.95-.467H48.039Zm14.04,6.5h6.843V0H58.856V-15.641h3.223Zm18.1-4.189H73.992v4.189h7.262V0H70.77V-15.641H81.232v2.61h-7.24V-9.3H80.18Zm7.176-8.862L91.373-4.3l4-11.344H99.6V0H96.368V-4.275l.322-7.38L92.469,0H90.256L86.045-11.645l.322,7.369V0H83.145V-15.641ZM111.439-3.223h-5.65L104.715,0h-3.427l5.822-15.641H110.1L115.951,0h-3.427Zm-4.78-2.61h3.91L108.6-11.687Z" transform="translate(11.114 21)" fill="#3c3c3b"/>
    </g>
    <g id="Grupo_1072068" data-name="Grupo 1072068" transform="translate(752.537 402.039)">
      <rect id="Rectángulo_377680" data-name="Rectángulo 377680" width="160.813" height="42.751" transform="translate(0 4.166)" fill="none"/>
      <path id="Trazado_838845" data-name="Trazado 838845" d="M13.675-5.21a5.535,5.535,0,0,1-1.864,3.975A6.546,6.546,0,0,1,7.38.215,5.886,5.886,0,0,1,2.648-1.81,8.3,8.3,0,0,1,.924-7.369v-.956A9.376,9.376,0,0,1,1.719-12.3a5.957,5.957,0,0,1,2.272-2.637,6.364,6.364,0,0,1,3.432-.918,6.376,6.376,0,0,1,4.361,1.45A5.948,5.948,0,0,1,13.7-10.334H10.474a3.266,3.266,0,0,0-.843-2.2,3.123,3.123,0,0,0-2.208-.682,2.738,2.738,0,0,0-2.412,1.155,6.472,6.472,0,0,0-.822,3.583v1.182a6.927,6.927,0,0,0,.768,3.706A2.687,2.687,0,0,0,7.38-2.417,3.182,3.182,0,0,0,9.609-3.1a3.081,3.081,0,0,0,.843-2.111ZM24.621-3.223h-5.65L17.9,0H14.47l5.822-15.641h2.986L29.133,0H25.706Zm-4.78-2.61h3.91l-1.966-5.854Zm22.408-9.808v10.3a5.274,5.274,0,0,1-1.606,4.061A6.191,6.191,0,0,1,36.255.215,6.261,6.261,0,0,1,31.9-1.235a5.184,5.184,0,0,1-1.644-3.985v-10.42h3.223V-5.317a2.98,2.98,0,0,0,.736,2.24,2.825,2.825,0,0,0,2.036.7q2.718,0,2.761-2.857V-15.641ZM53-4.1a1.654,1.654,0,0,0-.645-1.4,8.454,8.454,0,0,0-2.32-1.031,16.448,16.448,0,0,1-2.653-1.069,4.335,4.335,0,0,1-2.664-3.878,3.777,3.777,0,0,1,.714-2.261A4.66,4.66,0,0,1,47.486-15.3a7.723,7.723,0,0,1,3-.559,7.029,7.029,0,0,1,2.986.607,4.755,4.755,0,0,1,2.036,1.713,4.483,4.483,0,0,1,.725,2.514H53.013a2.109,2.109,0,0,0-.677-1.67,2.782,2.782,0,0,0-1.9-.6,2.972,2.972,0,0,0-1.837.5,1.576,1.576,0,0,0-.655,1.316,1.509,1.509,0,0,0,.768,1.278,8.678,8.678,0,0,0,2.261.967,9.77,9.77,0,0,1,4.007,2.052,4.086,4.086,0,0,1,1.257,3.051A3.764,3.764,0,0,1,54.7-.94,6.725,6.725,0,0,1,50.563.215a7.986,7.986,0,0,1-3.287-.661,5.2,5.2,0,0,1-2.261-1.81,4.635,4.635,0,0,1-.779-2.664H47.47q0,2.589,3.094,2.589A3.01,3.01,0,0,0,52.357-2.8,1.52,1.52,0,0,0,53-4.1Zm14.244.881H61.6L60.521,0H57.095l5.822-15.641H65.9L71.758,0H68.331Zm-4.78-2.61h3.91L64.41-11.687Z" transform="translate(37.747 21)" fill="#3c3c3b"/>
    </g>
    <g id="Grupo_1072070" data-name="Grupo 1072070" transform="translate(8.5 148.151)">
      <g id="Grupo_1072069" data-name="Grupo 1072069">
        <line id="Línea_139" data-name="Línea 139" x2="6.645" fill="none" stroke="#058c36" stroke-miterlimit="10" stroke-width="1"/>
        <line id="Línea_140" data-name="Línea 140" x2="996.774" transform="translate(19.935)" fill="none" stroke="#058c36" stroke-miterlimit="10" stroke-width="1" stroke-dasharray="5.96 5.96"/>
        <line id="Línea_141" data-name="Línea 141" x2="6.645" transform="translate(1023.355)" fill="none" stroke="#058c36" stroke-miterlimit="10" stroke-width="1"/>
      </g>
    </g>
    <g id="Grupo_1072072" data-name="Grupo 1072072" transform="translate(8.5 326.241)">
      <g id="Grupo_1072071" data-name="Grupo 1072071">
        <line id="Línea_142" data-name="Línea 142" x2="6.645" fill="none" stroke="#058c36" stroke-miterlimit="10" stroke-width="1"/>
        <line id="Línea_143" data-name="Línea 143" x2="996.774" transform="translate(19.935)" fill="none" stroke="#058c36" stroke-miterlimit="10" stroke-width="1" stroke-dasharray="5.96 5.96"/>
        <line id="Línea_144" data-name="Línea 144" x2="6.645" transform="translate(1023.355)" fill="none" stroke="#058c36" stroke-miterlimit="10" stroke-width="1"/>
      </g>
    </g>
    <g id="Grupo_1072074" data-name="Grupo 1072074" transform="translate(8.5 501.009)">
      <g id="Grupo_1072073" data-name="Grupo 1072073">
        <line id="Línea_145" data-name="Línea 145" x2="6.645" fill="none" stroke="#058c36" stroke-miterlimit="10" stroke-width="1"/>
        <line id="Línea_146" data-name="Línea 146" x2="996.774" transform="translate(19.935)" fill="none" stroke="#058c36" stroke-miterlimit="10" stroke-width="1" stroke-dasharray="5.96 5.96"/>
        <line id="Línea_147" data-name="Línea 147" x2="6.645" transform="translate(1023.355)" fill="none" stroke="#058c36" stroke-miterlimit="10" stroke-width="1"/>
      </g>
    </g>
    <g id="Grupo_1072349" data-name="Grupo 1072349" transform="translate(59.446 2.4)">
      <path id="Trazado_838593" data-name="Trazado 838593" d="M485.664,254.529a57.564,57.564,0,0,1,29.46-13.29v-2.658c-22.815,1.994-36.77,12.4-42.75,18.385-3.1.665-6.645,1.551-10.854,2.215-23.258,4.43-32.561-9.525-72.875-20.378-12.183-3.323-24.809-3.766-36.327-2.88,23.7-25.03,44.523-25.03,67.116-10.411,23.258,15.284,44.08,9.525,58.477,0,11.518-7.531,29.682-5.095,36.327-3.766-.221-1.551-.221-3.1-.443-4.652-11.74-3.766-23.037-2.215-33.447.443a65.507,65.507,0,0,1,29.9-21.929c-.222-1.108-.443-2.215-.665-3.1-26.359,6.424-39.871,21.708-45.409,29.9-7.753,2.437-15.062,4.209-21.486,3.1-13.069-1.994-17.277-15.284-32.561-21.486,3.766-6.645,15.505-23.037,40.092-26.359a114.888,114.888,0,0,0,21.265-8.417,70.8,70.8,0,0,0,31.9.222c-.443-1.108-.665-2.215-1.108-3.1-6.645,1.108-16.391,1.772-23.923-1.108a57.238,57.238,0,0,0,17.056-15.948,78.4,78.4,0,0,0-3.544-7.531c-6.2,11.075-19.714,25.473-47.624,29.46a105.807,105.807,0,0,0-12.626,2.658c2.658-4.652,7.088-13.069,12.626-25.252,6.424-14.4,24.144-24.587,35-29.682a38.52,38.52,0,0,1-2.437-3.987c-10.854,5.538-26.581,14.4-36.105,24.144-11.075,11.3-19.714,30.568-23.48,40.535a74.307,74.307,0,0,0-26.138,21.708,65.875,65.875,0,0,0-12.4,1.329,165.533,165.533,0,0,0-55.819,20.378c10.632-15.948,27.467-36.327,48.731-44.523,37.213-14.176,12.847-52.054,46.073-61.578,24.587-7.088,35.219-18.606,39.871-27.467a46.273,46.273,0,0,0-4.43-4.873c-3.544,7.531-12.183,15.948-31.011,23.258a131.28,131.28,0,0,1-1.551-20.822c.221-6.645,6.424-16.613,11.3-23.258-1.329-1.108-2.437-2.215-3.766-3.323a189,189,0,0,0-11.961,16.391c-8.417,12.847-7.088,28.353-5.981,35-40.757,15.062-14.176,46.959-54.712,56.041-20.157,4.43-35.884,17.277-46.959,29.239,7.31-24.366,5.981-46.738,5.316-62.243a153.44,153.44,0,0,1,0-22.594c56.484,13.069,73.983-18.385,85.5-42.751a43.12,43.12,0,0,1,16.391-18.606,47.439,47.439,0,0,0-4.209-2.88c-8.417,3.987-13.733,10.189-18.163,17.056a62.985,62.985,0,0,1,6.2-25.03c-1.329-.886-2.658-1.551-4.209-2.437-8.417,15.727-8.2,28.574-6.867,35.884-5.759,9.968-11.74,19.714-24.809,24.809a66.967,66.967,0,0,1-47.181,0c3.766-14.176,12.847-28.131,32.34-38.32,21.265-10.854,26.359-23.7,26.581-32.783a60.2,60.2,0,0,0-5.538-2.437c-1.329,7.753-5.981,17.942-20.378,26.359-4.652,2.658-9.082,5.316-13.29,7.753-10.411-8.639-6.2-32.34-2.437-46.516a38.579,38.579,0,0,0-4.873-1.108c-10.411,27.91-6.2,48.288-4.209,55.376a66.384,66.384,0,0,0-14.619,14.841c-4.652-8.86-13.29-29.682-9.746-53.826,1.551-9.968,2.88-16.391,3.987-21.043-2.215-.222-4.43-.443-6.424-.665-4.43,17.056-11.961,56.705,6.2,87.273-3.1,8.417-4.43,18.828-3.766,31.9,1.772,35.662-18.828,48.731-26.359,56.927h0c-7.31-8.417-28.131-21.486-26.359-56.927.665-13.069-.665-23.48-3.766-31.9,18.163-30.568,10.632-70.217,6.2-87.273-2.215.222-4.43.443-6.424.665a185.027,185.027,0,0,1,3.987,20.822c3.544,24.144-5.095,44.966-9.746,53.826-3.987-5.981-9.082-10.632-14.619-14.841,1.994-7.088,6.2-27.467-3.987-55.376A38.578,38.578,0,0,1,214.32,12.2c3.766,14.176,7.974,37.877-2.437,46.516-4.43-2.658-8.86-5.095-13.29-7.753-14.4-8.417-19.049-18.828-20.379-26.359-1.772.886-3.766,1.551-5.538,2.437.443,9.082,5.538,21.708,26.581,32.783,19.493,9.968,28.353,24.144,32.34,38.32-8.86,3.323-27.024,7.974-47.181,0-13.069-5.095-19.049-14.841-24.809-24.809,1.329-7.31,1.551-20.157-6.867-35.884-1.329.886-2.658,1.551-4.209,2.437a64.966,64.966,0,0,1,5.981,25.03c-4.43-6.867-9.525-13.069-18.163-17.056-1.329.886-2.88,1.994-4.209,2.88a44.14,44.14,0,0,1,16.17,18.606c11.518,24.144,28.8,55.6,85.5,42.751.665,8.2.221,15.948,0,22.594-.886,15.727-1.994,38.1,5.316,62.243-11.075-11.961-26.8-24.809-46.959-29.239-41.2-8.86-14.619-40.757-55.376-55.819,1.108-6.867,2.437-22.372-5.981-35a171.218,171.218,0,0,0-11.961-16.17c-1.329,1.108-2.658,2.215-3.766,3.323,4.873,6.645,11.075,16.613,11.3,23.258a131.28,131.28,0,0,1-1.551,20.821C106,100.8,97.366,92.387,93.822,84.856c-1.551,1.551-2.88,3.323-4.43,4.873,4.652,8.86,15.284,20.378,39.871,27.467,33.226,9.525,8.86,47.4,46.073,61.579,21.264,8.2,38.32,28.574,48.731,44.523a159.143,159.143,0,0,0-55.819-20.379,91.412,91.412,0,0,0-12.4-1.329,72.259,72.259,0,0,0-26.138-21.708c-3.987-9.968-12.4-29.239-23.48-40.535C96.7,129.6,80.753,120.74,70.12,115.2a38.527,38.527,0,0,0-2.437,3.987c10.854,5.095,28.574,15.284,35,29.682,5.538,12.4,9.968,20.6,12.626,25.252a105.805,105.805,0,0,0-12.626-2.658C74.772,167.477,61.26,153.08,55.058,142c-1.108,2.437-2.437,5.095-3.544,7.531A57.239,57.239,0,0,0,68.57,165.484c-7.531,2.88-17.056,2.215-23.923,1.108-.443,1.108-.665,2.215-1.108,3.1a77.971,77.971,0,0,0,31.9-.222A108.947,108.947,0,0,0,96.7,177.888a54.958,54.958,0,0,1,40.092,26.359c-15.284,5.981-19.492,19.492-32.561,21.486-6.424.886-13.733-.886-21.486-3.1-5.538-8.417-19.049-23.48-45.409-29.9-.222,1.108-.443,2.215-.665,3.1a66.634,66.634,0,0,1,29.9,21.929c-10.411-2.658-21.708-4.209-33.447-.443a33.048,33.048,0,0,0-.443,4.652c6.645-1.329,25.03-3.766,36.327,3.766,14.176,9.525,35,15.284,58.477,0,22.594-14.841,43.415-14.619,67.116,10.411-11.518-.886-24.144-.443-36.327,2.88C117.744,249.877,108.662,263.832,85.4,259.4c-4.209-.886-7.753-1.551-10.854-2.215C68.57,251.206,54.837,240.574,31.8,238.8v2.658c4.209.665,17.72,3.1,29.46,13.29-7.531-.886-15.284-.665-29.239,2.215a19.054,19.054,0,0,0,.222,3.544c5.095-1.329,20.157-4.43,29.682.443,11.74,5.759,37.213,12.4,55.819,4.43s36.327-13.955,68-9.082c31.675,4.652,47.4,9.082,57.37,17.942,6.867,8.86,7.531,24.809,7.531,61.135,0,61.136-35.441,69.11-56.262,63.572-26.8-6.867-46.295,1.993-59.585,9.3-3.987-2.437-14.176-6.2-33.89.886.443,2.215.665,3.1.665,3.1s13.29-6.867,27.024-.443c-.886.443-1.994,1.108-2.88,1.551-9.746,5.095-17.056,6.2-21.708,6.2a76.339,76.339,0,0,0,6.2,5.759A60.311,60.311,0,0,0,131.92,418c11.74-6.2,25.916-14.176,49.839-8.639a61.6,61.6,0,0,0-24.809,13.733c-19.049-1.329-28.353,9.3-28.353,9.3l2.658,1.994a29.482,29.482,0,0,1,21.486-6.867c-7.531,8.639-10.411,17.72-10.632,22.815l1.994,1.329c2.437-8.417,11.3-18.385,21.708-25.695,2.215,6.867,4.209,19.492-8.86,28.131l3.1,3.1s19.271-9.082,11.74-34.776c7.974-4.652,16.391-7.088,23.48-5.981-9.3,9.3-10.189,21.486-12.847,33-2.215,9.525-7.974,13.955-13.069,16.17,2.215,1.108,4.43,1.994,6.424,3.1a54.081,54.081,0,0,0,14.176-23.037c6.424-21.486,26.581-37.434,46.295-36.548-16.17,11.74-23.48,26.138-26.581,38.985-4.43,1.108-15.948,5.316-20.378,22.594a17.566,17.566,0,0,1,1.994.886s3.544-13.29,16.834-15.727A78.987,78.987,0,0,0,209,480.464c2.88.886,5.981,1.551,8.86,2.215-1.551-6.645-4.209-24.809,4.873-39.871,1.108-1.772,2.215-3.544,3.323-5.095a34.94,34.94,0,0,1,.665,32.783l3.766,1.551s10.854-19.714,3.987-43.194a52.447,52.447,0,0,1,18.828-9.968s-5.759,12.847-7.753,36.548c-2.215,17.277-7.31,26.138-11.075,30.568,2.437.443,4.873.665,7.31,1.108,3.1-4.873,7.31-13.512,10.411-27.688,7.531,7.531,9.082,24.809,9.3,29.46,1.329,0,2.658.222,3.987.222-.443-7.753-1.994-20.378-6.424-31.675-3.1-7.974-.443-17.056,3.544-24.809a30.5,30.5,0,0,1,10.189,26.8l3.544,1.772s6.2-23.258-9.082-36.548c3.544-5.095,6.424-8.639,6.424-8.639h0s21.486,23.7,14.619,41.421c-4.43,11.075-5.759,23.7-6.424,31.454a24.073,24.073,0,0,0,3.987-.222c.221-4.652,1.772-21.929,9.3-29.46,3.323,14.176,7.31,22.815,10.411,27.688,2.437-.222,4.873-.665,7.31-1.108-3.766-4.43-8.86-13.29-11.075-30.568-1.993-23.7-7.753-36.548-7.753-36.548a52.738,52.738,0,0,1,19.714,10.854c-6.2,23.037,4.209,42.307,4.209,42.307l3.766-1.55a34.245,34.245,0,0,1,.222-31.9l2.658,3.987c8.86,15.062,6.2,33.226,4.873,39.871,3.1-.664,5.981-1.551,8.86-2.215a74.4,74.4,0,0,0,.886-24.809c14.176,1.772,17.942,15.948,17.942,15.948a17.567,17.567,0,0,1,1.994-.886C354.312,451,340.357,447.9,337.7,447.46c-3.1-12.847-10.632-27.024-26.581-38.763,19.935-.886,40.092,15.062,46.295,36.548a52.024,52.024,0,0,0,14.176,23.037,57.381,57.381,0,0,0,6.424-3.1c-5.095-2.215-10.854-6.645-13.069-16.17-2.658-11.518-3.544-23.7-12.847-33,7.31-1.329,16.17,1.551,24.366,6.424-7.088,25.252,11.961,34.112,11.961,34.112l3.1-3.1c-12.847-8.2-11.3-20.378-9.082-27.245,9.968,7.088,18.385,16.834,20.822,25.03l1.994-1.329c0-4.873-3.1-13.955-10.411-22.594a30.335,30.335,0,0,1,22.594,6.867l2.658-1.994s-9.746-11.075-29.46-9.082a61.094,61.094,0,0,0-25.03-13.733c23.923-5.538,38.1,2.437,49.839,8.639,8.86,4.652,16.17,6.645,21.707,7.31,1.994-1.994,4.209-3.766,6.2-5.759-4.652,0-11.961-1.107-21.707-6.2-1.108-.665-2.437-1.329-3.766-1.994,13.29-5.538,25.695.886,25.695.886s.222-.886.665-3.1c-18.385-6.424-28.353-3.766-33-1.329-13.29-7.088-32.34-15.284-58.477-8.639C331.94,404.71,296.5,396.514,296.5,335.6c0-36.548.886-52.5,7.531-61.135,9.968-9.082,25.695-13.29,57.37-17.942s49.4,1.108,68,9.082,44.08,1.551,55.819-4.43c9.525-4.873,24.809-1.772,29.682-.443,0-1.108.221-2.437.221-3.544C500.948,254.086,493.2,253.643,485.664,254.529Z" transform="translate(-31.135 1.974)" fill="#1c1c1b"/>
      <g id="Grupo_1072348" data-name="Grupo 1072348">
        <g id="Grupo_1072077" data-name="Grupo 1072077" transform="translate(206.886)">
          <g id="Grupo_1072075" data-name="Grupo 1072075">
            <path id="Trazado_838594" data-name="Trazado 838594" d="M124.9,2.4h0Z" transform="translate(-124.9 -2.4)" fill="#312783"/>
          </g>
          <g id="Grupo_1072076" data-name="Grupo 1072076" transform="translate(69.774)">
            <path id="Trazado_838595" data-name="Trazado 838595" d="M156.4,2.4h0Z" transform="translate(-156.4 -2.4)" fill="#312783"/>
          </g>
        </g>
        <g id="Grupo_1072079" data-name="Grupo 1072079" transform="translate(275.331 0.443)">
          <g id="Grupo_1072078" data-name="Grupo 1072078">
            <path id="Trazado_838596" data-name="Trazado 838596" d="M156.243,2.6h0Z" transform="translate(-155.8 -2.6)" fill="#3ca936"/>
          </g>
        </g>
        <g id="Grupo_1072206" data-name="Grupo 1072206" transform="translate(0 10.626)">
          <g id="Grupo_1072082" data-name="Grupo 1072082" transform="translate(17.056 249.251)">
            <g id="Grupo_1072080" data-name="Grupo 1072080" transform="translate(0 2.163)">
              <path id="Trazado_838597" data-name="Trazado 838597" d="M39.2,133.769a25.762,25.762,0,0,0,17.72-2.437c5.759-3.323,5.316-10.632,5.316-10.632Z" transform="translate(-39.2 -120.7)" fill="#058c36"/>
            </g>
            <g id="Grupo_1072081" data-name="Grupo 1072081">
              <path id="Trazado_838598" data-name="Trazado 838598" d="M39.2,134.956A25.014,25.014,0,0,1,50.275,121c5.759-3.323,11.961.886,11.961.886Z" transform="translate(-39.2 -119.723)" fill="#3ca936"/>
            </g>
          </g>
          <g id="Grupo_1072085" data-name="Grupo 1072085" transform="translate(7.753 210.266)">
            <g id="Grupo_1072083" data-name="Grupo 1072083" transform="translate(0 2.163)">
              <path id="Trazado_838599" data-name="Trazado 838599" d="M35,116.169a25.762,25.762,0,0,0,17.72-2.437c5.759-3.323,5.316-10.632,5.316-10.632Z" transform="translate(-35 -103.1)" fill="#058c36"/>
            </g>
            <g id="Grupo_1072084" data-name="Grupo 1072084">
              <path id="Trazado_838600" data-name="Trazado 838600" d="M35,117.356A25.014,25.014,0,0,1,46.075,103.4c5.759-3.323,11.961.886,11.961.886Z" transform="translate(-35 -102.123)" fill="#3ca936"/>
            </g>
          </g>
          <g id="Grupo_1072088" data-name="Grupo 1072088" transform="translate(37.656 230.724)">
            <g id="Grupo_1072086" data-name="Grupo 1072086" transform="translate(0 0.09)">
              <path id="Trazado_838601" data-name="Trazado 838601" d="M48.5,111.4a30.878,30.878,0,0,0,10.854,18.828c6.424,5.095,14.4,1.329,14.4,1.329Z" transform="translate(-48.5 -111.4)" fill="#058c36"/>
            </g>
            <g id="Grupo_1072087" data-name="Grupo 1072087">
              <path id="Trazado_838602" data-name="Trazado 838602" d="M48.5,111.45a30.807,30.807,0,0,1,20.822,6.2c6.424,5.095,4.43,13.955,4.43,13.955Z" transform="translate(-48.5 -111.359)" fill="#3ca936"/>
            </g>
          </g>
          <g id="Grupo_1072091" data-name="Grupo 1072091" transform="translate(69.878 64.686)">
            <g id="Grupo_1072089" data-name="Grupo 1072089">
              <path id="Trazado_838603" data-name="Trazado 838603" d="M69.145,36.4s-7.088,8.86-5.981,20.822c.886,7.974,9.3,11.075,9.3,11.075Z" transform="translate(-63.047 -36.4)" fill="#058c36"/>
            </g>
            <g id="Grupo_1072090" data-name="Grupo 1072090" transform="translate(6.098)">
              <path id="Trazado_838604" data-name="Trazado 838604" d="M65.8,36.4A30.809,30.809,0,0,1,75.989,55.671c.886,7.974-6.645,12.847-6.645,12.847Z" transform="translate(-65.8 -36.4)" fill="#3ca936"/>
            </g>
          </g>
          <g id="Grupo_1072094" data-name="Grupo 1072094" transform="translate(118.366 173.445)">
            <g id="Grupo_1072092" data-name="Grupo 1072092">
              <path id="Trazado_838605" data-name="Trazado 838605" d="M86.848,85.5a24.48,24.48,0,0,0-.443,17.72c2.215,6.2,9.525,7.088,9.525,7.088Z" transform="translate(-84.937 -85.5)" fill="#058c36"/>
            </g>
            <g id="Grupo_1072093" data-name="Grupo 1072093" transform="translate(1.911)">
              <path id="Trazado_838606" data-name="Trazado 838606" d="M85.8,85.5A26.093,26.093,0,0,1,97.761,98.79c2.215,6.2-2.88,11.518-2.88,11.518Z" transform="translate(-85.8 -85.5)" fill="#3ca936"/>
            </g>
          </g>
          <g id="Grupo_1072097" data-name="Grupo 1072097" transform="translate(70.882 101.551)">
            <g id="Grupo_1072095" data-name="Grupo 1072095" transform="translate(0 0.791)">
              <path id="Trazado_838607" data-name="Trazado 838607" d="M63.5,71.12a25.194,25.194,0,0,0,16.613-6.2c4.873-4.43,2.88-11.518,2.88-11.518Z" transform="translate(-63.5 -53.4)" fill="#058c36"/>
            </g>
            <g id="Grupo_1072096" data-name="Grupo 1072096">
              <path id="Trazado_838608" data-name="Trazado 838608" d="M63.5,71.554a25.194,25.194,0,0,1,7.753-15.948c4.873-4.43,11.74-1.772,11.74-1.772Z" transform="translate(-63.5 -53.043)" fill="#3ca936"/>
            </g>
          </g>
          <g id="Grupo_1072100" data-name="Grupo 1072100" transform="translate(190.755)">
            <g id="Grupo_1072098" data-name="Grupo 1072098">
              <path id="Trazado_838609" data-name="Trazado 838609" d="M137.514,7.2a25.194,25.194,0,0,0-16.613,6.2c-4.873,4.43-2.88,11.518-2.88,11.518Z" transform="translate(-117.618 -7.197)" fill="#058c36"/>
            </g>
            <g id="Grupo_1072099" data-name="Grupo 1072099" transform="translate(0.404 0.006)">
              <path id="Trazado_838610" data-name="Trazado 838610" d="M137.292,7.2a25.194,25.194,0,0,1-7.753,15.948c-4.873,4.43-11.74,1.772-11.74,1.772Z" transform="translate(-117.8 -7.2)" fill="#3ca936"/>
            </g>
          </g>
          <g id="Grupo_1072103" data-name="Grupo 1072103" transform="translate(124.265 23.043)">
            <g id="Grupo_1072101" data-name="Grupo 1072101" transform="translate(0 5.316)">
              <path id="Trazado_838611" data-name="Trazado 838611" d="M87.6,20a20.184,20.184,0,0,0,13.512,5.538c5.538,0,8.2-5.316,8.2-5.316Z" transform="translate(-87.6 -20)" fill="#058c36"/>
            </g>
            <g id="Grupo_1072102" data-name="Grupo 1072102">
              <path id="Trazado_838612" data-name="Trazado 838612" d="M87.6,22.916A21.478,21.478,0,0,1,101.333,17.6c5.538,0,8.2,5.538,8.2,5.538Z" transform="translate(-87.6 -17.6)" fill="#3ca936"/>
            </g>
          </g>
          <g id="Grupo_1072106" data-name="Grupo 1072106" transform="translate(109.861 84.4)">
            <g id="Grupo_1072104" data-name="Grupo 1072104">
              <path id="Trazado_838613" data-name="Trazado 838613" d="M88.413,45.3A24.942,24.942,0,0,0,81.1,61.47c-.221,6.645,6.2,10.189,6.2,10.189Z" transform="translate(-81.097 -45.3)" fill="#058c36"/>
            </g>
            <g id="Grupo_1072105" data-name="Grupo 1072105" transform="translate(5.986)">
              <path id="Trazado_838614" data-name="Trazado 838614" d="M85.129,45.3a25.432,25.432,0,0,1,5.759,16.834c-.222,6.645-7.088,9.525-7.088,9.525Z" transform="translate(-83.8 -45.3)" fill="#3ca936"/>
            </g>
          </g>
          <g id="Grupo_1072109" data-name="Grupo 1072109" transform="translate(35.507 127.593)">
            <g id="Grupo_1072107" data-name="Grupo 1072107">
              <path id="Trazado_838615" data-name="Trazado 838615" d="M49.014,64.8a30.645,30.645,0,0,0,1.108,21.708c3.323,7.31,12.4,7.531,12.4,7.531Z" transform="translate(-47.53 -64.8)" fill="#058c36"/>
            </g>
            <g id="Grupo_1072108" data-name="Grupo 1072108" transform="translate(1.484)">
              <path id="Trazado_838616" data-name="Trazado 838616" d="M48.2,64.8s10.632,3.987,15.727,14.841c3.323,7.31-2.215,14.4-2.215,14.4Z" transform="translate(-48.2 -64.8)" fill="#3ca936"/>
            </g>
          </g>
          <g id="Grupo_1072112" data-name="Grupo 1072112" transform="translate(196.984 39.877)">
            <g id="Grupo_1072110" data-name="Grupo 1072110">
              <path id="Trazado_838617" data-name="Trazado 838617" d="M121.914,25.2a30.645,30.645,0,0,0,1.108,21.708c3.323,7.31,12.4,7.531,12.4,7.531Z" transform="translate(-120.43 -25.2)" fill="#058c36"/>
            </g>
            <g id="Grupo_1072111" data-name="Grupo 1072111" transform="translate(1.484)">
              <path id="Trazado_838618" data-name="Trazado 838618" d="M121.1,25.2s10.632,3.987,15.727,14.841c3.323,7.31-2.215,14.4-2.215,14.4Z" transform="translate(-121.1 -25.2)" fill="#3ca936"/>
            </g>
          </g>
          <g id="Grupo_1072115" data-name="Grupo 1072115" transform="translate(152.899 9.309)">
            <g id="Grupo_1072113" data-name="Grupo 1072113">
              <path id="Trazado_838619" data-name="Trazado 838619" d="M106.669,11.4s-7.31,8.86-5.981,20.822c.886,7.974,9.3,11.3,9.3,11.3Z" transform="translate(-100.527 -11.4)" fill="#058c36"/>
            </g>
            <g id="Grupo_1072114" data-name="Grupo 1072114" transform="translate(6.142)">
              <path id="Trazado_838620" data-name="Trazado 838620" d="M103.3,11.4s8.86,7.31,9.968,19.271c.886,7.974-6.867,12.847-6.867,12.847Z" transform="translate(-103.3 -11.4)" fill="#3ca936"/>
            </g>
          </g>
          <g id="Grupo_1072118" data-name="Grupo 1072118" transform="translate(186.818 144.428)">
            <g id="Grupo_1072116" data-name="Grupo 1072116">
              <path id="Trazado_838621" data-name="Trazado 838621" d="M116.194,72.4a31.206,31.206,0,0,0,4.43,21.265c4.43,6.645,13.512,5.759,13.512,5.759Z" transform="translate(-115.84 -72.4)" fill="#058c36"/>
            </g>
            <g id="Grupo_1072117" data-name="Grupo 1072117" transform="translate(0.354)">
              <path id="Trazado_838622" data-name="Trazado 838622" d="M116,72.4a31.082,31.082,0,0,1,17.942,12.4c4.43,6.645,0,14.619,0,14.619Z" transform="translate(-116 -72.4)" fill="#3ca936"/>
            </g>
          </g>
          <g id="Grupo_1072121" data-name="Grupo 1072121" transform="translate(67.781 235.314)">
            <g id="Grupo_1072119" data-name="Grupo 1072119" transform="translate(0 3.697)">
              <path id="Trazado_838623" data-name="Trazado 838623" d="M62.1,115.1a25.11,25.11,0,0,0,14.841,9.746c6.424,1.329,11.075-4.652,11.075-4.652Z" transform="translate(-62.1 -115.1)" fill="#058c36"/>
            </g>
            <g id="Grupo_1072120" data-name="Grupo 1072120">
              <path id="Trazado_838624" data-name="Trazado 838624" d="M62.1,117.128a26.11,26.11,0,0,1,17.5-3.323c6.424,1.329,8.417,8.417,8.417,8.417Z" transform="translate(-62.1 -113.431)" fill="#3ca936"/>
            </g>
          </g>
          <g id="Grupo_1072124" data-name="Grupo 1072124" transform="translate(66.23 207.496)">
            <g id="Grupo_1072122" data-name="Grupo 1072122" transform="translate(0 0.504)">
              <path id="Trazado_838625" data-name="Trazado 838625" d="M61.4,101.1a16.716,16.716,0,0,0,7.531,9.082c3.766,1.994,7.753-.665,7.753-.665Z" transform="translate(-61.4 -101.1)" fill="#058c36"/>
            </g>
            <g id="Grupo_1072123" data-name="Grupo 1072123">
              <path id="Trazado_838626" data-name="Trazado 838626" d="M61.4,101.376a16.89,16.89,0,0,1,11.74,1.329c3.766,1.994,3.766,6.867,3.766,6.867Z" transform="translate(-61.4 -100.872)" fill="#3ca936"/>
            </g>
          </g>
          <g id="Grupo_1072127" data-name="Grupo 1072127" transform="translate(0 237.177)">
            <g id="Grupo_1072125" data-name="Grupo 1072125" transform="translate(0 0.504)">
              <path id="Trazado_838627" data-name="Trazado 838627" d="M31.5,114.5a16.716,16.716,0,0,0,7.531,9.082c3.766,1.994,7.753-.665,7.753-.665Z" transform="translate(-31.5 -114.5)" fill="#058c36"/>
            </g>
            <g id="Grupo_1072126" data-name="Grupo 1072126">
              <path id="Trazado_838628" data-name="Trazado 838628" d="M31.5,114.776a16.89,16.89,0,0,1,11.74,1.329c3.766,1.994,3.766,6.867,3.766,6.867Z" transform="translate(-31.5 -114.272)" fill="#3ca936"/>
            </g>
          </g>
          <g id="Grupo_1072130" data-name="Grupo 1072130" transform="translate(37.434 160.646)">
            <g id="Grupo_1072128" data-name="Grupo 1072128" transform="translate(0 1.28)">
              <path id="Trazado_838629" data-name="Trazado 838629" d="M48.4,88.939a16.256,16.256,0,0,0,11.74-1.551c3.766-2.215,3.544-7.088,3.544-7.088Z" transform="translate(-48.4 -80.3)" fill="#058c36"/>
            </g>
            <g id="Grupo_1072129" data-name="Grupo 1072129">
              <path id="Trazado_838630" data-name="Trazado 838630" d="M48.4,89.641a16.716,16.716,0,0,1,7.531-9.082c3.766-2.215,7.753.665,7.753.665Z" transform="translate(-48.4 -79.722)" fill="#3ca936"/>
            </g>
          </g>
          <g id="Grupo_1072133" data-name="Grupo 1072133" transform="translate(4.209 189.58)">
            <g id="Grupo_1072131" data-name="Grupo 1072131" transform="translate(0 3.578)">
              <path id="Trazado_838631" data-name="Trazado 838631" d="M33.4,96.394a17.225,17.225,0,0,0,11.3,3.1c4.43-.443,5.981-5.095,5.981-5.095Z" transform="translate(-33.4 -94.4)" fill="#058c36"/>
            </g>
            <g id="Grupo_1072132" data-name="Grupo 1072132">
              <path id="Trazado_838632" data-name="Trazado 838632" d="M33.4,98.356a16.109,16.109,0,0,1,10.411-5.538c4.43-.443,7.088,3.544,7.088,3.544Z" transform="translate(-33.4 -92.784)" fill="#3ca936"/>
            </g>
          </g>
          <g id="Grupo_1072136" data-name="Grupo 1072136" transform="translate(187.574 101.44)">
            <g id="Grupo_1072134" data-name="Grupo 1072134" transform="translate(0.263 0.016)">
              <path id="Trazado_838633" data-name="Trazado 838633" d="M116.3,67.841a16.711,16.711,0,0,0,9.525-6.867C128.04,57.209,125.6,53,125.6,53Z" transform="translate(-116.3 -53)" fill="#058c36"/>
            </g>
            <g id="Grupo_1072135" data-name="Grupo 1072135">
              <path id="Trazado_838634" data-name="Trazado 838634" d="M116.444,67.85a17.218,17.218,0,0,1,1.994-11.518c2.215-3.766,7.088-3.323,7.088-3.323Z" transform="translate(-116.181 -52.993)" fill="#3ca936"/>
            </g>
          </g>
          <g id="Grupo_1072139" data-name="Grupo 1072139" transform="translate(148.149 147.75)">
            <g id="Grupo_1072137" data-name="Grupo 1072137" transform="translate(0)">
              <path id="Trazado_838635" data-name="Trazado 838635" d="M98.421,73.9a16.567,16.567,0,0,0,3.544,11.3c2.88,3.323,7.531,2.215,7.531,2.215Z" transform="translate(-98.383 -73.9)" fill="#058c36"/>
            </g>
            <g id="Grupo_1072138" data-name="Grupo 1072138" transform="translate(0.038)">
              <path id="Trazado_838636" data-name="Trazado 838636" d="M98.4,73.9a17.6,17.6,0,0,1,10.411,5.538c2.88,3.323.886,7.753.886,7.753Z" transform="translate(-98.4 -73.9)" fill="#3ca936"/>
            </g>
          </g>
          <g id="Grupo_1072142" data-name="Grupo 1072142" transform="translate(205.962 32.346)">
            <g id="Grupo_1072140" data-name="Grupo 1072140">
              <path id="Trazado_838637" data-name="Trazado 838637" d="M124.521,21.8a16.567,16.567,0,0,0,3.544,11.3c2.88,3.323,7.531,2.215,7.531,2.215Z" transform="translate(-124.483 -21.8)" fill="#058c36"/>
            </g>
            <g id="Grupo_1072141" data-name="Grupo 1072141" transform="translate(0.038)">
              <path id="Trazado_838638" data-name="Trazado 838638" d="M124.5,21.8a17.6,17.6,0,0,1,10.411,5.538c2.88,3.323.886,7.753.886,7.753Z" transform="translate(-124.5 -21.8)" fill="#3ca936"/>
            </g>
          </g>
          <g id="Grupo_1072145" data-name="Grupo 1072145" transform="translate(173.843 4.879)">
            <g id="Grupo_1072143" data-name="Grupo 1072143" transform="translate(0)">
              <path id="Trazado_838639" data-name="Trazado 838639" d="M110.021,9.4a16.567,16.567,0,0,0,3.544,11.3c2.88,3.323,7.531,2.215,7.531,2.215Z" transform="translate(-109.983 -9.4)" fill="#058c36"/>
            </g>
            <g id="Grupo_1072144" data-name="Grupo 1072144" transform="translate(0.038)">
              <path id="Trazado_838640" data-name="Trazado 838640" d="M110,9.4a17.6,17.6,0,0,1,10.411,5.538c2.88,3.323.886,7.753.886,7.753Z" transform="translate(-110 -9.4)" fill="#3ca936"/>
            </g>
          </g>
          <g id="Grupo_1072148" data-name="Grupo 1072148" transform="translate(45.63 124.679)">
            <g id="Grupo_1072146" data-name="Grupo 1072146" transform="translate(0 3.578)">
              <path id="Trazado_838641" data-name="Trazado 838641" d="M52.1,67.094a17.225,17.225,0,0,0,11.3,3.1c4.43-.443,5.981-5.095,5.981-5.095Z" transform="translate(-52.1 -65.1)" fill="#058c36"/>
            </g>
            <g id="Grupo_1072147" data-name="Grupo 1072147">
              <path id="Trazado_838642" data-name="Trazado 838642" d="M52.1,69.056a16.109,16.109,0,0,1,10.411-5.538c4.43-.443,7.088,3.544,7.088,3.544Z" transform="translate(-52.1 -63.484)" fill="#3ca936"/>
            </g>
          </g>
          <g id="Grupo_1072151" data-name="Grupo 1072151" transform="translate(109.202 68.524)">
            <g id="Grupo_1072149" data-name="Grupo 1072149" transform="translate(0 0.814)">
              <path id="Trazado_838643" data-name="Trazado 838643" d="M80.8,38.5A16.691,16.691,0,0,0,89,46.917c3.987,1.772,7.753-1.329,7.753-1.329Z" transform="translate(-80.8 -38.5)" fill="#058c36"/>
            </g>
            <g id="Grupo_1072150" data-name="Grupo 1072150">
              <path id="Trazado_838644" data-name="Trazado 838644" d="M80.8,38.946a16.027,16.027,0,0,1,11.74.665c3.987,1.772,4.209,6.645,4.209,6.645Z" transform="translate(-80.8 -38.133)" fill="#3ca936"/>
            </g>
          </g>
          <g id="Grupo_1072154" data-name="Grupo 1072154" transform="translate(32.838 175.217)">
            <g id="Grupo_1072152" data-name="Grupo 1072152">
              <path id="Trazado_838645" data-name="Trazado 838645" d="M52.25,86.3a31,31,0,0,0-5.759,21.043c.886,7.974,9.3,11.075,9.3,11.075Z" transform="translate(-46.325 -86.3)" fill="#058c36"/>
            </g>
            <g id="Grupo_1072153" data-name="Grupo 1072153" transform="translate(5.925)">
              <path id="Trazado_838646" data-name="Trazado 838646" d="M49,86.3a31.59,31.59,0,0,1,10.411,19.049c.886,7.974-6.645,12.847-6.645,12.847Z" transform="translate(-49 -86.3)" fill="#026633"/>
            </g>
          </g>
          <g id="Grupo_1072157" data-name="Grupo 1072157" transform="translate(186.811 122.499)">
            <g id="Grupo_1072155" data-name="Grupo 1072155">
              <path id="Trazado_838647" data-name="Trazado 838647" d="M115.977,62.5a22.5,22.5,0,0,0,4.209,15.727c3.544,4.873,10.189,3.766,10.189,3.766Z" transform="translate(-115.837 -62.5)" fill="#058c36"/>
            </g>
            <g id="Grupo_1072156" data-name="Grupo 1072156" transform="translate(0.14)">
              <path id="Trazado_838648" data-name="Trazado 838648" d="M115.9,62.5a23.407,23.407,0,0,1,13.733,8.417c3.544,4.873.443,10.854.443,10.854Z" transform="translate(-115.9 -62.5)" fill="#026633"/>
            </g>
          </g>
          <g id="Grupo_1072160" data-name="Grupo 1072160" transform="translate(169.248 147.75)">
            <g id="Grupo_1072158" data-name="Grupo 1072158">
              <path id="Trazado_838649" data-name="Trazado 838649" d="M108.776,73.9a23.311,23.311,0,0,0,1.329,16.17c2.658,5.316,9.3,5.316,9.3,5.316Z" transform="translate(-107.908 -73.9)" fill="#058c36"/>
            </g>
            <g id="Grupo_1072159" data-name="Grupo 1072159" transform="translate(0.868)">
              <path id="Trazado_838650" data-name="Trazado 838650" d="M108.3,73.9a22.552,22.552,0,0,1,11.961,10.854c2.658,5.316-1.329,10.632-1.329,10.632Z" transform="translate(-108.3 -73.9)" fill="#026633"/>
            </g>
          </g>
          <g id="Grupo_1072163" data-name="Grupo 1072163" transform="translate(192.757 20.385)">
            <g id="Grupo_1072161" data-name="Grupo 1072161">
              <path id="Trazado_838651" data-name="Trazado 838651" d="M131.764,16.4a19.939,19.939,0,0,0-11.74,7.31c-3.1,4.209-.443,9.3-.443,9.3Z" transform="translate(-118.521 -16.4)" fill="#058c36"/>
            </g>
            <g id="Grupo_1072162" data-name="Grupo 1072162" transform="translate(1.06)">
              <path id="Trazado_838652" data-name="Trazado 838652" d="M131.183,16.4a19.827,19.827,0,0,1-3.544,13.512c-3.1,4.209-8.639,3.1-8.639,3.1Z" transform="translate(-119 -16.4)" fill="#026633"/>
            </g>
          </g>
          <g id="Grupo_1072166" data-name="Grupo 1072166" transform="translate(92.277 244.477)">
            <g id="Grupo_1072164" data-name="Grupo 1072164" transform="translate(0.09 0.292)">
              <path id="Trazado_838653" data-name="Trazado 838653" d="M73.2,142.952A30.878,30.878,0,0,0,92.028,132.1c5.095-6.424,1.329-14.4,1.329-14.4Z" transform="translate(-73.2 -117.7)" fill="#058c36"/>
            </g>
            <g id="Grupo_1072165" data-name="Grupo 1072165">
              <path id="Trazado_838654" data-name="Trazado 838654" d="M73.25,143.112a30.807,30.807,0,0,1,6.2-20.822c5.095-6.424,13.955-4.43,13.955-4.43Z" transform="translate(-73.159 -117.568)" fill="#026633"/>
            </g>
          </g>
          <g id="Grupo_1072169" data-name="Grupo 1072169" transform="translate(82.622 111.104)">
            <g id="Grupo_1072167" data-name="Grupo 1072167" transform="translate(0 4.085)">
              <path id="Trazado_838655" data-name="Trazado 838655" d="M68.8,70.5s10.411,4.652,21.708.443c7.531-2.88,8.417-11.74,8.417-11.74Z" transform="translate(-68.8 -59.2)" fill="#058c36"/>
            </g>
            <g id="Grupo_1072168" data-name="Grupo 1072168">
              <path id="Trazado_838656" data-name="Trazado 838656" d="M68.8,72.738s4.652-10.411,15.948-14.619c7.531-2.88,14.176,3.323,14.176,3.323Z" transform="translate(-68.8 -57.356)" fill="#026633"/>
            </g>
          </g>
          <g id="Grupo_1072172" data-name="Grupo 1072172" transform="translate(173.691 22.6)">
            <g id="Grupo_1072170" data-name="Grupo 1072170" transform="translate(0)">
              <path id="Trazado_838657" data-name="Trazado 838657" d="M111.655,17.4a23.446,23.446,0,0,0-.222,17.056c2.215,5.981,9.3,6.645,9.3,6.645Z" transform="translate(-109.914 -17.4)" fill="#058c36"/>
            </g>
            <g id="Grupo_1072171" data-name="Grupo 1072171" transform="translate(1.741)">
              <path id="Trazado_838658" data-name="Trazado 838658" d="M110.7,17.4a24.452,24.452,0,0,1,11.518,12.626c2.215,5.981-2.658,11.075-2.658,11.075Z" transform="translate(-110.7 -17.4)" fill="#026633"/>
            </g>
          </g>
          <g id="Grupo_1072175" data-name="Grupo 1072175" transform="translate(150.845 53.093)">
            <g id="Grupo_1072173" data-name="Grupo 1072173" transform="translate(0 6.498)">
              <path id="Trazado_838659" data-name="Trazado 838659" d="M99.6,34.1a31.186,31.186,0,0,0,19.492,9.746c7.974.665,12.626-7.088,12.626-7.088Z" transform="translate(-99.6 -34.1)" fill="#058c36"/>
            </g>
            <g id="Grupo_1072174" data-name="Grupo 1072174">
              <path id="Trazado_838660" data-name="Trazado 838660" d="M99.6,37.665a31.313,31.313,0,0,1,20.822-6.424c7.974.665,11.3,9.082,11.3,9.082Z" transform="translate(-99.6 -31.166)" fill="#026633"/>
            </g>
          </g>
          <g id="Grupo_1072178" data-name="Grupo 1072178" transform="translate(67.279 255.424)">
            <g id="Grupo_1072176" data-name="Grupo 1072176" transform="translate(0.059 0.199)">
              <path id="Trazado_838661" data-name="Trazado 838661" d="M61.9,139.213a21.116,21.116,0,0,0,12.626-7.088c3.323-4.209.886-9.525.886-9.525Z" transform="translate(-61.9 -122.6)" fill="#058c36"/>
            </g>
            <g id="Grupo_1072177" data-name="Grupo 1072177">
              <path id="Trazado_838662" data-name="Trazado 838662" d="M61.932,139.322a19.906,19.906,0,0,1,4.209-13.733c3.323-4.209,9.3-2.88,9.3-2.88Z" transform="translate(-61.873 -122.51)" fill="#026633"/>
            </g>
          </g>
          <g id="Grupo_1072181" data-name="Grupo 1072181" transform="translate(95.469 48.547)">
            <g id="Grupo_1072179" data-name="Grupo 1072179" transform="translate(0 1.963)">
              <path id="Trazado_838663" data-name="Trazado 838663" d="M74.6,30a20.855,20.855,0,0,0,11.075,9.082c5.095,1.551,9.3-2.658,9.3-2.658Z" transform="translate(-74.6 -30)" fill="#058c36"/>
            </g>
            <g id="Grupo_1072180" data-name="Grupo 1072180">
              <path id="Trazado_838664" data-name="Trazado 838664" d="M74.6,31.077A20.224,20.224,0,0,1,89,29.969c5.095,1.551,5.981,7.531,5.981,7.531Z" transform="translate(-74.6 -29.114)" fill="#026633"/>
            </g>
          </g>
          <g id="Grupo_1072184" data-name="Grupo 1072184" transform="translate(128.473 165.408)">
            <g id="Grupo_1072182" data-name="Grupo 1072182" transform="translate(0 4.271)">
              <path id="Trazado_838665" data-name="Trazado 838665" d="M89.5,86.68a20.089,20.089,0,0,0,13.955,3.544c5.316-.665,7.31-6.424,7.31-6.424Z" transform="translate(-89.5 -83.8)" fill="#058c36"/>
            </g>
            <g id="Grupo_1072183" data-name="Grupo 1072183" transform="translate(0)">
              <path id="Trazado_838666" data-name="Trazado 838666" d="M89.5,89.022a20.942,20.942,0,0,1,12.626-7.088c5.316-.665,8.639,4.209,8.639,4.209Z" transform="translate(-89.5 -81.872)" fill="#026633"/>
            </g>
          </g>
          <g id="Grupo_1072187" data-name="Grupo 1072187" transform="translate(86.107 212.452)">
            <g id="Grupo_1072185" data-name="Grupo 1072185" transform="translate(0.059 0.199)">
              <path id="Trazado_838667" data-name="Trazado 838667" d="M70.4,119.813a21.116,21.116,0,0,0,12.626-7.088c3.323-4.209.886-9.525.886-9.525Z" transform="translate(-70.4 -103.2)" fill="#058c36"/>
            </g>
            <g id="Grupo_1072186" data-name="Grupo 1072186">
              <path id="Trazado_838668" data-name="Trazado 838668" d="M70.432,119.922a19.906,19.906,0,0,1,4.209-13.733c3.323-4.209,9.3-2.88,9.3-2.88Z" transform="translate(-70.373 -103.11)" fill="#026633"/>
            </g>
          </g>
          <g id="Grupo_1072190" data-name="Grupo 1072190" transform="translate(100.033 64.686)">
            <g id="Grupo_1072188" data-name="Grupo 1072188">
              <path id="Trazado_838669" data-name="Trazado 838669" d="M79.406,36.4a13.51,13.51,0,0,0-2.658,9.525c.443,3.766,4.209,5.095,4.209,5.095Z" transform="translate(-76.66 -36.4)" fill="#058c36"/>
            </g>
            <g id="Grupo_1072189" data-name="Grupo 1072189" transform="translate(2.746)">
              <path id="Trazado_838670" data-name="Trazado 838670" d="M77.9,36.4a14.646,14.646,0,0,1,4.652,8.639c.443,3.766-3.1,5.981-3.1,5.981Z" transform="translate(-77.9 -36.4)" fill="#026633"/>
            </g>
          </g>
          <g id="Grupo_1072193" data-name="Grupo 1072193" transform="translate(187.118 80.634)">
            <g id="Grupo_1072191" data-name="Grupo 1072191">
              <path id="Trazado_838671" data-name="Trazado 838671" d="M116.03,43.6a14.245,14.245,0,0,0,2.658,9.525c2.215,2.88,6.2,1.994,6.2,1.994Z" transform="translate(-115.976 -43.6)" fill="#058c36"/>
            </g>
            <g id="Grupo_1072192" data-name="Grupo 1072192" transform="translate(0.054)">
              <path id="Trazado_838672" data-name="Trazado 838672" d="M116,43.6a14.533,14.533,0,0,1,8.639,5.095c2.215,2.88.443,6.645.443,6.645Z" transform="translate(-116 -43.6)" fill="#026633"/>
            </g>
          </g>
          <g id="Grupo_1072196" data-name="Grupo 1072196" transform="translate(13.29 161.531)">
            <g id="Grupo_1072194" data-name="Grupo 1072194" transform="translate(0 1.06)">
              <path id="Trazado_838673" data-name="Trazado 838673" d="M37.5,93.226a19.491,19.491,0,0,0,13.955-3.544c4.43-3.1,3.323-9.082,3.323-9.082Z" transform="translate(-37.5 -80.6)" fill="#058c36"/>
            </g>
            <g id="Grupo_1072195" data-name="Grupo 1072195">
              <path id="Trazado_838674" data-name="Trazado 838674" d="M37.5,93.807a21.03,21.03,0,0,1,7.753-12.183c4.43-3.1,9.746-.443,9.746-.443Z" transform="translate(-37.5 -80.121)" fill="#026633"/>
            </g>
          </g>
          <g id="Grupo_1072199" data-name="Grupo 1072199" transform="translate(106.766 213.668)">
            <g id="Grupo_1072197" data-name="Grupo 1072197" transform="translate(0 0.09)">
              <path id="Trazado_838675" data-name="Trazado 838675" d="M79.7,103.7a30.878,30.878,0,0,0,10.854,18.828c6.424,5.095,14.4,1.108,14.4,1.108Z" transform="translate(-79.7 -103.7)" fill="#058c36"/>
            </g>
            <g id="Grupo_1072198" data-name="Grupo 1072198">
              <path id="Trazado_838676" data-name="Trazado 838676" d="M79.7,103.75a30.807,30.807,0,0,1,20.822,6.2c6.424,5.095,4.43,13.955,4.43,13.955Z" transform="translate(-79.7 -103.659)" fill="#026633"/>
            </g>
          </g>
          <g id="Grupo_1072202" data-name="Grupo 1072202" transform="translate(124.243 37.662)">
            <g id="Grupo_1072200" data-name="Grupo 1072200" transform="translate(0 0)">
              <path id="Trazado_838677" data-name="Trazado 838677" d="M101.567,24.2S91.6,29.738,88.055,41.256c-2.215,7.753,4.209,13.955,4.209,13.955Z" transform="translate(-87.59 -24.2)" fill="#058c36"/>
            </g>
            <g id="Grupo_1072201" data-name="Grupo 1072201" transform="translate(4.895 0)">
              <path id="Trazado_838678" data-name="Trazado 838678" d="M98.882,24.2a30.314,30.314,0,0,1,1.994,21.708c-2.215,7.753-11.075,9.3-11.075,9.3Z" transform="translate(-89.8 -24.2)" fill="#026633"/>
            </g>
          </g>
          <g id="Grupo_1072205" data-name="Grupo 1072205" transform="translate(49.156 89.494)">
            <g id="Grupo_1072203" data-name="Grupo 1072203">
              <path id="Trazado_838679" data-name="Trazado 838679" d="M56.146,47.6s-4.873,10.411-.886,21.708C57.918,76.839,67,77.946,67,77.946Z" transform="translate(-53.692 -47.6)" fill="#058c36"/>
            </g>
            <g id="Grupo_1072204" data-name="Grupo 1072204" transform="translate(2.454)">
              <path id="Trazado_838680" data-name="Trazado 838680" d="M54.8,47.6s10.411,4.873,14.4,16.391c2.658,7.531-3.544,14.176-3.544,14.176Z" transform="translate(-54.8 -47.6)" fill="#026633"/>
            </g>
          </g>
        </g>
        <g id="Grupo_1072209" data-name="Grupo 1072209" transform="translate(445.218 261.649)">
          <g id="Grupo_1072207" data-name="Grupo 1072207" transform="translate(0 2.163)">
            <path id="Trazado_838681" data-name="Trazado 838681" d="M255.541,134.569a25.762,25.762,0,0,1-17.72-2.437C232.061,128.81,232.5,121.5,232.5,121.5Z" transform="translate(-232.496 -121.5)" fill="#058c36"/>
          </g>
          <g id="Grupo_1072208" data-name="Grupo 1072208" transform="translate(0.008)">
            <path id="Trazado_838682" data-name="Trazado 838682" d="M255.537,135.756A25.014,25.014,0,0,0,244.461,121.8c-5.759-3.323-11.961.886-11.961.886Z" transform="translate(-232.5 -120.523)" fill="#3ca936"/>
          </g>
        </g>
        <g id="Grupo_1072212" data-name="Grupo 1072212" transform="translate(454.521 221.114)">
          <g id="Grupo_1072210" data-name="Grupo 1072210" transform="translate(0 2.163)">
            <path id="Trazado_838683" data-name="Trazado 838683" d="M259.741,116.269a25.762,25.762,0,0,1-17.72-2.437C236.261,110.51,236.7,103.2,236.7,103.2Z" transform="translate(-236.696 -103.2)" fill="#058c36"/>
          </g>
          <g id="Grupo_1072211" data-name="Grupo 1072211" transform="translate(0.008)">
            <path id="Trazado_838684" data-name="Trazado 838684" d="M259.737,117.456A25.014,25.014,0,0,0,248.661,103.5c-5.759-3.323-11.961.886-11.961.886Z" transform="translate(-236.7 -102.223)" fill="#3ca936"/>
          </g>
        </g>
        <g id="Grupo_1072215" data-name="Grupo 1072215" transform="translate(422.118 241.572)">
          <g id="Grupo_1072213" data-name="Grupo 1072213" transform="translate(0.292 0.09)">
            <path id="Trazado_838685" data-name="Trazado 838685" d="M247.452,111.5A30.878,30.878,0,0,1,236.6,130.328c-6.424,5.095-14.4,1.329-14.4,1.329Z" transform="translate(-222.2 -111.5)" fill="#058c36"/>
          </g>
          <g id="Grupo_1072214" data-name="Grupo 1072214">
            <path id="Trazado_838686" data-name="Trazado 838686" d="M247.612,111.55a30.807,30.807,0,0,0-20.822,6.2c-6.424,5.095-4.43,13.955-4.43,13.955Z" transform="translate(-222.068 -111.459)" fill="#3ca936"/>
          </g>
        </g>
        <g id="Grupo_1072218" data-name="Grupo 1072218" transform="translate(394.429 74.204)">
          <g id="Grupo_1072216" data-name="Grupo 1072216" transform="translate(6.939)">
            <path id="Trazado_838687" data-name="Trazado 838687" d="M216.023,35.9s7.088,8.86,5.981,20.822c-.886,7.974-9.3,11.075-9.3,11.075Z" transform="translate(-212.7 -35.9)" fill="#058c36"/>
          </g>
          <g id="Grupo_1072217" data-name="Grupo 1072217">
            <path id="Trazado_838688" data-name="Trazado 838688" d="M219.829,35.9A30.809,30.809,0,0,0,209.64,55.171c-.886,7.974,6.645,12.847,6.645,12.847Z" transform="translate(-209.567 -35.9)" fill="#3ca936"/>
          </g>
        </g>
        <g id="Grupo_1072221" data-name="Grupo 1072221" transform="translate(358.502 176.097)">
          <g id="Grupo_1072219" data-name="Grupo 1072219" transform="translate(3.438)">
            <path id="Trazado_838689" data-name="Trazado 838689" d="M203.982,81.9a24.48,24.48,0,0,1,.443,17.72c-2.215,6.2-9.525,7.088-9.525,7.088Z" transform="translate(-194.9 -81.9)" fill="#058c36"/>
          </g>
          <g id="Grupo_1072220" data-name="Grupo 1072220">
            <path id="Trazado_838690" data-name="Trazado 838690" d="M205.867,81.9a26.093,26.093,0,0,0-11.961,13.29c-2.215,6.2,2.88,11.518,2.88,11.518Z" transform="translate(-193.348 -81.9)" fill="#3ca936"/>
          </g>
        </g>
        <g id="Grupo_1072224" data-name="Grupo 1072224" transform="translate(394.54 112.398)">
          <g id="Grupo_1072222" data-name="Grupo 1072222" transform="translate(0 0.791)">
            <path id="Trazado_838691" data-name="Trazado 838691" d="M229.514,71.22a25.194,25.194,0,0,1-16.613-6.2c-4.873-4.43-2.88-11.518-2.88-11.518Z" transform="translate(-209.618 -53.5)" fill="#058c36"/>
          </g>
          <g id="Grupo_1072223" data-name="Grupo 1072223" transform="translate(0.404 0)">
            <path id="Trazado_838692" data-name="Trazado 838692" d="M229.292,71.654a25.194,25.194,0,0,0-7.753-15.948c-4.873-4.43-11.74-1.772-11.74-1.772Z" transform="translate(-209.8 -53.143)" fill="#3ca936"/>
          </g>
        </g>
        <g id="Grupo_1072227" data-name="Grupo 1072227" transform="translate(309.665 58.034)">
          <g id="Grupo_1072225" data-name="Grupo 1072225" transform="translate(0 6.645)">
            <path id="Trazado_838693" data-name="Trazado 838693" d="M197.881,31.6a25.421,25.421,0,0,1-16.613,6.645c-6.645,0-9.968-6.645-9.968-6.645Z" transform="translate(-171.3 -31.6)" fill="#058c36"/>
          </g>
          <g id="Grupo_1072226" data-name="Grupo 1072226">
            <path id="Trazado_838694" data-name="Trazado 838694" d="M197.881,35.245A25.421,25.421,0,0,0,181.268,28.6c-6.645,0-9.968,6.645-9.968,6.645Z" transform="translate(-171.3 -28.6)" fill="#3ca936"/>
          </g>
        </g>
        <g id="Grupo_1072230" data-name="Grupo 1072230" transform="translate(279.318 16.611)">
          <g id="Grupo_1072228" data-name="Grupo 1072228">
            <path id="Trazado_838695" data-name="Trazado 838695" d="M157.6,9.9a18.293,18.293,0,0,1,11.518,4.209c3.323,3.1,1.994,7.974,1.994,7.974Z" transform="translate(-157.6 -9.899)" fill="#058c36"/>
          </g>
          <g id="Grupo_1072229" data-name="Grupo 1072229" transform="translate(0 0.002)">
            <path id="Trazado_838696" data-name="Trazado 838696" d="M157.6,9.9a17.176,17.176,0,0,0,5.316,11.075c3.323,3.1,8.2,1.329,8.2,1.329Z" transform="translate(-157.6 -9.9)" fill="#3ca936"/>
          </g>
        </g>
        <g id="Grupo_1072233" data-name="Grupo 1072233" transform="translate(257.168 129.136)">
          <g id="Grupo_1072231" data-name="Grupo 1072231">
            <path id="Trazado_838697" data-name="Trazado 838697" d="M147.6,60.7a18.293,18.293,0,0,1,11.518,4.209c3.323,3.1,1.994,7.974,1.994,7.974Z" transform="translate(-147.6 -60.699)" fill="#058c36"/>
          </g>
          <g id="Grupo_1072232" data-name="Grupo 1072232" transform="translate(0 0.002)">
            <path id="Trazado_838698" data-name="Trazado 838698" d="M147.6,60.7a17.176,17.176,0,0,0,5.316,11.075c3.323,3.1,8.2,1.329,8.2,1.329Z" transform="translate(-147.6 -60.7)" fill="#3ca936"/>
          </g>
        </g>
        <g id="Grupo_1072236" data-name="Grupo 1072236" transform="translate(339.125 34.112)">
          <g id="Grupo_1072234" data-name="Grupo 1072234" transform="translate(0.221 5.316)">
            <path id="Trazado_838699" data-name="Trazado 838699" d="M206.408,20.2A20.184,20.184,0,0,1,192.9,25.738c-5.538,0-8.2-5.316-8.2-5.316Z" transform="translate(-184.7 -20.2)" fill="#058c36"/>
          </g>
          <g id="Grupo_1072235" data-name="Grupo 1072235">
            <path id="Trazado_838700" data-name="Trazado 838700" d="M206.529,23.116A21.478,21.478,0,0,0,192.8,17.8c-5.538,0-8.2,5.538-8.2,5.538Z" transform="translate(-184.6 -17.8)" fill="#3ca936"/>
          </g>
        </g>
        <g id="Grupo_1072239" data-name="Grupo 1072239" transform="translate(431.538 138.441)">
          <g id="Grupo_1072237" data-name="Grupo 1072237" transform="translate(3.277)">
            <path id="Trazado_838701" data-name="Trazado 838701" d="M241.312,64.9A30.644,30.644,0,0,1,240.2,86.608c-3.323,7.31-12.4,7.531-12.4,7.531Z" transform="translate(-227.8 -64.9)" fill="#058c36"/>
          </g>
          <g id="Grupo_1072238" data-name="Grupo 1072238">
            <path id="Trazado_838702" data-name="Trazado 838702" d="M243.109,64.9s-10.632,3.987-15.727,14.841c-3.323,7.31,2.215,14.4,2.215,14.4Z" transform="translate(-226.321 -64.9)" fill="#3ca936"/>
          </g>
        </g>
        <g id="Grupo_1072242" data-name="Grupo 1072242" transform="translate(220.001 7.974)">
          <g id="Grupo_1072240" data-name="Grupo 1072240" transform="translate(3.277)">
            <path id="Trazado_838703" data-name="Trazado 838703" d="M145.812,6A30.645,30.645,0,0,1,144.7,27.708c-3.323,7.31-12.4,7.531-12.4,7.531Z" transform="translate(-132.3 -6)" fill="#058c36"/>
          </g>
          <g id="Grupo_1072241" data-name="Grupo 1072241">
            <path id="Trazado_838704" data-name="Trazado 838704" d="M147.609,6s-10.632,3.987-15.727,14.841c-3.323,7.31,2.215,14.4,2.215,14.4Z" transform="translate(-130.821 -6)" fill="#3ca936"/>
          </g>
        </g>
        <g id="Grupo_1072245" data-name="Grupo 1072245" transform="translate(314.689 19.714)">
          <g id="Grupo_1072243" data-name="Grupo 1072243" transform="translate(6.716)">
            <path id="Trazado_838705" data-name="Trazado 838705" d="M179.923,11.3s7.31,8.86,5.981,20.822c-.886,7.974-9.3,11.3-9.3,11.3Z" transform="translate(-176.6 -11.3)" fill="#058c36"/>
          </g>
          <g id="Grupo_1072244" data-name="Grupo 1072244">
            <path id="Trazado_838706" data-name="Trazado 838706" d="M183.606,11.3s-8.86,7.31-9.968,19.271c-.886,7.974,6.867,12.847,6.867,12.847Z" transform="translate(-173.568 -11.3)" fill="#3ca936"/>
          </g>
        </g>
        <g id="Grupo_1072248" data-name="Grupo 1072248" transform="translate(333.628 72.432)">
          <g id="Grupo_1072246" data-name="Grupo 1072246" transform="translate(3.282 0)">
            <path id="Trazado_838707" data-name="Trazado 838707" d="M183.6,35.1a22.723,22.723,0,0,1,8.86,13.512c1.108,5.981-3.987,10.189-3.987,10.189Z" transform="translate(-183.6 -35.1)" fill="#058c36"/>
          </g>
          <g id="Grupo_1072247" data-name="Grupo 1072247" transform="translate(0 0)">
            <path id="Trazado_838708" data-name="Trazado 838708" d="M185.4,35.1a23.23,23.23,0,0,0-2.88,15.948c1.107,5.981,7.753,7.753,7.753,7.753Z" transform="translate(-182.118 -35.1)" fill="#3ca936"/>
          </g>
        </g>
        <g id="Grupo_1072251" data-name="Grupo 1072251" transform="translate(252.557 10.411)">
          <g id="Grupo_1072249" data-name="Grupo 1072249" transform="translate(3.282)">
            <path id="Trazado_838709" data-name="Trazado 838709" d="M147,7.1a22.723,22.723,0,0,1,8.86,13.512c1.108,5.981-3.987,10.189-3.987,10.189Z" transform="translate(-147 -7.1)" fill="#058c36"/>
          </g>
          <g id="Grupo_1072250" data-name="Grupo 1072250">
            <path id="Trazado_838710" data-name="Trazado 838710" d="M148.8,7.1a23.23,23.23,0,0,0-2.88,15.948c1.108,5.981,7.753,7.753,7.753,7.753Z" transform="translate(-145.518 -7.1)" fill="#3ca936"/>
          </g>
        </g>
        <g id="Grupo_1072254" data-name="Grupo 1072254" transform="translate(393.172 246.161)">
          <g id="Grupo_1072252" data-name="Grupo 1072252" transform="translate(0 3.697)">
            <path id="Trazado_838711" data-name="Trazado 838711" d="M234.916,115.2a25.111,25.111,0,0,1-14.841,9.746c-6.424,1.329-11.075-4.652-11.075-4.652Z" transform="translate(-209 -115.2)" fill="#058c36"/>
          </g>
          <g id="Grupo_1072253" data-name="Grupo 1072253">
            <path id="Trazado_838712" data-name="Trazado 838712" d="M234.916,117.228a26.109,26.109,0,0,0-17.5-3.323c-6.424,1.329-8.417,8.417-8.417,8.417Z" transform="translate(-209 -113.531)" fill="#3ca936"/>
          </g>
        </g>
        <g id="Grupo_1072257" data-name="Grupo 1072257" transform="translate(373.237 240.937)">
          <g id="Grupo_1072255" data-name="Grupo 1072255" transform="translate(0.222 0.504)">
            <path id="Trazado_838713" data-name="Trazado 838713" d="M215.384,111.4a16.716,16.716,0,0,1-7.531,9.082c-3.766,1.994-7.753-.665-7.753-.665Z" transform="translate(-200.1 -111.4)" fill="#058c36"/>
          </g>
          <g id="Grupo_1072256" data-name="Grupo 1072256">
            <path id="Trazado_838714" data-name="Trazado 838714" d="M215.505,111.676a16.89,16.89,0,0,0-11.74,1.329C200,115,200,119.872,200,119.872Z" transform="translate(-200 -111.172)" fill="#3ca936"/>
          </g>
        </g>
        <g id="Grupo_1072260" data-name="Grupo 1072260" transform="translate(469.813 248.246)">
          <g id="Grupo_1072258" data-name="Grupo 1072258" transform="translate(0.222 0.504)">
            <path id="Trazado_838715" data-name="Trazado 838715" d="M258.984,114.7a16.716,16.716,0,0,1-7.531,9.082c-3.766,1.994-7.753-.665-7.753-.665Z" transform="translate(-243.7 -114.7)" fill="#058c36"/>
          </g>
          <g id="Grupo_1072259" data-name="Grupo 1072259">
            <path id="Trazado_838716" data-name="Trazado 838716" d="M259.105,114.976a16.89,16.89,0,0,0-11.74,1.329c-3.766,1.994-3.766,6.867-3.766,6.867Z" transform="translate(-243.6 -114.472)" fill="#3ca936"/>
          </g>
        </g>
        <g id="Grupo_1072263" data-name="Grupo 1072263" transform="translate(436.142 171.051)">
          <g id="Grupo_1072261" data-name="Grupo 1072261" transform="translate(0 1.28)">
            <path id="Trazado_838717" data-name="Trazado 838717" d="M243.685,88.839a16.256,16.256,0,0,1-11.74-1.551C228.18,85.073,228.4,80.2,228.4,80.2Z" transform="translate(-228.399 -80.2)" fill="#058c36"/>
          </g>
          <g id="Grupo_1072262" data-name="Grupo 1072262" transform="translate(0.003)">
            <path id="Trazado_838718" data-name="Trazado 838718" d="M243.684,89.541a16.716,16.716,0,0,0-7.531-9.082c-3.766-2.215-7.753.665-7.753.665Z" transform="translate(-228.4 -79.622)" fill="#3ca936"/>
          </g>
        </g>
        <g id="Grupo_1072266" data-name="Grupo 1072266" transform="translate(463.611 200.65)">
          <g id="Grupo_1072264" data-name="Grupo 1072264" transform="translate(0.221 3.578)">
            <path id="Trazado_838719" data-name="Trazado 838719" d="M258.177,96.594a17.225,17.225,0,0,1-11.3,3.1c-4.43-.443-5.981-5.095-5.981-5.095Z" transform="translate(-240.9 -94.6)" fill="#058c36"/>
          </g>
          <g id="Grupo_1072265" data-name="Grupo 1072265">
            <path id="Trazado_838720" data-name="Trazado 838720" d="M258.3,98.556a16.109,16.109,0,0,0-10.411-5.538c-4.43-.443-7.088,3.544-7.088,3.544Z" transform="translate(-240.8 -92.984)" fill="#3ca936"/>
          </g>
        </g>
        <g id="Grupo_1072269" data-name="Grupo 1072269" transform="translate(298.324 114.724)">
          <g id="Grupo_1072267" data-name="Grupo 1072267" transform="translate(0 0.016)">
            <path id="Trazado_838721" data-name="Trazado 838721" d="M176.635,69.041a16.711,16.711,0,0,1-9.525-6.867c-2.215-3.766.221-7.974.221-7.974Z" transform="translate(-166.18 -54.2)" fill="#058c36"/>
          </g>
          <g id="Grupo_1072268" data-name="Grupo 1072268" transform="translate(1.373 0)">
            <path id="Trazado_838722" data-name="Trazado 838722" d="M175.882,69.05a17.218,17.218,0,0,0-1.994-11.518c-2.215-3.766-7.088-3.323-7.088-3.323Z" transform="translate(-166.8 -54.193)" fill="#3ca936"/>
          </g>
        </g>
        <g id="Grupo_1072272" data-name="Grupo 1072272" transform="translate(324.505 185.618)">
          <g id="Grupo_1072270" data-name="Grupo 1072270" transform="translate(0 1.554)">
            <path id="Trazado_838723" data-name="Trazado 838723" d="M193.727,94.653a16.739,16.739,0,0,1-11.74-.886C178,91.773,178,86.9,178,86.9Z" transform="translate(-178 -86.9)" fill="#058c36"/>
          </g>
          <g id="Grupo_1072271" data-name="Grupo 1072271">
            <path id="Trazado_838724" data-name="Trazado 838724" d="M193.727,95.505a16.565,16.565,0,0,0-7.974-8.639C181.766,84.873,178,87.974,178,87.974Z" transform="translate(-178 -86.198)" fill="#3ca936"/>
          </g>
        </g>
        <g id="Grupo_1072275" data-name="Grupo 1072275" transform="translate(267.349 40.978)">
          <g id="Grupo_1072273" data-name="Grupo 1072273" transform="translate(0.894)">
            <path id="Trazado_838725" data-name="Trazado 838725" d="M163.675,20.9a16.567,16.567,0,0,1-3.544,11.3c-2.88,3.323-7.531,2.215-7.531,2.215Z" transform="translate(-152.6 -20.9)" fill="#058c36"/>
          </g>
          <g id="Grupo_1072274" data-name="Grupo 1072274">
            <path id="Trazado_838726" data-name="Trazado 838726" d="M164.165,20.9a17.6,17.6,0,0,0-10.411,5.538c-2.88,3.323-.886,7.753-.886,7.753Z" transform="translate(-152.197 -20.9)" fill="#3ca936"/>
          </g>
        </g>
        <g id="Grupo_1072278" data-name="Grupo 1072278" transform="translate(297.474 15.727)">
          <g id="Grupo_1072276" data-name="Grupo 1072276" transform="translate(0.894)">
            <path id="Trazado_838727" data-name="Trazado 838727" d="M177.275,9.5a16.567,16.567,0,0,1-3.544,11.3c-2.88,3.323-7.531,2.215-7.531,2.215Z" transform="translate(-166.2 -9.5)" fill="#058c36"/>
          </g>
          <g id="Grupo_1072277" data-name="Grupo 1072277">
            <path id="Trazado_838728" data-name="Trazado 838728" d="M177.765,9.5a17.6,17.6,0,0,0-10.411,5.538c-2.88,3.323-.886,7.753-.886,7.753Z" transform="translate(-165.797 -9.5)" fill="#3ca936"/>
          </g>
        </g>
        <g id="Grupo_1072281" data-name="Grupo 1072281" transform="translate(419.974 135.527)">
          <g id="Grupo_1072279" data-name="Grupo 1072279" transform="translate(0.221 3.578)">
            <path id="Trazado_838729" data-name="Trazado 838729" d="M238.477,67.194a17.225,17.225,0,0,1-11.3,3.1c-4.43-.443-5.981-5.095-5.981-5.095Z" transform="translate(-221.2 -65.2)" fill="#058c36"/>
          </g>
          <g id="Grupo_1072280" data-name="Grupo 1072280">
            <path id="Trazado_838730" data-name="Trazado 838730" d="M238.6,69.156a16.109,16.109,0,0,0-10.411-5.538c-4.43-.443-7.088,3.544-7.088,3.544Z" transform="translate(-221.1 -63.584)" fill="#3ca936"/>
          </g>
        </g>
        <g id="Grupo_1072284" data-name="Grupo 1072284" transform="translate(357.067 81.586)">
          <g id="Grupo_1072282" data-name="Grupo 1072282" transform="translate(0 0.814)">
            <path id="Trazado_838731" data-name="Trazado 838731" d="M208.648,39.6a16.691,16.691,0,0,1-8.2,8.417c-3.987,1.772-7.753-1.329-7.753-1.329Z" transform="translate(-192.7 -39.6)" fill="#058c36"/>
          </g>
          <g id="Grupo_1072283" data-name="Grupo 1072283">
            <path id="Trazado_838732" data-name="Trazado 838732" d="M208.648,40.046a16.028,16.028,0,0,0-11.74.665c-3.987,1.772-4.209,6.645-4.209,6.645Z" transform="translate(-192.7 -39.233)" fill="#3ca936"/>
          </g>
        </g>
        <g id="Grupo_1072287" data-name="Grupo 1072287" transform="translate(436.072 186.286)">
          <g id="Grupo_1072285" data-name="Grupo 1072285" transform="translate(6.939)">
            <path id="Trazado_838733" data-name="Trazado 838733" d="M235.044,86.5a31,31,0,0,1,5.759,21.043c-.886,7.974-9.3,11.075-9.3,11.075Z" transform="translate(-231.5 -86.5)" fill="#058c36"/>
          </g>
          <g id="Grupo_1072286" data-name="Grupo 1072286">
            <path id="Trazado_838734" data-name="Trazado 838734" d="M238.85,86.5a31.59,31.59,0,0,0-10.411,19.049c-.886,7.974,6.645,12.847,6.645,12.847Z" transform="translate(-228.367 -86.5)" fill="#026633"/>
          </g>
        </g>
        <g id="Grupo_1072290" data-name="Grupo 1072290" transform="translate(279.17 121.163)">
          <g id="Grupo_1072288" data-name="Grupo 1072288" transform="translate(1.034 0)">
            <path id="Trazado_838735" data-name="Trazado 838735" d="M172.4,57.1a22.5,22.5,0,0,1-4.209,15.727C164.645,77.7,158,76.592,158,76.592Z" transform="translate(-158 -57.1)" fill="#058c36"/>
          </g>
          <g id="Grupo_1072289" data-name="Grupo 1072289" transform="translate(0 0)">
            <path id="Trazado_838736" data-name="Trazado 838736" d="M172.965,57.1a23.407,23.407,0,0,0-13.733,8.417c-3.544,4.873-.443,10.854-.443,10.854Z" transform="translate(-157.533 -57.1)" fill="#026633"/>
          </g>
        </g>
        <g id="Grupo_1072293" data-name="Grupo 1072293" transform="translate(295.461 161.699)">
          <g id="Grupo_1072291" data-name="Grupo 1072291" transform="translate(2.243)">
            <path id="Trazado_838737" data-name="Trazado 838737" d="M176.532,75.4A23.311,23.311,0,0,1,175.2,91.57c-2.658,5.316-9.3,5.316-9.3,5.316Z" transform="translate(-165.9 -75.4)" fill="#058c36"/>
          </g>
          <g id="Grupo_1072292" data-name="Grupo 1072292">
            <path id="Trazado_838738" data-name="Trazado 838738" d="M177.762,75.4A22.552,22.552,0,0,0,165.8,86.254c-2.658,5.316,1.329,10.632,1.329,10.632Z" transform="translate(-164.887 -75.4)" fill="#026633"/>
          </g>
        </g>
        <g id="Grupo_1072296" data-name="Grupo 1072296" transform="translate(279.203 31.232)">
          <g id="Grupo_1072294" data-name="Grupo 1072294" transform="translate(0.115)">
            <path id="Trazado_838739" data-name="Trazado 838739" d="M157.6,16.5a19.939,19.939,0,0,1,11.74,7.31c3.1,4.209.443,9.3.443,9.3Z" transform="translate(-157.6 -16.5)" fill="#058c36"/>
          </g>
          <g id="Grupo_1072295" data-name="Grupo 1072295">
            <path id="Trazado_838740" data-name="Trazado 838740" d="M157.663,16.5a19.827,19.827,0,0,0,3.544,13.512c3.1,4.209,8.639,3.1,8.639,3.1Z" transform="translate(-157.548 -16.5)" fill="#026633"/>
          </g>
        </g>
        <g id="Grupo_1072299" data-name="Grupo 1072299" transform="translate(371.454 255.325)">
          <g id="Grupo_1072297" data-name="Grupo 1072297" transform="translate(0 0.292)">
            <path id="Trazado_838741" data-name="Trazado 838741" d="M220.692,143.052A30.878,30.878,0,0,1,201.864,132.2c-5.095-6.424-1.329-14.4-1.329-14.4Z" transform="translate(-199.195 -117.8)" fill="#058c36"/>
          </g>
          <g id="Grupo_1072298" data-name="Grupo 1072298" transform="translate(1.34)">
            <path id="Trazado_838742" data-name="Trazado 838742" d="M219.957,143.212a30.807,30.807,0,0,0-6.2-20.822c-5.095-6.424-13.955-4.43-13.955-4.43Z" transform="translate(-199.8 -117.668)" fill="#026633"/>
          </g>
        </g>
        <g id="Grupo_1072302" data-name="Grupo 1072302" transform="translate(372.572 121.951)">
          <g id="Grupo_1072300" data-name="Grupo 1072300" transform="translate(0 4.085)">
            <path id="Trazado_838743" data-name="Trazado 838743" d="M229.825,70.6s-10.411,4.652-21.708.443C200.586,68.16,199.7,59.3,199.7,59.3Z" transform="translate(-199.7 -59.3)" fill="#058c36"/>
          </g>
          <g id="Grupo_1072301" data-name="Grupo 1072301" transform="translate(0 0)">
            <path id="Trazado_838744" data-name="Trazado 838744" d="M229.825,72.838s-4.652-10.411-15.948-14.619c-7.531-2.88-14.176,3.323-14.176,3.323Z" transform="translate(-199.7 -57.456)" fill="#026633"/>
          </g>
        </g>
        <g id="Grupo_1072305" data-name="Grupo 1072305" transform="translate(297.79 33.447)">
          <g id="Grupo_1072303" data-name="Grupo 1072303" transform="translate(3.014)">
            <path id="Trazado_838745" data-name="Trazado 838745" d="M176.382,17.5a23.447,23.447,0,0,1,.221,17.056c-2.215,5.981-9.3,6.645-9.3,6.645Z" transform="translate(-167.3 -17.5)" fill="#058c36"/>
          </g>
          <g id="Grupo_1072304" data-name="Grupo 1072304">
            <path id="Trazado_838746" data-name="Trazado 838746" d="M178.035,17.5a24.452,24.452,0,0,0-11.518,12.626C164.3,36.106,169.175,41.2,169.175,41.2Z" transform="translate(-165.939 -17.5)" fill="#026633"/>
          </g>
        </g>
        <g id="Grupo_1072308" data-name="Grupo 1072308" transform="translate(292.83 73.398)">
          <g id="Grupo_1072306" data-name="Grupo 1072306" transform="translate(0.222 5.458)">
            <path id="Trazado_838747" data-name="Trazado 838747" d="M195.032,45.531s-9.746,5.981-21.486,3.1C165.794,46.639,163.8,38,163.8,38Z" transform="translate(-163.8 -38)" fill="#058c36"/>
          </g>
          <g id="Grupo_1072307" data-name="Grupo 1072307">
            <path id="Trazado_838748" data-name="Trazado 838748" d="M195.154,48.525s-5.981-9.746-17.72-12.626c-7.753-1.994-13.733,4.873-13.733,4.873Z" transform="translate(-163.7 -35.536)" fill="#026633"/>
          </g>
        </g>
        <g id="Grupo_1072311" data-name="Grupo 1072311" transform="translate(403.607 266.272)">
          <g id="Grupo_1072309" data-name="Grupo 1072309" transform="translate(0 0.199)">
            <path id="Trazado_838749" data-name="Trazado 838749" d="M228.084,139.313a21.116,21.116,0,0,1-12.626-7.088c-3.323-4.209-.886-9.525-.886-9.525Z" transform="translate(-213.711 -122.7)" fill="#058c36"/>
          </g>
          <g id="Grupo_1072310" data-name="Grupo 1072310" transform="translate(0.861)">
            <path id="Trazado_838750" data-name="Trazado 838750" d="M227.612,139.422a19.906,19.906,0,0,0-4.209-13.733c-3.323-4.209-9.3-2.88-9.3-2.88Z" transform="translate(-214.1 -122.61)" fill="#026633"/>
          </g>
        </g>
        <g id="Grupo_1072314" data-name="Grupo 1072314" transform="translate(369.471 59.394)">
          <g id="Grupo_1072312" data-name="Grupo 1072312" transform="translate(0 1.963)">
            <path id="Trazado_838751" data-name="Trazado 838751" d="M218.678,30.1A20.855,20.855,0,0,1,207.6,39.182c-5.095,1.551-9.3-2.658-9.3-2.658Z" transform="translate(-198.3 -30.1)" fill="#058c36"/>
          </g>
          <g id="Grupo_1072313" data-name="Grupo 1072313">
            <path id="Trazado_838752" data-name="Trazado 838752" d="M218.678,31.177a20.224,20.224,0,0,0-14.4-1.108C199.186,31.62,198.3,37.6,198.3,37.6Z" transform="translate(-198.3 -29.214)" fill="#026633"/>
          </g>
        </g>
        <g id="Grupo_1072317" data-name="Grupo 1072317" transform="translate(335.581 176.256)">
          <g id="Grupo_1072315" data-name="Grupo 1072315" transform="translate(0 4.271)">
            <path id="Trazado_838753" data-name="Trazado 838753" d="M204.265,86.78a20.089,20.089,0,0,1-13.955,3.544C184.994,89.659,183,83.9,183,83.9Z" transform="translate(-183 -83.9)" fill="#058c36"/>
          </g>
          <g id="Grupo_1072316" data-name="Grupo 1072316" transform="translate(0)">
            <path id="Trazado_838754" data-name="Trazado 838754" d="M204.264,89.122a20.942,20.942,0,0,0-12.626-7.088C186.323,81.37,183,86.243,183,86.243Z" transform="translate(-183 -81.972)" fill="#026633"/>
          </g>
        </g>
        <g id="Grupo_1072320" data-name="Grupo 1072320" transform="translate(389.125 143.092)">
          <g id="Grupo_1072318" data-name="Grupo 1072318" transform="translate(4.49)">
            <path id="Trazado_838755" data-name="Trazado 838755" d="M211.637,67A20.917,20.917,0,0,1,215.4,80.955c-.665,5.316-6.2,7.31-6.2,7.31Z" transform="translate(-209.2 -67)" fill="#058c36"/>
          </g>
          <g id="Grupo_1072319" data-name="Grupo 1072319">
            <path id="Trazado_838756" data-name="Trazado 838756" d="M214.1,67a20.063,20.063,0,0,0-6.867,12.626c-.665,5.316,4.43,8.639,4.43,8.639Z" transform="translate(-207.173 -67)" fill="#026633"/>
          </g>
        </g>
        <g id="Grupo_1072323" data-name="Grupo 1072323" transform="translate(120.942 254.313)">
          <g id="Grupo_1072321" data-name="Grupo 1072321">
            <path id="Trazado_838757" data-name="Trazado 838757" d="M86.1,131.584a21.116,21.116,0,0,1,7.088-12.626c4.209-3.323,9.525-.886,9.525-.886Z" transform="translate(-86.1 -117.211)" fill="#058c36"/>
          </g>
          <g id="Grupo_1072322" data-name="Grupo 1072322" transform="translate(0 0.861)">
            <path id="Trazado_838758" data-name="Trazado 838758" d="M86.1,131.112A19.905,19.905,0,0,0,99.833,126.9c4.209-3.323,2.88-9.3,2.88-9.3Z" transform="translate(-86.1 -117.6)" fill="#026633"/>
          </g>
        </g>
        <g id="Grupo_1072326" data-name="Grupo 1072326" transform="translate(376.073 72.432)">
          <g id="Grupo_1072324" data-name="Grupo 1072324" transform="translate(1.593 0)">
            <path id="Trazado_838759" data-name="Trazado 838759" d="M202,35.1a13.854,13.854,0,0,1,5.981,7.974c.886,3.544-1.994,6.424-1.994,6.424Z" transform="translate(-202 -35.1)" fill="#058c36"/>
          </g>
          <g id="Grupo_1072325" data-name="Grupo 1072325" transform="translate(0 0)">
            <path id="Trazado_838760" data-name="Trazado 838760" d="M202.874,35.1a13.983,13.983,0,0,0-1.107,9.968c.886,3.544,5.095,4.43,5.095,4.43Z" transform="translate(-201.281 -35.1)" fill="#026633"/>
          </g>
        </g>
        <g id="Grupo_1072329" data-name="Grupo 1072329" transform="translate(288.393 91.482)">
          <g id="Grupo_1072327" data-name="Grupo 1072327" transform="translate(0.893 0)">
            <path id="Trazado_838761" data-name="Trazado 838761" d="M170.96,43.7a14.245,14.245,0,0,1-2.658,9.525c-2.215,2.88-6.2,1.994-6.2,1.994Z" transform="translate(-162.1 -43.7)" fill="#058c36"/>
          </g>
          <g id="Grupo_1072328" data-name="Grupo 1072328" transform="translate(0 0)">
            <path id="Trazado_838762" data-name="Trazado 838762" d="M171.45,43.7a14.532,14.532,0,0,0-8.639,5.095c-2.215,2.88-.443,6.645-.443,6.645Z" transform="translate(-161.697 -43.7)" fill="#026633"/>
          </g>
        </g>
        <g id="Grupo_1072332" data-name="Grupo 1072332" transform="translate(221.72 39.206)">
          <g id="Grupo_1072330" data-name="Grupo 1072330" transform="translate(0.893)">
            <path id="Trazado_838763" data-name="Trazado 838763" d="M140.86,20.1a14.245,14.245,0,0,1-2.658,9.525c-2.215,2.88-6.2,1.994-6.2,1.994Z" transform="translate(-132 -20.1)" fill="#058c36"/>
          </g>
          <g id="Grupo_1072331" data-name="Grupo 1072331">
            <path id="Trazado_838764" data-name="Trazado 838764" d="M141.35,20.1a14.532,14.532,0,0,0-8.639,5.095c-2.215,2.88-.443,6.645-.443,6.645Z" transform="translate(-131.597 -20.1)" fill="#026633"/>
          </g>
        </g>
        <g id="Grupo_1072335" data-name="Grupo 1072335" transform="translate(454.529 172.378)">
          <g id="Grupo_1072333" data-name="Grupo 1072333" transform="translate(0.098 1.06)">
            <path id="Trazado_838765" data-name="Trazado 838765" d="M254.145,93.326a19.491,19.491,0,0,1-13.955-3.544c-4.43-3.1-3.323-9.082-3.323-9.082Z" transform="translate(-236.744 -80.7)" fill="#058c36"/>
          </g>
          <g id="Grupo_1072334" data-name="Grupo 1072334">
            <path id="Trazado_838766" data-name="Trazado 838766" d="M254.2,93.907a21.029,21.029,0,0,0-7.753-12.183c-4.43-3.1-9.746-.443-9.746-.443Z" transform="translate(-236.7 -80.221)" fill="#026633"/>
          </g>
        </g>
        <g id="Grupo_1072338" data-name="Grupo 1072338" transform="translate(212.574 130.376)">
          <g id="Grupo_1072336" data-name="Grupo 1072336" transform="translate(0.292 0.09)">
            <path id="Trazado_838767" data-name="Trazado 838767" d="M152.852,61.3A30.878,30.878,0,0,1,142,80.128c-6.424,5.095-14.4,1.329-14.4,1.329Z" transform="translate(-127.6 -61.3)" fill="#058c36"/>
          </g>
          <g id="Grupo_1072337" data-name="Grupo 1072337">
            <path id="Trazado_838768" data-name="Trazado 838768" d="M153.012,61.35a30.807,30.807,0,0,0-20.821,6.2c-6.424,5.095-4.43,13.955-4.43,13.955Z" transform="translate(-127.468 -61.259)" fill="#026633"/>
          </g>
        </g>
        <g id="Grupo_1072341" data-name="Grupo 1072341" transform="translate(343.921 48.731)">
          <g id="Grupo_1072339" data-name="Grupo 1072339" transform="translate(3.178)">
            <path id="Trazado_838769" data-name="Trazado 838769" d="M188.2,24.4s9.968,5.538,13.512,17.056c2.215,7.753-4.209,13.955-4.209,13.955Z" transform="translate(-188.2 -24.4)" fill="#058c36"/>
          </g>
          <g id="Grupo_1072340" data-name="Grupo 1072340">
            <path id="Trazado_838770" data-name="Trazado 838770" d="M189.943,24.4a30.314,30.314,0,0,0-1.994,21.708c2.215,7.753,11.075,9.3,11.075,9.3Z" transform="translate(-186.765 -24.4)" fill="#026633"/>
          </g>
        </g>
        <g id="Grupo_1072344" data-name="Grupo 1072344" transform="translate(239.434 29.239)">
          <g id="Grupo_1072342" data-name="Grupo 1072342" transform="translate(0.014)">
            <path id="Trazado_838771" data-name="Trazado 838771" d="M139.6,15.6a31.186,31.186,0,0,1,19.492,9.746c5.316,5.981,1.994,14.4,1.994,14.4Z" transform="translate(-139.6 -15.6)" fill="#058c36"/>
          </g>
          <g id="Grupo_1072343" data-name="Grupo 1072343">
            <path id="Trazado_838772" data-name="Trazado 838772" d="M139.607,15.6a30.976,30.976,0,0,0,7.31,20.378c5.316,5.981,14.176,3.766,14.176,3.766Z" transform="translate(-139.594 -15.6)" fill="#026633"/>
          </g>
        </g>
        <g id="Grupo_1072347" data-name="Grupo 1072347" transform="translate(418.647 100.342)">
          <g id="Grupo_1072345" data-name="Grupo 1072345" transform="translate(4.206)">
            <path id="Trazado_838773" data-name="Trazado 838773" d="M233.254,47.7s4.873,10.411.886,21.708c-2.658,7.531-11.74,8.639-11.74,8.639Z" transform="translate(-222.4 -47.7)" fill="#058c36"/>
          </g>
          <g id="Grupo_1072346" data-name="Grupo 1072346">
            <path id="Trazado_838774" data-name="Trazado 838774" d="M235.561,47.7s-10.411,4.873-14.4,16.391c-2.658,7.531,3.544,14.176,3.544,14.176Z" transform="translate(-220.501 -47.7)" fill="#026633"/>
          </g>
        </g>
      </g>
    </g>
  </g>
</svg>
