<svg xmlns="http://www.w3.org/2000/svg" width="1030" height="457.353" viewBox="0 0 1030 457.353">
  <g id="Grupo_1072486" data-name="Grupo 1072486" transform="translate(-285 -8325.314)">
    <path id="Trazado_838876" data-name="Trazado 838876" d="M0,0H1030V457.352H0Z" transform="translate(285 8325.314)" fill="#f3f9ff"/>
    <path id="Trazado_838807" data-name="Trazado 838807" d="M319.478,45.32H203.267a10.929,10.929,0,0,1-10.93-10.928V20.024a10.93,10.93,0,0,1,10.93-10.93H319.478a10.928,10.928,0,0,1,10.928,10.93V34.393A10.927,10.927,0,0,1,319.478,45.32" transform="translate(504.291 8335.683)" fill="#cdf5e2"/>
    <path id="Trazado_838877" data-name="Trazado 838877" d="M9.166-6.476H2.848V-.965h7.264V0H1.707V-13.508h8.359v.965H2.848v5.1H9.166ZM12.734,0V-9.129H11.074v-.909h1.661v-1.215a3.3,3.3,0,0,1,.784-2.366,2.868,2.868,0,0,1,2.185-.826,4.276,4.276,0,0,1,1.178.156l-.083.92a4.33,4.33,0,0,0-1.011-.111,1.815,1.815,0,0,0-1.429.572,2.358,2.358,0,0,0-.51,1.623v1.246h2.394v.909H13.848V0Zm8.948.186a4.358,4.358,0,0,1-2.315-.631A4.3,4.3,0,0,1,17.758-2.2a5.481,5.481,0,0,1-.575-2.528v-.4a5.907,5.907,0,0,1,.561-2.607A4.466,4.466,0,0,1,19.307-9.56a3.856,3.856,0,0,1,2.171-.663,3.624,3.624,0,0,1,2.9,1.248,5.061,5.061,0,0,1,1.072,3.409v.622H18.286v.213a4.2,4.2,0,0,0,.979,2.844A3.114,3.114,0,0,0,21.728-.751,3.617,3.617,0,0,0,23.3-1.076a3.488,3.488,0,0,0,1.239-1.039l.7.529A4.05,4.05,0,0,1,21.682.186Zm-.2-9.463a2.775,2.775,0,0,0-2.111.918,4.243,4.243,0,0,0-1.044,2.468h6.021v-.121a3.684,3.684,0,0,0-.826-2.356A2.559,2.559,0,0,0,21.478-9.277ZM31.321-.751a2.932,2.932,0,0,0,1.944-.654A2.3,2.3,0,0,0,34.114-3.1h1.067a3.143,3.143,0,0,1-.575,1.675A3.6,3.6,0,0,1,33.2-.241a4.236,4.236,0,0,1-1.879.427A3.878,3.878,0,0,1,28.19-1.187,5.551,5.551,0,0,1,27.035-4.88v-.334a6.275,6.275,0,0,1,.52-2.625A4,4,0,0,1,29.044-9.6a4.11,4.11,0,0,1,2.268-.622,3.871,3.871,0,0,1,2.723.983,3.586,3.586,0,0,1,1.146,2.588H34.114a2.73,2.73,0,0,0-.849-1.9,2.749,2.749,0,0,0-1.953-.724,2.768,2.768,0,0,0-2.333,1.085,4.911,4.911,0,0,0-.83,3.043v.325a4.8,4.8,0,0,0,.83,3A2.787,2.787,0,0,0,31.321-.751Zm7.8-11.856v2.57H41.2v.909H39.123v6.7a2.1,2.1,0,0,0,.3,1.245,1.169,1.169,0,0,0,1.007.409,6.907,6.907,0,0,0,.9-.093l.046.9A3.629,3.629,0,0,1,40.19.186,1.98,1.98,0,0,1,38.53-.478a3.123,3.123,0,0,1-.52-1.953v-6.7H36.164v-.909H38.01v-2.57ZM42.7-5.167a5.907,5.907,0,0,1,.561-2.607,4.278,4.278,0,0,1,1.586-1.8,4.273,4.273,0,0,1,2.324-.645,4.129,4.129,0,0,1,3.247,1.406,5.416,5.416,0,0,1,1.243,3.725v.232a5.959,5.959,0,0,1-.561,2.621,4.191,4.191,0,0,1-1.582,1.8,4.337,4.337,0,0,1-2.329.631A4.133,4.133,0,0,1,43.952-1.22,5.4,5.4,0,0,1,42.7-4.945Zm1.113.306a4.555,4.555,0,0,0,.932,2.955A2.99,2.99,0,0,0,47.195-.751,2.981,2.981,0,0,0,49.63-1.906a4.7,4.7,0,0,0,.932-3.048v-.213a5.106,5.106,0,0,0-.427-2.106,3.429,3.429,0,0,0-1.2-1.48,3.058,3.058,0,0,0-1.763-.524,2.966,2.966,0,0,0-2.421,1.164,4.712,4.712,0,0,0-.937,3.048Zm22.46-1.457h-6.3V0H58.838V-13.508h8.368v.965H59.979v5.26h6.3ZM70.509,0H69.4V-10.038h1.113ZM69.2-12.937a.744.744,0,0,1,.2-.53.728.728,0,0,1,.557-.217.743.743,0,0,1,.561.217.735.735,0,0,1,.209.53.72.72,0,0,1-.209.526.752.752,0,0,1-.561.212.736.736,0,0,1-.557-.212A.728.728,0,0,1,69.2-12.937Zm5.381,2.9.037,1.716a3.986,3.986,0,0,1,1.41-1.415,3.665,3.665,0,0,1,1.865-.487,3.011,3.011,0,0,1,2.4.909,4.1,4.1,0,0,1,.8,2.728V0h-1.1V-6.6a3.067,3.067,0,0,0-.571-2,2.235,2.235,0,0,0-1.8-.659,2.808,2.808,0,0,0-1.823.645,3.777,3.777,0,0,0-1.174,1.74V0h-1.1V-10.038ZM90.3,0a5.25,5.25,0,0,1-.213-1.4A3.871,3.871,0,0,1,88.595-.227a4.56,4.56,0,0,1-1.916.413,3.365,3.365,0,0,1-2.343-.807,2.629,2.629,0,0,1-.9-2.041,2.687,2.687,0,0,1,1.22-2.319,5.862,5.862,0,0,1,3.4-.854h2.013V-6.977a2.2,2.2,0,0,0-.663-1.693,2.742,2.742,0,0,0-1.934-.617,3.027,3.027,0,0,0-1.92.594A1.764,1.764,0,0,0,84.8-7.264l-1.113-.009A2.582,2.582,0,0,1,84.8-9.347a4.287,4.287,0,0,1,2.737-.877,3.91,3.91,0,0,1,2.649.84,3.013,3.013,0,0,1,1,2.343v4.75a5.891,5.891,0,0,0,.306,2.18V0ZM86.809-.8a3.727,3.727,0,0,0,1.99-.538,3.166,3.166,0,0,0,1.276-1.438V-4.982H88.089a4.975,4.975,0,0,0-2.6.608,1.824,1.824,0,0,0-.937,1.619,1.8,1.8,0,0,0,.626,1.4A2.359,2.359,0,0,0,86.809-.8Zm8.572.8H94.268V-14.25h1.113Z" transform="translate(716.064 8367.106)" fill="#3c3c3b"/>
    <path id="Trazado_838808" data-name="Trazado 838808" d="M244.341,84.218H99.512a10.929,10.929,0,0,1-10.93-10.928V58.922a10.93,10.93,0,0,1,10.93-10.93h144.83a10.928,10.928,0,0,1,10.928,10.93V73.291a10.927,10.927,0,0,1-10.928,10.928" transform="translate(385.996 8380.032)" fill="#dbe5f3"/>
    <path id="Trazado_838878" data-name="Trazado 838878" d="M9.166-6.476H2.848V-.965h7.264V0H1.707V-13.508h8.359v.965H2.848v5.1H9.166ZM12.734,0V-9.129H11.074v-.909h1.661v-1.215a3.3,3.3,0,0,1,.784-2.366,2.868,2.868,0,0,1,2.185-.826,4.276,4.276,0,0,1,1.178.156l-.083.92a4.33,4.33,0,0,0-1.011-.111,1.815,1.815,0,0,0-1.429.572,2.358,2.358,0,0,0-.51,1.623v1.246h2.394v.909H13.848V0Zm8.948.186a4.358,4.358,0,0,1-2.315-.631A4.3,4.3,0,0,1,17.758-2.2a5.481,5.481,0,0,1-.575-2.528v-.4a5.907,5.907,0,0,1,.561-2.607A4.466,4.466,0,0,1,19.307-9.56a3.856,3.856,0,0,1,2.171-.663,3.624,3.624,0,0,1,2.9,1.248,5.061,5.061,0,0,1,1.072,3.409v.622H18.286v.213a4.2,4.2,0,0,0,.979,2.844A3.114,3.114,0,0,0,21.728-.751,3.617,3.617,0,0,0,23.3-1.076a3.488,3.488,0,0,0,1.239-1.039l.7.529A4.05,4.05,0,0,1,21.682.186Zm-.2-9.463a2.775,2.775,0,0,0-2.111.918,4.243,4.243,0,0,0-1.044,2.468h6.021v-.121a3.684,3.684,0,0,0-.826-2.356A2.559,2.559,0,0,0,21.478-9.277ZM31.321-.751a2.932,2.932,0,0,0,1.944-.654A2.3,2.3,0,0,0,34.114-3.1h1.067a3.143,3.143,0,0,1-.575,1.675A3.6,3.6,0,0,1,33.2-.241a4.236,4.236,0,0,1-1.879.427A3.878,3.878,0,0,1,28.19-1.187,5.551,5.551,0,0,1,27.035-4.88v-.334a6.275,6.275,0,0,1,.52-2.625A4,4,0,0,1,29.044-9.6a4.11,4.11,0,0,1,2.268-.622,3.871,3.871,0,0,1,2.723.983,3.586,3.586,0,0,1,1.146,2.588H34.114a2.73,2.73,0,0,0-.849-1.9,2.749,2.749,0,0,0-1.953-.724,2.768,2.768,0,0,0-2.333,1.085,4.911,4.911,0,0,0-.83,3.043v.325a4.8,4.8,0,0,0,.83,3A2.787,2.787,0,0,0,31.321-.751ZM37.3-.668A.787.787,0,0,1,37.5-1.22a.748.748,0,0,1,.58-.227.763.763,0,0,1,.584.227.777.777,0,0,1,.213.552.714.714,0,0,1-.213.533.8.8,0,0,1-.584.209.784.784,0,0,1-.58-.209A.722.722,0,0,1,37.3-.668ZM48.206,0H47.065V-13.508h1.141Zm4.462-10.038.037,1.716a3.986,3.986,0,0,1,1.41-1.415,3.665,3.665,0,0,1,1.865-.487,3.011,3.011,0,0,1,2.4.909,4.1,4.1,0,0,1,.8,2.728V0h-1.1V-6.6a3.067,3.067,0,0,0-.571-2,2.235,2.235,0,0,0-1.8-.659,2.808,2.808,0,0,0-1.823.645,3.777,3.777,0,0,0-1.174,1.74V0h-1.1V-10.038ZM61.6-5.112a6.051,6.051,0,0,1,1.044-3.725,3.359,3.359,0,0,1,2.834-1.387,3.491,3.491,0,0,1,3.1,1.6V-14.25h1.1V0H68.644L68.6-1.336A3.585,3.585,0,0,1,65.462.186a3.347,3.347,0,0,1-2.8-1.4A6.082,6.082,0,0,1,61.6-4.982Zm1.123.195a5.235,5.235,0,0,0,.77,3.029A2.49,2.49,0,0,0,65.666-.779a2.988,2.988,0,0,0,2.913-1.809V-7.3a2.966,2.966,0,0,0-2.895-1.958,2.52,2.52,0,0,0-2.18,1.1A5.594,5.594,0,0,0,62.725-4.917ZM73.848,0H72.735V-10.038h1.113ZM72.54-12.937a.744.744,0,0,1,.2-.53.728.728,0,0,1,.557-.217.743.743,0,0,1,.561.217.735.735,0,0,1,.209.53.72.72,0,0,1-.209.526.752.752,0,0,1-.561.212.736.736,0,0,1-.557-.212A.728.728,0,0,1,72.54-12.937ZM81.5-9.092a4.147,4.147,0,0,0-.751-.065,2.711,2.711,0,0,0-1.758.58,3.176,3.176,0,0,0-1.025,1.684V0h-1.1V-10.038h1.085l.019,1.6a2.952,2.952,0,0,1,2.83-1.781,1.826,1.826,0,0,1,.733.121ZM86.8.186a4.358,4.358,0,0,1-2.315-.631A4.3,4.3,0,0,1,82.871-2.2,5.481,5.481,0,0,1,82.3-4.731v-.4a5.907,5.907,0,0,1,.561-2.607A4.465,4.465,0,0,1,84.421-9.56a3.856,3.856,0,0,1,2.171-.663,3.624,3.624,0,0,1,2.9,1.248,5.061,5.061,0,0,1,1.072,3.409v.622H83.4v.213a4.2,4.2,0,0,0,.979,2.844A3.114,3.114,0,0,0,86.842-.751a3.617,3.617,0,0,0,1.573-.325,3.488,3.488,0,0,0,1.239-1.039l.7.529A4.05,4.05,0,0,1,86.8.186Zm-.2-9.463a2.775,2.775,0,0,0-2.111.918,4.243,4.243,0,0,0-1.044,2.468h6.021v-.121a3.684,3.684,0,0,0-.826-2.356A2.559,2.559,0,0,0,86.592-9.277ZM96.435-.751a2.932,2.932,0,0,0,1.944-.654A2.3,2.3,0,0,0,99.227-3.1h1.067a3.143,3.143,0,0,1-.575,1.675A3.6,3.6,0,0,1,98.313-.241a4.236,4.236,0,0,1-1.879.427A3.878,3.878,0,0,1,93.3-1.187,5.551,5.551,0,0,1,92.149-4.88v-.334a6.275,6.275,0,0,1,.52-2.625A4,4,0,0,1,94.157-9.6a4.11,4.11,0,0,1,2.268-.622,3.871,3.871,0,0,1,2.723.983,3.586,3.586,0,0,1,1.146,2.588H99.227a2.73,2.73,0,0,0-.849-1.9,2.749,2.749,0,0,0-1.953-.724,2.768,2.768,0,0,0-2.333,1.085,4.911,4.911,0,0,0-.83,3.043v.325a4.8,4.8,0,0,0,.83,3A2.787,2.787,0,0,0,96.435-.751Zm7.8-11.856v2.57h2.078v.909h-2.078v6.7a2.1,2.1,0,0,0,.3,1.245,1.169,1.169,0,0,0,1.007.409,6.907,6.907,0,0,0,.9-.093l.046.9A3.629,3.629,0,0,1,105.3.186a1.98,1.98,0,0,1-1.661-.663,3.123,3.123,0,0,1-.52-1.953v-6.7h-1.846v-.909h1.846v-2.57Zm3.581,7.44a5.907,5.907,0,0,1,.561-2.607,4.278,4.278,0,0,1,1.586-1.8,4.273,4.273,0,0,1,2.324-.645,4.129,4.129,0,0,1,3.247,1.406,5.416,5.416,0,0,1,1.243,3.725v.232a5.959,5.959,0,0,1-.561,2.621,4.191,4.191,0,0,1-1.582,1.8,4.337,4.337,0,0,1-2.329.631,4.133,4.133,0,0,1-3.242-1.406,5.4,5.4,0,0,1-1.248-3.725Zm1.113.306a4.555,4.555,0,0,0,.932,2.955,2.99,2.99,0,0,0,2.445,1.155,2.981,2.981,0,0,0,2.435-1.155,4.7,4.7,0,0,0,.932-3.048v-.213a5.106,5.106,0,0,0-.427-2.106,3.429,3.429,0,0,0-1.2-1.48,3.058,3.058,0,0,0-1.763-.524,2.966,2.966,0,0,0-2.421,1.164,4.712,4.712,0,0,0-.937,3.048ZM128.683,0H127.57V-12.172L123.9-10.808v-1.039l4.6-1.707h.186Z" transform="translate(487.812 8450.354)" fill="#3c3c3b"/>
    <path id="Trazado_838809" data-name="Trazado 838809" d="M344.234,84.218H199.4a10.929,10.929,0,0,1-10.93-10.928V58.922a10.93,10.93,0,0,1,10.93-10.93h144.83a10.928,10.928,0,0,1,10.927,10.93V73.291a10.927,10.927,0,0,1-10.927,10.928" transform="translate(499.888 8380.032)" fill="#dbe5f3"/>
    <path id="Trazado_838879" data-name="Trazado 838879" d="M9.166-6.476H2.848V-.965h7.264V0H1.707V-13.508h8.359v.965H2.848v5.1H9.166ZM12.734,0V-9.129H11.074v-.909h1.661v-1.215a3.3,3.3,0,0,1,.784-2.366,2.868,2.868,0,0,1,2.185-.826,4.276,4.276,0,0,1,1.178.156l-.083.92a4.33,4.33,0,0,0-1.011-.111,1.815,1.815,0,0,0-1.429.572,2.358,2.358,0,0,0-.51,1.623v1.246h2.394v.909H13.848V0Zm8.948.186a4.358,4.358,0,0,1-2.315-.631A4.3,4.3,0,0,1,17.758-2.2a5.481,5.481,0,0,1-.575-2.528v-.4a5.907,5.907,0,0,1,.561-2.607A4.466,4.466,0,0,1,19.307-9.56a3.856,3.856,0,0,1,2.171-.663,3.624,3.624,0,0,1,2.9,1.248,5.061,5.061,0,0,1,1.072,3.409v.622H18.286v.213a4.2,4.2,0,0,0,.979,2.844A3.114,3.114,0,0,0,21.728-.751,3.617,3.617,0,0,0,23.3-1.076a3.488,3.488,0,0,0,1.239-1.039l.7.529A4.05,4.05,0,0,1,21.682.186Zm-.2-9.463a2.775,2.775,0,0,0-2.111.918,4.243,4.243,0,0,0-1.044,2.468h6.021v-.121a3.684,3.684,0,0,0-.826-2.356A2.559,2.559,0,0,0,21.478-9.277ZM31.321-.751a2.932,2.932,0,0,0,1.944-.654A2.3,2.3,0,0,0,34.114-3.1h1.067a3.143,3.143,0,0,1-.575,1.675A3.6,3.6,0,0,1,33.2-.241a4.236,4.236,0,0,1-1.879.427A3.878,3.878,0,0,1,28.19-1.187,5.551,5.551,0,0,1,27.035-4.88v-.334a6.275,6.275,0,0,1,.52-2.625A4,4,0,0,1,29.044-9.6a4.11,4.11,0,0,1,2.268-.622,3.871,3.871,0,0,1,2.723.983,3.586,3.586,0,0,1,1.146,2.588H34.114a2.73,2.73,0,0,0-.849-1.9,2.749,2.749,0,0,0-1.953-.724,2.768,2.768,0,0,0-2.333,1.085,4.911,4.911,0,0,0-.83,3.043v.325a4.8,4.8,0,0,0,.83,3A2.787,2.787,0,0,0,31.321-.751ZM37.3-.668A.787.787,0,0,1,37.5-1.22a.748.748,0,0,1,.58-.227.763.763,0,0,1,.584.227.777.777,0,0,1,.213.552.714.714,0,0,1-.213.533.8.8,0,0,1-.584.209.784.784,0,0,1-.58-.209A.722.722,0,0,1,37.3-.668ZM48.206,0H47.065V-13.508h1.141Zm4.462-10.038.037,1.716a3.986,3.986,0,0,1,1.41-1.415,3.665,3.665,0,0,1,1.865-.487,3.011,3.011,0,0,1,2.4.909,4.1,4.1,0,0,1,.8,2.728V0h-1.1V-6.6a3.067,3.067,0,0,0-.571-2,2.235,2.235,0,0,0-1.8-.659,2.808,2.808,0,0,0-1.823.645,3.777,3.777,0,0,0-1.174,1.74V0h-1.1V-10.038ZM61.6-5.112a6.051,6.051,0,0,1,1.044-3.725,3.359,3.359,0,0,1,2.834-1.387,3.491,3.491,0,0,1,3.1,1.6V-14.25h1.1V0H68.644L68.6-1.336A3.585,3.585,0,0,1,65.462.186a3.347,3.347,0,0,1-2.8-1.4A6.082,6.082,0,0,1,61.6-4.982Zm1.123.195a5.235,5.235,0,0,0,.77,3.029A2.49,2.49,0,0,0,65.666-.779a2.988,2.988,0,0,0,2.913-1.809V-7.3a2.966,2.966,0,0,0-2.895-1.958,2.52,2.52,0,0,0-2.18,1.1A5.594,5.594,0,0,0,62.725-4.917ZM73.848,0H72.735V-10.038h1.113ZM72.54-12.937a.744.744,0,0,1,.2-.53.728.728,0,0,1,.557-.217.743.743,0,0,1,.561.217.735.735,0,0,1,.209.53.72.72,0,0,1-.209.526.752.752,0,0,1-.561.212.736.736,0,0,1-.557-.212A.728.728,0,0,1,72.54-12.937ZM81.5-9.092a4.147,4.147,0,0,0-.751-.065,2.711,2.711,0,0,0-1.758.58,3.176,3.176,0,0,0-1.025,1.684V0h-1.1V-10.038h1.085l.019,1.6a2.952,2.952,0,0,1,2.83-1.781,1.826,1.826,0,0,1,.733.121ZM86.8.186a4.358,4.358,0,0,1-2.315-.631A4.3,4.3,0,0,1,82.871-2.2,5.481,5.481,0,0,1,82.3-4.731v-.4a5.907,5.907,0,0,1,.561-2.607A4.465,4.465,0,0,1,84.421-9.56a3.856,3.856,0,0,1,2.171-.663,3.624,3.624,0,0,1,2.9,1.248,5.061,5.061,0,0,1,1.072,3.409v.622H83.4v.213a4.2,4.2,0,0,0,.979,2.844A3.114,3.114,0,0,0,86.842-.751a3.617,3.617,0,0,0,1.573-.325,3.488,3.488,0,0,0,1.239-1.039l.7.529A4.05,4.05,0,0,1,86.8.186Zm-.2-9.463a2.775,2.775,0,0,0-2.111.918,4.243,4.243,0,0,0-1.044,2.468h6.021v-.121a3.684,3.684,0,0,0-.826-2.356A2.559,2.559,0,0,0,86.592-9.277ZM96.435-.751a2.932,2.932,0,0,0,1.944-.654A2.3,2.3,0,0,0,99.227-3.1h1.067a3.143,3.143,0,0,1-.575,1.675A3.6,3.6,0,0,1,98.313-.241a4.236,4.236,0,0,1-1.879.427A3.878,3.878,0,0,1,93.3-1.187,5.551,5.551,0,0,1,92.149-4.88v-.334a6.275,6.275,0,0,1,.52-2.625A4,4,0,0,1,94.157-9.6a4.11,4.11,0,0,1,2.268-.622,3.871,3.871,0,0,1,2.723.983,3.586,3.586,0,0,1,1.146,2.588H99.227a2.73,2.73,0,0,0-.849-1.9,2.749,2.749,0,0,0-1.953-.724,2.768,2.768,0,0,0-2.333,1.085,4.911,4.911,0,0,0-.83,3.043v.325a4.8,4.8,0,0,0,.83,3A2.787,2.787,0,0,0,96.435-.751Zm7.8-11.856v2.57h2.078v.909h-2.078v6.7a2.1,2.1,0,0,0,.3,1.245,1.169,1.169,0,0,0,1.007.409,6.907,6.907,0,0,0,.9-.093l.046.9A3.629,3.629,0,0,1,105.3.186a1.98,1.98,0,0,1-1.661-.663,3.123,3.123,0,0,1-.52-1.953v-6.7h-1.846v-.909h1.846v-2.57Zm3.581,7.44a5.907,5.907,0,0,1,.561-2.607,4.278,4.278,0,0,1,1.586-1.8,4.273,4.273,0,0,1,2.324-.645,4.129,4.129,0,0,1,3.247,1.406,5.416,5.416,0,0,1,1.243,3.725v.232a5.959,5.959,0,0,1-.561,2.621,4.191,4.191,0,0,1-1.582,1.8,4.337,4.337,0,0,1-2.329.631,4.133,4.133,0,0,1-3.242-1.406,5.4,5.4,0,0,1-1.248-3.725Zm1.113.306a4.555,4.555,0,0,0,.932,2.955,2.99,2.99,0,0,0,2.445,1.155,2.981,2.981,0,0,0,2.435-1.155,4.7,4.7,0,0,0,.932-3.048v-.213a5.106,5.106,0,0,0-.427-2.106,3.429,3.429,0,0,0-1.2-1.48,3.058,3.058,0,0,0-1.763-.524,2.966,2.966,0,0,0-2.421,1.164,4.712,4.712,0,0,0-.937,3.048ZM131.976,0h-8.461V-.854L128.145-6.1a12.15,12.15,0,0,0,1.6-2.189,3.65,3.65,0,0,0,.445-1.679A2.73,2.73,0,0,0,129.434-12a2.806,2.806,0,0,0-2.069-.747,2.919,2.919,0,0,0-2.2.872,3.128,3.128,0,0,0-.84,2.264h-1.1a4.243,4.243,0,0,1,.515-2.078,3.7,3.7,0,0,1,1.466-1.47,4.351,4.351,0,0,1,2.166-.533,4.084,4.084,0,0,1,2.9.974,3.453,3.453,0,0,1,1.044,2.653A4.5,4.5,0,0,1,130.719-8a15.378,15.378,0,0,1-2.073,2.8L124.879-.937h7.1Z" transform="translate(701.598 8450.354)" fill="#3c3c3b"/>
    <path id="Trazado_838810" data-name="Trazado 838810" d="M386.743,157.761H226.7a10.929,10.929,0,0,1-10.93-10.928V132.465a10.93,10.93,0,0,1,10.93-10.93H386.743a10.928,10.928,0,0,1,10.928,10.93v14.369a10.927,10.927,0,0,1-10.928,10.928" transform="translate(531.01 8463.881)" fill="#dbe5f3"/>
    <path id="Trazado_838880" data-name="Trazado 838880" d="M2.848-5.5V0H1.707V-13.508h4.6a4.851,4.851,0,0,1,3.326,1.076,3.742,3.742,0,0,1,1.22,2.959A3.707,3.707,0,0,1,9.681-6.536,4.99,4.99,0,0,1,6.281-5.5Zm0-.965h3.46a3.651,3.651,0,0,0,2.533-.79,2.82,2.82,0,0,0,.872-2.2,2.951,2.951,0,0,0-.867-2.235,3.479,3.479,0,0,0-2.463-.85H2.848ZM17.785-9.092a4.147,4.147,0,0,0-.751-.065,2.711,2.711,0,0,0-1.758.58A3.176,3.176,0,0,0,14.25-6.893V0h-1.1V-10.038h1.085l.019,1.6a2.952,2.952,0,0,1,2.83-1.781,1.826,1.826,0,0,1,.733.121Zm.785,3.924a5.907,5.907,0,0,1,.561-2.607,4.278,4.278,0,0,1,1.586-1.8,4.273,4.273,0,0,1,2.324-.645,4.129,4.129,0,0,1,3.247,1.406,5.416,5.416,0,0,1,1.243,3.725v.232A5.959,5.959,0,0,1,26.97-2.24a4.191,4.191,0,0,1-1.582,1.8,4.337,4.337,0,0,1-2.329.631A4.133,4.133,0,0,1,19.817-1.22a5.4,5.4,0,0,1-1.248-3.725Zm1.113.306a4.555,4.555,0,0,0,.932,2.955A2.99,2.99,0,0,0,23.059-.751a2.981,2.981,0,0,0,2.435-1.155,4.7,4.7,0,0,0,.932-3.048v-.213A5.106,5.106,0,0,0,26-7.273a3.429,3.429,0,0,0-1.2-1.48,3.058,3.058,0,0,0-1.763-.524A2.966,2.966,0,0,0,20.62-8.113a4.712,4.712,0,0,0-.937,3.048ZM37.9-4.917a6.045,6.045,0,0,1-1.039,3.725A3.318,3.318,0,0,1,34.072.186,3.607,3.607,0,0,1,30.9-1.373L30.852,0H29.813V-14.25h1.1v5.668a3.489,3.489,0,0,1,3.136-1.642,3.349,3.349,0,0,1,2.816,1.359A6.117,6.117,0,0,1,37.9-5.084ZM36.79-5.112a5.229,5.229,0,0,0-.77-3.066,2.51,2.51,0,0,0-2.171-1.081,3.056,3.056,0,0,0-1.809.524A3.187,3.187,0,0,0,30.917-7.2v4.527a2.975,2.975,0,0,0,2.95,1.893,2.492,2.492,0,0,0,2.148-1.085A5.59,5.59,0,0,0,36.79-5.112ZM41.6,0H40.482V-14.25H41.6Zm6.9.186a4.358,4.358,0,0,1-2.315-.631A4.3,4.3,0,0,1,44.574-2.2,5.481,5.481,0,0,1,44-4.731v-.4a5.907,5.907,0,0,1,.561-2.607A4.466,4.466,0,0,1,46.123-9.56a3.856,3.856,0,0,1,2.171-.663,3.624,3.624,0,0,1,2.9,1.248,5.061,5.061,0,0,1,1.072,3.409v.622H45.1v.213a4.2,4.2,0,0,0,.979,2.844A3.114,3.114,0,0,0,48.544-.751a3.617,3.617,0,0,0,1.573-.325,3.488,3.488,0,0,0,1.239-1.039l.7.529A4.05,4.05,0,0,1,48.5.186Zm-.2-9.463a2.775,2.775,0,0,0-2.111.918A4.243,4.243,0,0,0,45.14-5.891h6.021v-.121a3.684,3.684,0,0,0-.826-2.356A2.559,2.559,0,0,0,48.294-9.277Zm7.144-.761.037,1.633a3.716,3.716,0,0,1,1.392-1.364,3.816,3.816,0,0,1,1.855-.455,2.816,2.816,0,0,1,3.015,1.948,3.769,3.769,0,0,1,1.438-1.443,3.983,3.983,0,0,1,1.985-.506q3.229,0,3.293,3.525V0H67.34V-6.615a2.992,2.992,0,0,0-.58-1.995,2.36,2.36,0,0,0-1.86-.649,2.957,2.957,0,0,0-2.022.775,2.738,2.738,0,0,0-.918,1.842V0H60.846V-6.7a2.75,2.75,0,0,0-.608-1.925A2.418,2.418,0,0,0,58.4-9.259a2.8,2.8,0,0,0-1.8.6,3.509,3.509,0,0,0-1.113,1.777V0H54.371V-10.038ZM77.6,0a5.25,5.25,0,0,1-.213-1.4A3.871,3.871,0,0,1,75.9-.227a4.56,4.56,0,0,1-1.916.413A3.365,3.365,0,0,1,71.64-.622a2.629,2.629,0,0,1-.9-2.041,2.687,2.687,0,0,1,1.22-2.319,5.862,5.862,0,0,1,3.4-.854h2.013V-6.977a2.2,2.2,0,0,0-.663-1.693,2.742,2.742,0,0,0-1.934-.617,3.027,3.027,0,0,0-1.92.594A1.764,1.764,0,0,0,72.1-7.264l-1.113-.009A2.582,2.582,0,0,1,72.1-9.347a4.287,4.287,0,0,1,2.737-.877,3.91,3.91,0,0,1,2.649.84,3.013,3.013,0,0,1,1,2.343v4.75a5.891,5.891,0,0,0,.306,2.18V0ZM74.113-.8a3.727,3.727,0,0,0,1.99-.538,3.166,3.166,0,0,0,1.276-1.438V-4.982H75.393a4.975,4.975,0,0,0-2.6.608,1.824,1.824,0,0,0-.937,1.619,1.8,1.8,0,0,0,.626,1.4A2.359,2.359,0,0,0,74.113-.8ZM95.887-4.212A4.841,4.841,0,0,1,94.36-.946,5.048,5.048,0,0,1,90.914.186a4.765,4.765,0,0,1-2.658-.751A4.9,4.9,0,0,1,86.47-2.7a7.585,7.585,0,0,1-.64-3.15V-7.6a7.654,7.654,0,0,1,.631-3.191,4.852,4.852,0,0,1,1.814-2.148A4.945,4.945,0,0,1,91-13.693a4.836,4.836,0,0,1,3.428,1.169,4.9,4.9,0,0,1,1.461,3.238h-1.15Q94.309-12.729,91-12.729a3.543,3.543,0,0,0-2.927,1.374,5.959,5.959,0,0,0-1.09,3.8V-5.9a6,6,0,0,0,1.062,3.732A3.422,3.422,0,0,0,90.914-.779a3.8,3.8,0,0,0,2.7-.858,4.113,4.113,0,0,0,1.123-2.574Zm6.4,4.4a4.358,4.358,0,0,1-2.315-.631A4.3,4.3,0,0,1,98.364-2.2a5.481,5.481,0,0,1-.575-2.528v-.4a5.907,5.907,0,0,1,.561-2.607A4.465,4.465,0,0,1,99.913-9.56a3.856,3.856,0,0,1,2.171-.663,3.624,3.624,0,0,1,2.9,1.248,5.061,5.061,0,0,1,1.072,3.409v.622H98.892v.213a4.2,4.2,0,0,0,.979,2.844,3.114,3.114,0,0,0,2.463,1.136,3.617,3.617,0,0,0,1.573-.325,3.488,3.488,0,0,0,1.239-1.039l.7.529A4.05,4.05,0,0,1,102.288.186Zm-.2-9.463a2.775,2.775,0,0,0-2.111.918A4.243,4.243,0,0,0,98.93-5.891h6.021v-.121a3.684,3.684,0,0,0-.826-2.356A2.559,2.559,0,0,0,102.084-9.277Zm7.19-.761.037,1.716a3.986,3.986,0,0,1,1.41-1.415,3.665,3.665,0,0,1,1.865-.487,3.011,3.011,0,0,1,2.4.909,4.1,4.1,0,0,1,.8,2.728V0h-1.1V-6.6a3.067,3.067,0,0,0-.571-2,2.235,2.235,0,0,0-1.8-.659,2.808,2.808,0,0,0-1.823.645,3.777,3.777,0,0,0-1.174,1.74V0h-1.1V-10.038Zm11.1-2.57v2.57h2.078v.909h-2.078v6.7a2.1,2.1,0,0,0,.3,1.245,1.169,1.169,0,0,0,1.007.409,6.907,6.907,0,0,0,.9-.093l.046.9a3.629,3.629,0,0,1-1.187.156,1.98,1.98,0,0,1-1.661-.663,3.123,3.123,0,0,1-.52-1.953v-6.7h-1.846v-.909h1.846v-2.57ZM129.4-9.092a4.147,4.147,0,0,0-.751-.065,2.711,2.711,0,0,0-1.758.58,3.176,3.176,0,0,0-1.025,1.684V0h-1.1V-10.038h1.085l.019,1.6a2.952,2.952,0,0,1,2.83-1.781,1.826,1.826,0,0,1,.733.121ZM137.115,0a5.25,5.25,0,0,1-.213-1.4,3.871,3.871,0,0,1-1.489,1.174A4.56,4.56,0,0,1,133.5.186a3.365,3.365,0,0,1-2.343-.807,2.629,2.629,0,0,1-.9-2.041,2.687,2.687,0,0,1,1.22-2.319,5.862,5.862,0,0,1,3.4-.854h2.013V-6.977a2.2,2.2,0,0,0-.663-1.693,2.742,2.742,0,0,0-1.934-.617,3.027,3.027,0,0,0-1.92.594,1.764,1.764,0,0,0-.761,1.429L130.5-7.273a2.582,2.582,0,0,1,1.113-2.073,4.287,4.287,0,0,1,2.737-.877,3.91,3.91,0,0,1,2.649.84,3.013,3.013,0,0,1,1,2.343v4.75a5.891,5.891,0,0,0,.306,2.18V0Zm-3.488-.8a3.727,3.727,0,0,0,1.99-.538,3.166,3.166,0,0,0,1.276-1.438V-4.982h-1.985a4.975,4.975,0,0,0-2.6.608,1.824,1.824,0,0,0-.937,1.619,1.8,1.8,0,0,0,.626,1.4A2.359,2.359,0,0,0,133.627-.8ZM142.2,0h-1.113V-14.25H142.2Z" transform="translate(762.245 8607.748)" fill="#3c3c3b"/>
    <path id="Trazado_838811" data-name="Trazado 838811" d="M294.557,120.185H149.728a10.929,10.929,0,0,1-10.93-10.928V94.889a10.93,10.93,0,0,1,10.93-10.93h144.83a10.928,10.928,0,0,1,10.928,10.93v14.369a10.927,10.927,0,0,1-10.928,10.928" transform="translate(443.249 8421.039)" fill="#dbe5f3"/>
    <path id="Trazado_838881" data-name="Trazado 838881" d="M9.166-6.476H2.848V-.965h7.264V0H1.707V-13.508h8.359v.965H2.848v5.1H9.166ZM12.734,0V-9.129H11.074v-.909h1.661v-1.215a3.3,3.3,0,0,1,.784-2.366,2.868,2.868,0,0,1,2.185-.826,4.276,4.276,0,0,1,1.178.156l-.083.92a4.33,4.33,0,0,0-1.011-.111,1.815,1.815,0,0,0-1.429.572,2.358,2.358,0,0,0-.51,1.623v1.246h2.394v.909H13.848V0Zm8.948.186a4.358,4.358,0,0,1-2.315-.631A4.3,4.3,0,0,1,17.758-2.2a5.481,5.481,0,0,1-.575-2.528v-.4a5.907,5.907,0,0,1,.561-2.607A4.466,4.466,0,0,1,19.307-9.56a3.856,3.856,0,0,1,2.171-.663,3.624,3.624,0,0,1,2.9,1.248,5.061,5.061,0,0,1,1.072,3.409v.622H18.286v.213a4.2,4.2,0,0,0,.979,2.844A3.114,3.114,0,0,0,21.728-.751,3.617,3.617,0,0,0,23.3-1.076a3.488,3.488,0,0,0,1.239-1.039l.7.529A4.05,4.05,0,0,1,21.682.186Zm-.2-9.463a2.775,2.775,0,0,0-2.111.918,4.243,4.243,0,0,0-1.044,2.468h6.021v-.121a3.684,3.684,0,0,0-.826-2.356A2.559,2.559,0,0,0,21.478-9.277ZM31.321-.751a2.932,2.932,0,0,0,1.944-.654A2.3,2.3,0,0,0,34.114-3.1h1.067a3.143,3.143,0,0,1-.575,1.675A3.6,3.6,0,0,1,33.2-.241a4.236,4.236,0,0,1-1.879.427A3.878,3.878,0,0,1,28.19-1.187,5.551,5.551,0,0,1,27.035-4.88v-.334a6.275,6.275,0,0,1,.52-2.625A4,4,0,0,1,29.044-9.6a4.11,4.11,0,0,1,2.268-.622,3.871,3.871,0,0,1,2.723.983,3.586,3.586,0,0,1,1.146,2.588H34.114a2.73,2.73,0,0,0-.849-1.9,2.749,2.749,0,0,0-1.953-.724,2.768,2.768,0,0,0-2.333,1.085,4.911,4.911,0,0,0-.83,3.043v.325a4.8,4.8,0,0,0,.83,3A2.787,2.787,0,0,0,31.321-.751ZM37.3-.668A.787.787,0,0,1,37.5-1.22a.748.748,0,0,1,.58-.227.763.763,0,0,1,.584.227.777.777,0,0,1,.213.552.714.714,0,0,1-.213.533.8.8,0,0,1-.584.209.784.784,0,0,1-.58-.209A.722.722,0,0,1,37.3-.668ZM48.206,0H47.065V-13.508h1.141Zm4.462-10.038.037,1.716a3.986,3.986,0,0,1,1.41-1.415,3.665,3.665,0,0,1,1.865-.487,3.011,3.011,0,0,1,2.4.909,4.1,4.1,0,0,1,.8,2.728V0h-1.1V-6.6a3.067,3.067,0,0,0-.571-2,2.235,2.235,0,0,0-1.8-.659,2.808,2.808,0,0,0-1.823.645,3.777,3.777,0,0,0-1.174,1.74V0h-1.1V-10.038ZM61.6-5.112a6.051,6.051,0,0,1,1.044-3.725,3.359,3.359,0,0,1,2.834-1.387,3.491,3.491,0,0,1,3.1,1.6V-14.25h1.1V0H68.644L68.6-1.336A3.585,3.585,0,0,1,65.462.186a3.347,3.347,0,0,1-2.8-1.4A6.082,6.082,0,0,1,61.6-4.982Zm1.123.195a5.235,5.235,0,0,0,.77,3.029A2.49,2.49,0,0,0,65.666-.779a2.988,2.988,0,0,0,2.913-1.809V-7.3a2.966,2.966,0,0,0-2.895-1.958,2.52,2.52,0,0,0-2.18,1.1A5.594,5.594,0,0,0,62.725-4.917ZM73.848,0H72.735V-10.038h1.113ZM72.54-12.937a.744.744,0,0,1,.2-.53.728.728,0,0,1,.557-.217.743.743,0,0,1,.561.217.735.735,0,0,1,.209.53.72.72,0,0,1-.209.526.752.752,0,0,1-.561.212.736.736,0,0,1-.557-.212A.728.728,0,0,1,72.54-12.937ZM81.5-9.092a4.147,4.147,0,0,0-.751-.065,2.711,2.711,0,0,0-1.758.58,3.176,3.176,0,0,0-1.025,1.684V0h-1.1V-10.038h1.085l.019,1.6a2.952,2.952,0,0,1,2.83-1.781,1.826,1.826,0,0,1,.733.121ZM86.8.186a4.358,4.358,0,0,1-2.315-.631A4.3,4.3,0,0,1,82.871-2.2,5.481,5.481,0,0,1,82.3-4.731v-.4a5.907,5.907,0,0,1,.561-2.607A4.465,4.465,0,0,1,84.421-9.56a3.856,3.856,0,0,1,2.171-.663,3.624,3.624,0,0,1,2.9,1.248,5.061,5.061,0,0,1,1.072,3.409v.622H83.4v.213a4.2,4.2,0,0,0,.979,2.844A3.114,3.114,0,0,0,86.842-.751a3.617,3.617,0,0,0,1.573-.325,3.488,3.488,0,0,0,1.239-1.039l.7.529A4.05,4.05,0,0,1,86.8.186Zm-.2-9.463a2.775,2.775,0,0,0-2.111.918,4.243,4.243,0,0,0-1.044,2.468h6.021v-.121a3.684,3.684,0,0,0-.826-2.356A2.559,2.559,0,0,0,86.592-9.277ZM96.435-.751a2.932,2.932,0,0,0,1.944-.654A2.3,2.3,0,0,0,99.227-3.1h1.067a3.143,3.143,0,0,1-.575,1.675A3.6,3.6,0,0,1,98.313-.241a4.236,4.236,0,0,1-1.879.427A3.878,3.878,0,0,1,93.3-1.187,5.551,5.551,0,0,1,92.149-4.88v-.334a6.275,6.275,0,0,1,.52-2.625A4,4,0,0,1,94.157-9.6a4.11,4.11,0,0,1,2.268-.622,3.871,3.871,0,0,1,2.723.983,3.586,3.586,0,0,1,1.146,2.588H99.227a2.73,2.73,0,0,0-.849-1.9,2.749,2.749,0,0,0-1.953-.724,2.768,2.768,0,0,0-2.333,1.085,4.911,4.911,0,0,0-.83,3.043v.325a4.8,4.8,0,0,0,.83,3A2.787,2.787,0,0,0,96.435-.751Zm7.8-11.856v2.57h2.078v.909h-2.078v6.7a2.1,2.1,0,0,0,.3,1.245,1.169,1.169,0,0,0,1.007.409,6.907,6.907,0,0,0,.9-.093l.046.9A3.629,3.629,0,0,1,105.3.186a1.98,1.98,0,0,1-1.661-.663,3.123,3.123,0,0,1-.52-1.953v-6.7h-1.846v-.909h1.846v-2.57Zm3.581,7.44a5.907,5.907,0,0,1,.561-2.607,4.278,4.278,0,0,1,1.586-1.8,4.273,4.273,0,0,1,2.324-.645,4.129,4.129,0,0,1,3.247,1.406,5.416,5.416,0,0,1,1.243,3.725v.232a5.959,5.959,0,0,1-.561,2.621,4.191,4.191,0,0,1-1.582,1.8,4.337,4.337,0,0,1-2.329.631,4.133,4.133,0,0,1-3.242-1.406,5.4,5.4,0,0,1-1.248-3.725Zm1.113.306a4.555,4.555,0,0,0,.932,2.955,2.99,2.99,0,0,0,2.445,1.155,2.981,2.981,0,0,0,2.435-1.155,4.7,4.7,0,0,0,.932-3.048v-.213a5.106,5.106,0,0,0-.427-2.106,3.429,3.429,0,0,0-1.2-1.48,3.058,3.058,0,0,0-1.763-.524,2.966,2.966,0,0,0-2.421,1.164,4.712,4.712,0,0,0-.937,3.048ZM128.683,0H127.57V-12.172L123.9-10.808v-1.039l4.6-1.707h.186Z" transform="translate(595.282 8527.328)" fill="#3c3c3b"/>
    <path id="Trazado_838812" data-name="Trazado 838812" d="M441.833,120.185H297a10.929,10.929,0,0,1-10.93-10.928V94.889A10.93,10.93,0,0,1,297,83.959h144.83a10.928,10.928,0,0,1,10.927,10.93v14.369a10.927,10.927,0,0,1-10.927,10.928" transform="translate(611.164 8421.039)" fill="#dbe5f3"/>
    <path id="Trazado_838882" data-name="Trazado 838882" d="M9.166-6.476H2.848V-.965h7.264V0H1.707V-13.508h8.359v.965H2.848v5.1H9.166ZM12.734,0V-9.129H11.074v-.909h1.661v-1.215a3.3,3.3,0,0,1,.784-2.366,2.868,2.868,0,0,1,2.185-.826,4.276,4.276,0,0,1,1.178.156l-.083.92a4.33,4.33,0,0,0-1.011-.111,1.815,1.815,0,0,0-1.429.572,2.358,2.358,0,0,0-.51,1.623v1.246h2.394v.909H13.848V0Zm8.948.186a4.358,4.358,0,0,1-2.315-.631A4.3,4.3,0,0,1,17.758-2.2a5.481,5.481,0,0,1-.575-2.528v-.4a5.907,5.907,0,0,1,.561-2.607A4.466,4.466,0,0,1,19.307-9.56a3.856,3.856,0,0,1,2.171-.663,3.624,3.624,0,0,1,2.9,1.248,5.061,5.061,0,0,1,1.072,3.409v.622H18.286v.213a4.2,4.2,0,0,0,.979,2.844A3.114,3.114,0,0,0,21.728-.751,3.617,3.617,0,0,0,23.3-1.076a3.488,3.488,0,0,0,1.239-1.039l.7.529A4.05,4.05,0,0,1,21.682.186Zm-.2-9.463a2.775,2.775,0,0,0-2.111.918,4.243,4.243,0,0,0-1.044,2.468h6.021v-.121a3.684,3.684,0,0,0-.826-2.356A2.559,2.559,0,0,0,21.478-9.277ZM31.321-.751a2.932,2.932,0,0,0,1.944-.654A2.3,2.3,0,0,0,34.114-3.1h1.067a3.143,3.143,0,0,1-.575,1.675A3.6,3.6,0,0,1,33.2-.241a4.236,4.236,0,0,1-1.879.427A3.878,3.878,0,0,1,28.19-1.187,5.551,5.551,0,0,1,27.035-4.88v-.334a6.275,6.275,0,0,1,.52-2.625A4,4,0,0,1,29.044-9.6a4.11,4.11,0,0,1,2.268-.622,3.871,3.871,0,0,1,2.723.983,3.586,3.586,0,0,1,1.146,2.588H34.114a2.73,2.73,0,0,0-.849-1.9,2.749,2.749,0,0,0-1.953-.724,2.768,2.768,0,0,0-2.333,1.085,4.911,4.911,0,0,0-.83,3.043v.325a4.8,4.8,0,0,0,.83,3A2.787,2.787,0,0,0,31.321-.751ZM37.3-.668A.787.787,0,0,1,37.5-1.22a.748.748,0,0,1,.58-.227.763.763,0,0,1,.584.227.777.777,0,0,1,.213.552.714.714,0,0,1-.213.533.8.8,0,0,1-.584.209.784.784,0,0,1-.58-.209A.722.722,0,0,1,37.3-.668ZM48.206,0H47.065V-13.508h1.141Zm4.462-10.038.037,1.716a3.986,3.986,0,0,1,1.41-1.415,3.665,3.665,0,0,1,1.865-.487,3.011,3.011,0,0,1,2.4.909,4.1,4.1,0,0,1,.8,2.728V0h-1.1V-6.6a3.067,3.067,0,0,0-.571-2,2.235,2.235,0,0,0-1.8-.659,2.808,2.808,0,0,0-1.823.645,3.777,3.777,0,0,0-1.174,1.74V0h-1.1V-10.038ZM61.6-5.112a6.051,6.051,0,0,1,1.044-3.725,3.359,3.359,0,0,1,2.834-1.387,3.491,3.491,0,0,1,3.1,1.6V-14.25h1.1V0H68.644L68.6-1.336A3.585,3.585,0,0,1,65.462.186a3.347,3.347,0,0,1-2.8-1.4A6.082,6.082,0,0,1,61.6-4.982Zm1.123.195a5.235,5.235,0,0,0,.77,3.029A2.49,2.49,0,0,0,65.666-.779a2.988,2.988,0,0,0,2.913-1.809V-7.3a2.966,2.966,0,0,0-2.895-1.958,2.52,2.52,0,0,0-2.18,1.1A5.594,5.594,0,0,0,62.725-4.917ZM73.848,0H72.735V-10.038h1.113ZM72.54-12.937a.744.744,0,0,1,.2-.53.728.728,0,0,1,.557-.217.743.743,0,0,1,.561.217.735.735,0,0,1,.209.53.72.72,0,0,1-.209.526.752.752,0,0,1-.561.212.736.736,0,0,1-.557-.212A.728.728,0,0,1,72.54-12.937ZM81.5-9.092a4.147,4.147,0,0,0-.751-.065,2.711,2.711,0,0,0-1.758.58,3.176,3.176,0,0,0-1.025,1.684V0h-1.1V-10.038h1.085l.019,1.6a2.952,2.952,0,0,1,2.83-1.781,1.826,1.826,0,0,1,.733.121ZM86.8.186a4.358,4.358,0,0,1-2.315-.631A4.3,4.3,0,0,1,82.871-2.2,5.481,5.481,0,0,1,82.3-4.731v-.4a5.907,5.907,0,0,1,.561-2.607A4.465,4.465,0,0,1,84.421-9.56a3.856,3.856,0,0,1,2.171-.663,3.624,3.624,0,0,1,2.9,1.248,5.061,5.061,0,0,1,1.072,3.409v.622H83.4v.213a4.2,4.2,0,0,0,.979,2.844A3.114,3.114,0,0,0,86.842-.751a3.617,3.617,0,0,0,1.573-.325,3.488,3.488,0,0,0,1.239-1.039l.7.529A4.05,4.05,0,0,1,86.8.186Zm-.2-9.463a2.775,2.775,0,0,0-2.111.918,4.243,4.243,0,0,0-1.044,2.468h6.021v-.121a3.684,3.684,0,0,0-.826-2.356A2.559,2.559,0,0,0,86.592-9.277ZM96.435-.751a2.932,2.932,0,0,0,1.944-.654A2.3,2.3,0,0,0,99.227-3.1h1.067a3.143,3.143,0,0,1-.575,1.675A3.6,3.6,0,0,1,98.313-.241a4.236,4.236,0,0,1-1.879.427A3.878,3.878,0,0,1,93.3-1.187,5.551,5.551,0,0,1,92.149-4.88v-.334a6.275,6.275,0,0,1,.52-2.625A4,4,0,0,1,94.157-9.6a4.11,4.11,0,0,1,2.268-.622,3.871,3.871,0,0,1,2.723.983,3.586,3.586,0,0,1,1.146,2.588H99.227a2.73,2.73,0,0,0-.849-1.9,2.749,2.749,0,0,0-1.953-.724,2.768,2.768,0,0,0-2.333,1.085,4.911,4.911,0,0,0-.83,3.043v.325a4.8,4.8,0,0,0,.83,3A2.787,2.787,0,0,0,96.435-.751Zm7.8-11.856v2.57h2.078v.909h-2.078v6.7a2.1,2.1,0,0,0,.3,1.245,1.169,1.169,0,0,0,1.007.409,6.907,6.907,0,0,0,.9-.093l.046.9A3.629,3.629,0,0,1,105.3.186a1.98,1.98,0,0,1-1.661-.663,3.123,3.123,0,0,1-.52-1.953v-6.7h-1.846v-.909h1.846v-2.57Zm3.581,7.44a5.907,5.907,0,0,1,.561-2.607,4.278,4.278,0,0,1,1.586-1.8,4.273,4.273,0,0,1,2.324-.645,4.129,4.129,0,0,1,3.247,1.406,5.416,5.416,0,0,1,1.243,3.725v.232a5.959,5.959,0,0,1-.561,2.621,4.191,4.191,0,0,1-1.582,1.8,4.337,4.337,0,0,1-2.329.631,4.133,4.133,0,0,1-3.242-1.406,5.4,5.4,0,0,1-1.248-3.725Zm1.113.306a4.555,4.555,0,0,0,.932,2.955,2.99,2.99,0,0,0,2.445,1.155,2.981,2.981,0,0,0,2.435-1.155,4.7,4.7,0,0,0,.932-3.048v-.213a5.106,5.106,0,0,0-.427-2.106,3.429,3.429,0,0,0-1.2-1.48,3.058,3.058,0,0,0-1.763-.524,2.966,2.966,0,0,0-2.421,1.164,4.712,4.712,0,0,0-.937,3.048ZM131.976,0h-8.461V-.854L128.145-6.1a12.15,12.15,0,0,0,1.6-2.189,3.65,3.65,0,0,0,.445-1.679A2.73,2.73,0,0,0,129.434-12a2.806,2.806,0,0,0-2.069-.747,2.919,2.919,0,0,0-2.2.872,3.128,3.128,0,0,0-.84,2.264h-1.1a4.243,4.243,0,0,1,.515-2.078,3.7,3.7,0,0,1,1.466-1.47,4.351,4.351,0,0,1,2.166-.533,4.084,4.084,0,0,1,2.9.974,3.453,3.453,0,0,1,1.044,2.653A4.5,4.5,0,0,1,130.719-8a15.378,15.378,0,0,1-2.073,2.8L124.879-.937h7.1Z" transform="translate(910.473 8527.328)" fill="#3c3c3b"/>
    <path id="Trazado_838813" data-name="Trazado 838813" d="M297.433,188.074H152.6a10.929,10.929,0,0,1-10.93-10.928V162.778a10.93,10.93,0,0,1,10.93-10.93h144.83a10.928,10.928,0,0,1,10.928,10.93v14.369a10.927,10.927,0,0,1-10.928,10.928" transform="translate(446.528 8498.442)" fill="#dbe5f3"/>
    <path id="Trazado_838883" data-name="Trazado 838883" d="M11.272-4.212A4.841,4.841,0,0,1,9.746-.946,5.048,5.048,0,0,1,6.3.186,4.765,4.765,0,0,1,3.641-.566,4.9,4.9,0,0,1,1.855-2.7a7.585,7.585,0,0,1-.64-3.15V-7.6a7.654,7.654,0,0,1,.631-3.191A4.852,4.852,0,0,1,3.66-12.937a4.945,4.945,0,0,1,2.723-.756,4.836,4.836,0,0,1,3.428,1.169,4.9,4.9,0,0,1,1.461,3.238h-1.15q-.427-3.442-3.739-3.442a3.543,3.543,0,0,0-2.927,1.374,5.959,5.959,0,0,0-1.09,3.8V-5.9A6,6,0,0,0,3.428-2.172,3.422,3.422,0,0,0,6.3-.779,3.8,3.8,0,0,0,9-1.637a4.113,4.113,0,0,0,1.123-2.574ZM20.123,0a5.25,5.25,0,0,1-.213-1.4A3.871,3.871,0,0,1,18.42-.227,4.56,4.56,0,0,1,16.5.186a3.365,3.365,0,0,1-2.343-.807,2.629,2.629,0,0,1-.9-2.041,2.687,2.687,0,0,1,1.22-2.319,5.862,5.862,0,0,1,3.4-.854H19.9V-6.977a2.2,2.2,0,0,0-.663-1.693A2.742,2.742,0,0,0,17.3-9.287a3.027,3.027,0,0,0-1.92.594,1.764,1.764,0,0,0-.761,1.429l-1.113-.009a2.582,2.582,0,0,1,1.113-2.073,4.287,4.287,0,0,1,2.737-.877,3.91,3.91,0,0,1,2.649.84,3.013,3.013,0,0,1,1,2.343v4.75a5.891,5.891,0,0,0,.306,2.18V0ZM16.634-.8a3.727,3.727,0,0,0,1.99-.538A3.166,3.166,0,0,0,19.9-2.774V-4.982H17.915a4.975,4.975,0,0,0-2.6.608,1.824,1.824,0,0,0-.937,1.619,1.8,1.8,0,0,0,.626,1.4A2.359,2.359,0,0,0,16.634-.8ZM30.42-1.271A3.608,3.608,0,0,1,27.22.186a3.106,3.106,0,0,1-2.44-.932,4.084,4.084,0,0,1-.854-2.76v-6.531h1.1v6.392q0,2.867,2.319,2.867A2.843,2.843,0,0,0,30.4-2.774v-7.264h1.113V0H30.439Zm9.992-1.28a1.582,1.582,0,0,0-.663-1.327,5.116,5.116,0,0,0-2-.784,9.02,9.02,0,0,1-2.073-.649,2.762,2.762,0,0,1-1.095-.9,2.234,2.234,0,0,1-.357-1.28,2.388,2.388,0,0,1,.993-1.962,4.01,4.01,0,0,1,2.542-.775,4.127,4.127,0,0,1,2.7.83A2.665,2.665,0,0,1,41.47-7.227H40.356a1.8,1.8,0,0,0-.738-1.466,2.9,2.9,0,0,0-1.86-.584A2.9,2.9,0,0,0,36-8.79a1.5,1.5,0,0,0-.663,1.266,1.369,1.369,0,0,0,.552,1.164A5.839,5.839,0,0,0,37.9-5.6a9.462,9.462,0,0,1,2.189.733,2.836,2.836,0,0,1,1.081.937,2.4,2.4,0,0,1,.353,1.327A2.4,2.4,0,0,1,40.5-.575a4.38,4.38,0,0,1-2.677.761A4.5,4.5,0,0,1,34.98-.663a2.613,2.613,0,0,1-1.09-2.148H35a1.93,1.93,0,0,0,.821,1.517,3.356,3.356,0,0,0,2,.543,3.155,3.155,0,0,0,1.874-.51A1.531,1.531,0,0,0,40.412-2.551ZM50.357,0a5.25,5.25,0,0,1-.213-1.4A3.871,3.871,0,0,1,48.655-.227a4.56,4.56,0,0,1-1.916.413A3.365,3.365,0,0,1,44.4-.622a2.629,2.629,0,0,1-.9-2.041,2.687,2.687,0,0,1,1.22-2.319,5.862,5.862,0,0,1,3.4-.854h2.013V-6.977a2.2,2.2,0,0,0-.663-1.693,2.742,2.742,0,0,0-1.934-.617,3.027,3.027,0,0,0-1.92.594,1.764,1.764,0,0,0-.761,1.429l-1.113-.009a2.582,2.582,0,0,1,1.113-2.073,4.287,4.287,0,0,1,2.737-.877,3.91,3.91,0,0,1,2.649.84,3.013,3.013,0,0,1,1,2.343v4.75a5.891,5.891,0,0,0,.306,2.18V0ZM46.869-.8a3.727,3.727,0,0,0,1.99-.538,3.166,3.166,0,0,0,1.276-1.438V-4.982H48.149a4.975,4.975,0,0,0-2.6.608,1.824,1.824,0,0,0-.937,1.619,1.8,1.8,0,0,0,.626,1.4A2.359,2.359,0,0,0,46.869-.8ZM59.078,0V-13.508h3.776a5.874,5.874,0,0,1,2.978.756,5.227,5.227,0,0,1,2.055,2.166,6.823,6.823,0,0,1,.738,3.21v1.243a6.823,6.823,0,0,1-.733,3.21A5.215,5.215,0,0,1,65.827-.761,6.052,6.052,0,0,1,62.771,0Zm1.141-12.543V-.965H62.78A4.407,4.407,0,0,0,66.2-2.381a5.471,5.471,0,0,0,1.29-3.83V-7.4a5.345,5.345,0,0,0-1.271-3.732,4.332,4.332,0,0,0-3.349-1.411ZM72.5,0H71.389V-10.038H72.5ZM71.194-12.937a.744.744,0,0,1,.2-.53.728.728,0,0,1,.557-.217.743.743,0,0,1,.561.217.735.735,0,0,1,.209.53.72.72,0,0,1-.209.526.752.752,0,0,1-.561.212.736.736,0,0,1-.557-.212A.728.728,0,0,1,71.194-12.937Zm8.962,3.845a4.147,4.147,0,0,0-.751-.065,2.711,2.711,0,0,0-1.758.58,3.176,3.176,0,0,0-1.025,1.684V0h-1.1V-10.038H76.6l.019,1.6a2.952,2.952,0,0,1,2.83-1.781,1.826,1.826,0,0,1,.733.121ZM85.45.186a4.358,4.358,0,0,1-2.315-.631A4.3,4.3,0,0,1,81.525-2.2a5.481,5.481,0,0,1-.575-2.528v-.4a5.907,5.907,0,0,1,.561-2.607A4.465,4.465,0,0,1,83.075-9.56a3.856,3.856,0,0,1,2.171-.663,3.624,3.624,0,0,1,2.9,1.248,5.061,5.061,0,0,1,1.072,3.409v.622H82.054v.213a4.2,4.2,0,0,0,.979,2.844A3.114,3.114,0,0,0,85.5-.751a3.617,3.617,0,0,0,1.573-.325,3.488,3.488,0,0,0,1.239-1.039l.7.529A4.05,4.05,0,0,1,85.45.186Zm-.2-9.463a2.775,2.775,0,0,0-2.111.918,4.243,4.243,0,0,0-1.044,2.468h6.021v-.121a3.684,3.684,0,0,0-.826-2.356A2.559,2.559,0,0,0,85.246-9.277ZM95.089-.751a2.932,2.932,0,0,0,1.944-.654A2.3,2.3,0,0,0,97.881-3.1h1.067a3.143,3.143,0,0,1-.575,1.675A3.6,3.6,0,0,1,96.967-.241a4.236,4.236,0,0,1-1.879.427,3.878,3.878,0,0,1-3.131-1.373A5.551,5.551,0,0,1,90.8-4.88v-.334a6.275,6.275,0,0,1,.52-2.625A4,4,0,0,1,92.811-9.6a4.11,4.11,0,0,1,2.268-.622A3.871,3.871,0,0,1,97.8-9.24a3.586,3.586,0,0,1,1.146,2.588H97.881a2.73,2.73,0,0,0-.849-1.9,2.749,2.749,0,0,0-1.953-.724,2.768,2.768,0,0,0-2.333,1.085,4.911,4.911,0,0,0-.83,3.043v.325a4.8,4.8,0,0,0,.83,3A2.787,2.787,0,0,0,95.089-.751Zm7.8-11.856v2.57h2.078v.909h-2.078v6.7a2.1,2.1,0,0,0,.3,1.245,1.169,1.169,0,0,0,1.007.409,6.907,6.907,0,0,0,.9-.093l.046.9a3.629,3.629,0,0,1-1.187.156A1.98,1.98,0,0,1,102.3-.478a3.123,3.123,0,0,1-.52-1.953v-6.7H99.932v-.909h1.846v-2.57ZM113.606,0a5.25,5.25,0,0,1-.213-1.4A3.871,3.871,0,0,1,111.9-.227a4.56,4.56,0,0,1-1.916.413,3.365,3.365,0,0,1-2.343-.807,2.629,2.629,0,0,1-.9-2.041,2.687,2.687,0,0,1,1.22-2.319,5.862,5.862,0,0,1,3.4-.854h2.013V-6.977a2.2,2.2,0,0,0-.663-1.693,2.742,2.742,0,0,0-1.934-.617,3.027,3.027,0,0,0-1.92.594,1.764,1.764,0,0,0-.761,1.429l-1.113-.009A2.582,2.582,0,0,1,108.1-9.347a4.287,4.287,0,0,1,2.737-.877,3.91,3.91,0,0,1,2.649.84,3.013,3.013,0,0,1,1,2.343v4.75a5.891,5.891,0,0,0,.306,2.18V0Zm-3.488-.8a3.727,3.727,0,0,0,1.99-.538,3.166,3.166,0,0,0,1.276-1.438V-4.982H111.4a4.975,4.975,0,0,0-2.6.608,1.824,1.824,0,0,0-.937,1.619,1.8,1.8,0,0,0,.626,1.4A2.359,2.359,0,0,0,110.118-.8Zm16.94.8h-1.113V-12.172l-3.674,1.364v-1.039l4.6-1.707h.186Z" transform="translate(602.108 8672.619)" fill="#3c3c3b"/>
    <path id="Trazado_838814" data-name="Trazado 838814" d="M444.708,188.074H299.879a10.929,10.929,0,0,1-10.93-10.928V162.778a10.93,10.93,0,0,1,10.93-10.93h144.83a10.928,10.928,0,0,1,10.927,10.93v14.369a10.927,10.927,0,0,1-10.927,10.928" transform="translate(614.442 8498.442)" fill="#dbe5f3"/>
    <path id="Trazado_838884" data-name="Trazado 838884" d="M11.272-4.212A4.841,4.841,0,0,1,9.746-.946,5.048,5.048,0,0,1,6.3.186,4.765,4.765,0,0,1,3.641-.566,4.9,4.9,0,0,1,1.855-2.7a7.585,7.585,0,0,1-.64-3.15V-7.6a7.654,7.654,0,0,1,.631-3.191A4.852,4.852,0,0,1,3.66-12.937a4.945,4.945,0,0,1,2.723-.756,4.836,4.836,0,0,1,3.428,1.169,4.9,4.9,0,0,1,1.461,3.238h-1.15q-.427-3.442-3.739-3.442a3.543,3.543,0,0,0-2.927,1.374,5.959,5.959,0,0,0-1.09,3.8V-5.9A6,6,0,0,0,3.428-2.172,3.422,3.422,0,0,0,6.3-.779,3.8,3.8,0,0,0,9-1.637a4.113,4.113,0,0,0,1.123-2.574ZM20.123,0a5.25,5.25,0,0,1-.213-1.4A3.871,3.871,0,0,1,18.42-.227,4.56,4.56,0,0,1,16.5.186a3.365,3.365,0,0,1-2.343-.807,2.629,2.629,0,0,1-.9-2.041,2.687,2.687,0,0,1,1.22-2.319,5.862,5.862,0,0,1,3.4-.854H19.9V-6.977a2.2,2.2,0,0,0-.663-1.693A2.742,2.742,0,0,0,17.3-9.287a3.027,3.027,0,0,0-1.92.594,1.764,1.764,0,0,0-.761,1.429l-1.113-.009a2.582,2.582,0,0,1,1.113-2.073,4.287,4.287,0,0,1,2.737-.877,3.91,3.91,0,0,1,2.649.84,3.013,3.013,0,0,1,1,2.343v4.75a5.891,5.891,0,0,0,.306,2.18V0ZM16.634-.8a3.727,3.727,0,0,0,1.99-.538A3.166,3.166,0,0,0,19.9-2.774V-4.982H17.915a4.975,4.975,0,0,0-2.6.608,1.824,1.824,0,0,0-.937,1.619,1.8,1.8,0,0,0,.626,1.4A2.359,2.359,0,0,0,16.634-.8ZM30.42-1.271A3.608,3.608,0,0,1,27.22.186a3.106,3.106,0,0,1-2.44-.932,4.084,4.084,0,0,1-.854-2.76v-6.531h1.1v6.392q0,2.867,2.319,2.867A2.843,2.843,0,0,0,30.4-2.774v-7.264h1.113V0H30.439Zm9.992-1.28a1.582,1.582,0,0,0-.663-1.327,5.116,5.116,0,0,0-2-.784,9.02,9.02,0,0,1-2.073-.649,2.762,2.762,0,0,1-1.095-.9,2.234,2.234,0,0,1-.357-1.28,2.388,2.388,0,0,1,.993-1.962,4.01,4.01,0,0,1,2.542-.775,4.127,4.127,0,0,1,2.7.83A2.665,2.665,0,0,1,41.47-7.227H40.356a1.8,1.8,0,0,0-.738-1.466,2.9,2.9,0,0,0-1.86-.584A2.9,2.9,0,0,0,36-8.79a1.5,1.5,0,0,0-.663,1.266,1.369,1.369,0,0,0,.552,1.164A5.839,5.839,0,0,0,37.9-5.6a9.462,9.462,0,0,1,2.189.733,2.836,2.836,0,0,1,1.081.937,2.4,2.4,0,0,1,.353,1.327A2.4,2.4,0,0,1,40.5-.575a4.38,4.38,0,0,1-2.677.761A4.5,4.5,0,0,1,34.98-.663a2.613,2.613,0,0,1-1.09-2.148H35a1.93,1.93,0,0,0,.821,1.517,3.356,3.356,0,0,0,2,.543,3.155,3.155,0,0,0,1.874-.51A1.531,1.531,0,0,0,40.412-2.551ZM50.357,0a5.25,5.25,0,0,1-.213-1.4A3.871,3.871,0,0,1,48.655-.227a4.56,4.56,0,0,1-1.916.413A3.365,3.365,0,0,1,44.4-.622a2.629,2.629,0,0,1-.9-2.041,2.687,2.687,0,0,1,1.22-2.319,5.862,5.862,0,0,1,3.4-.854h2.013V-6.977a2.2,2.2,0,0,0-.663-1.693,2.742,2.742,0,0,0-1.934-.617,3.027,3.027,0,0,0-1.92.594,1.764,1.764,0,0,0-.761,1.429l-1.113-.009a2.582,2.582,0,0,1,1.113-2.073,4.287,4.287,0,0,1,2.737-.877,3.91,3.91,0,0,1,2.649.84,3.013,3.013,0,0,1,1,2.343v4.75a5.891,5.891,0,0,0,.306,2.18V0ZM46.869-.8a3.727,3.727,0,0,0,1.99-.538,3.166,3.166,0,0,0,1.276-1.438V-4.982H48.149a4.975,4.975,0,0,0-2.6.608,1.824,1.824,0,0,0-.937,1.619,1.8,1.8,0,0,0,.626,1.4A2.359,2.359,0,0,0,46.869-.8ZM59.078,0V-13.508h3.776a5.874,5.874,0,0,1,2.978.756,5.227,5.227,0,0,1,2.055,2.166,6.823,6.823,0,0,1,.738,3.21v1.243a6.823,6.823,0,0,1-.733,3.21A5.215,5.215,0,0,1,65.827-.761,6.052,6.052,0,0,1,62.771,0Zm1.141-12.543V-.965H62.78A4.407,4.407,0,0,0,66.2-2.381a5.471,5.471,0,0,0,1.29-3.83V-7.4a5.345,5.345,0,0,0-1.271-3.732,4.332,4.332,0,0,0-3.349-1.411ZM72.5,0H71.389V-10.038H72.5ZM71.194-12.937a.744.744,0,0,1,.2-.53.728.728,0,0,1,.557-.217.743.743,0,0,1,.561.217.735.735,0,0,1,.209.53.72.72,0,0,1-.209.526.752.752,0,0,1-.561.212.736.736,0,0,1-.557-.212A.728.728,0,0,1,71.194-12.937Zm8.962,3.845a4.147,4.147,0,0,0-.751-.065,2.711,2.711,0,0,0-1.758.58,3.176,3.176,0,0,0-1.025,1.684V0h-1.1V-10.038H76.6l.019,1.6a2.952,2.952,0,0,1,2.83-1.781,1.826,1.826,0,0,1,.733.121ZM85.45.186a4.358,4.358,0,0,1-2.315-.631A4.3,4.3,0,0,1,81.525-2.2a5.481,5.481,0,0,1-.575-2.528v-.4a5.907,5.907,0,0,1,.561-2.607A4.465,4.465,0,0,1,83.075-9.56a3.856,3.856,0,0,1,2.171-.663,3.624,3.624,0,0,1,2.9,1.248,5.061,5.061,0,0,1,1.072,3.409v.622H82.054v.213a4.2,4.2,0,0,0,.979,2.844A3.114,3.114,0,0,0,85.5-.751a3.617,3.617,0,0,0,1.573-.325,3.488,3.488,0,0,0,1.239-1.039l.7.529A4.05,4.05,0,0,1,85.45.186Zm-.2-9.463a2.775,2.775,0,0,0-2.111.918,4.243,4.243,0,0,0-1.044,2.468h6.021v-.121a3.684,3.684,0,0,0-.826-2.356A2.559,2.559,0,0,0,85.246-9.277ZM95.089-.751a2.932,2.932,0,0,0,1.944-.654A2.3,2.3,0,0,0,97.881-3.1h1.067a3.143,3.143,0,0,1-.575,1.675A3.6,3.6,0,0,1,96.967-.241a4.236,4.236,0,0,1-1.879.427,3.878,3.878,0,0,1-3.131-1.373A5.551,5.551,0,0,1,90.8-4.88v-.334a6.275,6.275,0,0,1,.52-2.625A4,4,0,0,1,92.811-9.6a4.11,4.11,0,0,1,2.268-.622A3.871,3.871,0,0,1,97.8-9.24a3.586,3.586,0,0,1,1.146,2.588H97.881a2.73,2.73,0,0,0-.849-1.9,2.749,2.749,0,0,0-1.953-.724,2.768,2.768,0,0,0-2.333,1.085,4.911,4.911,0,0,0-.83,3.043v.325a4.8,4.8,0,0,0,.83,3A2.787,2.787,0,0,0,95.089-.751Zm7.8-11.856v2.57h2.078v.909h-2.078v6.7a2.1,2.1,0,0,0,.3,1.245,1.169,1.169,0,0,0,1.007.409,6.907,6.907,0,0,0,.9-.093l.046.9a3.629,3.629,0,0,1-1.187.156A1.98,1.98,0,0,1,102.3-.478a3.123,3.123,0,0,1-.52-1.953v-6.7H99.932v-.909h1.846v-2.57ZM113.606,0a5.25,5.25,0,0,1-.213-1.4A3.871,3.871,0,0,1,111.9-.227a4.56,4.56,0,0,1-1.916.413,3.365,3.365,0,0,1-2.343-.807,2.629,2.629,0,0,1-.9-2.041,2.687,2.687,0,0,1,1.22-2.319,5.862,5.862,0,0,1,3.4-.854h2.013V-6.977a2.2,2.2,0,0,0-.663-1.693,2.742,2.742,0,0,0-1.934-.617,3.027,3.027,0,0,0-1.92.594,1.764,1.764,0,0,0-.761,1.429l-1.113-.009A2.582,2.582,0,0,1,108.1-9.347a4.287,4.287,0,0,1,2.737-.877,3.91,3.91,0,0,1,2.649.84,3.013,3.013,0,0,1,1,2.343v4.75a5.891,5.891,0,0,0,.306,2.18V0Zm-3.488-.8a3.727,3.727,0,0,0,1.99-.538,3.166,3.166,0,0,0,1.276-1.438V-4.982H111.4a4.975,4.975,0,0,0-2.6.608,1.824,1.824,0,0,0-.937,1.619,1.8,1.8,0,0,0,.626,1.4A2.359,2.359,0,0,0,110.118-.8Zm20.234.8h-8.461V-.854L126.52-6.1a12.15,12.15,0,0,0,1.6-2.189,3.65,3.65,0,0,0,.445-1.679A2.73,2.73,0,0,0,127.81-12a2.806,2.806,0,0,0-2.069-.747,2.919,2.919,0,0,0-2.2.872,3.128,3.128,0,0,0-.84,2.264h-1.1a4.243,4.243,0,0,1,.515-2.078,3.7,3.7,0,0,1,1.466-1.47,4.351,4.351,0,0,1,2.166-.533,4.084,4.084,0,0,1,2.9.974,3.453,3.453,0,0,1,1.044,2.653A4.5,4.5,0,0,1,129.095-8a15.379,15.379,0,0,1-2.073,2.8L123.255-.937h7.1Z" transform="translate(917.299 8672.619)" fill="#3c3c3b"/>
    <path id="Trazado_838815" data-name="Trazado 838815" d="M249.943,220.985H105.114a10.929,10.929,0,0,1-10.93-10.928V195.689a10.93,10.93,0,0,1,10.93-10.93h144.83a10.928,10.928,0,0,1,10.928,10.93v14.369a10.928,10.928,0,0,1-10.928,10.928" transform="translate(392.383 8535.966)" fill="#dbe5f3"/>
    <path id="Trazado_838885" data-name="Trazado 838885" d="M11.272-4.212A4.841,4.841,0,0,1,9.746-.946,5.048,5.048,0,0,1,6.3.186,4.765,4.765,0,0,1,3.641-.566,4.9,4.9,0,0,1,1.855-2.7a7.585,7.585,0,0,1-.64-3.15V-7.6a7.654,7.654,0,0,1,.631-3.191A4.852,4.852,0,0,1,3.66-12.937a4.945,4.945,0,0,1,2.723-.756,4.836,4.836,0,0,1,3.428,1.169,4.9,4.9,0,0,1,1.461,3.238h-1.15q-.427-3.442-3.739-3.442a3.543,3.543,0,0,0-2.927,1.374,5.959,5.959,0,0,0-1.09,3.8V-5.9A6,6,0,0,0,3.428-2.172,3.422,3.422,0,0,0,6.3-.779,3.8,3.8,0,0,0,9-1.637a4.113,4.113,0,0,0,1.123-2.574ZM20.123,0a5.25,5.25,0,0,1-.213-1.4A3.871,3.871,0,0,1,18.42-.227,4.56,4.56,0,0,1,16.5.186a3.365,3.365,0,0,1-2.343-.807,2.629,2.629,0,0,1-.9-2.041,2.687,2.687,0,0,1,1.22-2.319,5.862,5.862,0,0,1,3.4-.854H19.9V-6.977a2.2,2.2,0,0,0-.663-1.693A2.742,2.742,0,0,0,17.3-9.287a3.027,3.027,0,0,0-1.92.594,1.764,1.764,0,0,0-.761,1.429l-1.113-.009a2.582,2.582,0,0,1,1.113-2.073,4.287,4.287,0,0,1,2.737-.877,3.91,3.91,0,0,1,2.649.84,3.013,3.013,0,0,1,1,2.343v4.75a5.891,5.891,0,0,0,.306,2.18V0ZM16.634-.8a3.727,3.727,0,0,0,1.99-.538A3.166,3.166,0,0,0,19.9-2.774V-4.982H17.915a4.975,4.975,0,0,0-2.6.608,1.824,1.824,0,0,0-.937,1.619,1.8,1.8,0,0,0,.626,1.4A2.359,2.359,0,0,0,16.634-.8ZM30.42-1.271A3.608,3.608,0,0,1,27.22.186a3.106,3.106,0,0,1-2.44-.932,4.084,4.084,0,0,1-.854-2.76v-6.531h1.1v6.392q0,2.867,2.319,2.867A2.843,2.843,0,0,0,30.4-2.774v-7.264h1.113V0H30.439Zm9.992-1.28a1.582,1.582,0,0,0-.663-1.327,5.116,5.116,0,0,0-2-.784,9.02,9.02,0,0,1-2.073-.649,2.762,2.762,0,0,1-1.095-.9,2.234,2.234,0,0,1-.357-1.28,2.388,2.388,0,0,1,.993-1.962,4.01,4.01,0,0,1,2.542-.775,4.127,4.127,0,0,1,2.7.83A2.665,2.665,0,0,1,41.47-7.227H40.356a1.8,1.8,0,0,0-.738-1.466,2.9,2.9,0,0,0-1.86-.584A2.9,2.9,0,0,0,36-8.79a1.5,1.5,0,0,0-.663,1.266,1.369,1.369,0,0,0,.552,1.164A5.839,5.839,0,0,0,37.9-5.6a9.462,9.462,0,0,1,2.189.733,2.836,2.836,0,0,1,1.081.937,2.4,2.4,0,0,1,.353,1.327A2.4,2.4,0,0,1,40.5-.575a4.38,4.38,0,0,1-2.677.761A4.5,4.5,0,0,1,34.98-.663a2.613,2.613,0,0,1-1.09-2.148H35a1.93,1.93,0,0,0,.821,1.517,3.356,3.356,0,0,0,2,.543,3.155,3.155,0,0,0,1.874-.51A1.531,1.531,0,0,0,40.412-2.551ZM50.357,0a5.25,5.25,0,0,1-.213-1.4A3.871,3.871,0,0,1,48.655-.227a4.56,4.56,0,0,1-1.916.413A3.365,3.365,0,0,1,44.4-.622a2.629,2.629,0,0,1-.9-2.041,2.687,2.687,0,0,1,1.22-2.319,5.862,5.862,0,0,1,3.4-.854h2.013V-6.977a2.2,2.2,0,0,0-.663-1.693,2.742,2.742,0,0,0-1.934-.617,3.027,3.027,0,0,0-1.92.594,1.764,1.764,0,0,0-.761,1.429l-1.113-.009a2.582,2.582,0,0,1,1.113-2.073,4.287,4.287,0,0,1,2.737-.877,3.91,3.91,0,0,1,2.649.84,3.013,3.013,0,0,1,1,2.343v4.75a5.891,5.891,0,0,0,.306,2.18V0ZM46.869-.8a3.727,3.727,0,0,0,1.99-.538,3.166,3.166,0,0,0,1.276-1.438V-4.982H48.149a4.975,4.975,0,0,0-2.6.608,1.824,1.824,0,0,0-.937,1.619,1.8,1.8,0,0,0,.626,1.4A2.359,2.359,0,0,0,46.869-.8ZM60.062,0H58.948V-10.038h1.113ZM58.753-12.937a.744.744,0,0,1,.2-.53.728.728,0,0,1,.557-.217.743.743,0,0,1,.561.217.735.735,0,0,1,.209.53.72.72,0,0,1-.209.526.752.752,0,0,1-.561.212.736.736,0,0,1-.557-.212A.728.728,0,0,1,58.753-12.937Zm5.381,2.9.037,1.716a3.986,3.986,0,0,1,1.41-1.415,3.665,3.665,0,0,1,1.865-.487,3.011,3.011,0,0,1,2.4.909,4.1,4.1,0,0,1,.8,2.728V0h-1.1V-6.6a3.067,3.067,0,0,0-.571-2,2.235,2.235,0,0,0-1.8-.659,2.808,2.808,0,0,0-1.823.645,3.777,3.777,0,0,0-1.174,1.74V0h-1.1V-10.038Zm8.934,4.926a6.051,6.051,0,0,1,1.044-3.725,3.359,3.359,0,0,1,2.834-1.387,3.491,3.491,0,0,1,3.1,1.6V-14.25h1.1V0H80.11l-.046-1.336A3.585,3.585,0,0,1,76.928.186a3.347,3.347,0,0,1-2.8-1.4,6.082,6.082,0,0,1-1.062-3.771Zm1.123.195a5.235,5.235,0,0,0,.77,3.029A2.49,2.49,0,0,0,77.132-.779a2.988,2.988,0,0,0,2.913-1.809V-7.3A2.966,2.966,0,0,0,77.15-9.259a2.52,2.52,0,0,0-2.18,1.1A5.594,5.594,0,0,0,74.191-4.917ZM85.314,0H84.2V-10.038h1.113ZM84.006-12.937a.744.744,0,0,1,.2-.53.728.728,0,0,1,.557-.217.743.743,0,0,1,.561.217.735.735,0,0,1,.209.53.72.72,0,0,1-.209.526.752.752,0,0,1-.561.212.736.736,0,0,1-.557-.212A.728.728,0,0,1,84.006-12.937Zm8.962,3.845a4.147,4.147,0,0,0-.751-.065,2.711,2.711,0,0,0-1.758.58,3.176,3.176,0,0,0-1.025,1.684V0h-1.1V-10.038h1.085l.019,1.6a2.952,2.952,0,0,1,2.83-1.781A1.826,1.826,0,0,1,93-10.1ZM98.262.186a4.358,4.358,0,0,1-2.315-.631A4.3,4.3,0,0,1,94.337-2.2a5.481,5.481,0,0,1-.575-2.528v-.4a5.907,5.907,0,0,1,.561-2.607A4.465,4.465,0,0,1,95.887-9.56a3.856,3.856,0,0,1,2.171-.663,3.624,3.624,0,0,1,2.9,1.248,5.061,5.061,0,0,1,1.072,3.409v.622H94.866v.213a4.2,4.2,0,0,0,.979,2.844A3.114,3.114,0,0,0,98.308-.751a3.617,3.617,0,0,0,1.573-.325,3.488,3.488,0,0,0,1.239-1.039l.7.529A4.05,4.05,0,0,1,98.262.186Zm-.2-9.463a2.775,2.775,0,0,0-2.111.918A4.243,4.243,0,0,0,94.9-5.891h6.021v-.121a3.684,3.684,0,0,0-.826-2.356A2.559,2.559,0,0,0,98.058-9.277ZM107.9-.751a2.932,2.932,0,0,0,1.944-.654,2.3,2.3,0,0,0,.849-1.693h1.067a3.143,3.143,0,0,1-.575,1.675,3.6,3.6,0,0,1-1.406,1.183A4.236,4.236,0,0,1,107.9.186a3.878,3.878,0,0,1-3.131-1.373,5.551,5.551,0,0,1-1.155-3.692v-.334a6.275,6.275,0,0,1,.52-2.625A4,4,0,0,1,105.623-9.6a4.11,4.11,0,0,1,2.268-.622,3.871,3.871,0,0,1,2.723.983,3.586,3.586,0,0,1,1.146,2.588h-1.067a2.73,2.73,0,0,0-.849-1.9,2.749,2.749,0,0,0-1.953-.724,2.768,2.768,0,0,0-2.333,1.085,4.911,4.911,0,0,0-.83,3.043v.325a4.8,4.8,0,0,0,.83,3A2.787,2.787,0,0,0,107.9-.751Zm7.8-11.856v2.57h2.078v.909H115.7v6.7a2.1,2.1,0,0,0,.3,1.245,1.169,1.169,0,0,0,1.007.409,6.907,6.907,0,0,0,.9-.093l.046.9a3.629,3.629,0,0,1-1.187.156,1.98,1.98,0,0,1-1.661-.663,3.123,3.123,0,0,1-.52-1.953v-6.7h-1.846v-.909h1.846v-2.57ZM126.418,0a5.25,5.25,0,0,1-.213-1.4,3.871,3.871,0,0,1-1.489,1.174A4.56,4.56,0,0,1,122.8.186a3.365,3.365,0,0,1-2.343-.807,2.629,2.629,0,0,1-.9-2.041,2.687,2.687,0,0,1,1.22-2.319,5.862,5.862,0,0,1,3.4-.854H126.2V-6.977a2.2,2.2,0,0,0-.663-1.693,2.742,2.742,0,0,0-1.934-.617,3.027,3.027,0,0,0-1.92.594,1.764,1.764,0,0,0-.761,1.429L119.8-7.273a2.582,2.582,0,0,1,1.113-2.073,4.287,4.287,0,0,1,2.737-.877,3.91,3.91,0,0,1,2.649.84,3.013,3.013,0,0,1,1,2.343v4.75a5.891,5.891,0,0,0,.306,2.18V0ZM122.93-.8a3.727,3.727,0,0,0,1.99-.538A3.166,3.166,0,0,0,126.2-2.774V-4.982H124.21a4.975,4.975,0,0,0-2.6.608,1.824,1.824,0,0,0-.937,1.619,1.8,1.8,0,0,0,.626,1.4A2.359,2.359,0,0,0,122.93-.8Zm16.94.8h-1.113V-12.172l-3.674,1.364v-1.039l4.6-1.707h.186Z" transform="translate(498.81 8743.056)" fill="#3c3c3b"/>
    <path id="Trazado_838816" data-name="Trazado 838816" d="M360.7,220.985H204.489a10.927,10.927,0,0,1-10.928-10.928V195.689a10.928,10.928,0,0,1,10.928-10.93H360.7a10.928,10.928,0,0,1,10.928,10.93v14.369A10.927,10.927,0,0,1,360.7,220.985" transform="translate(505.687 8535.966)" fill="#dbe5f3"/>
    <path id="Trazado_838886" data-name="Trazado 838886" d="M11.272-4.212A4.841,4.841,0,0,1,9.746-.946,5.048,5.048,0,0,1,6.3.186,4.765,4.765,0,0,1,3.641-.566,4.9,4.9,0,0,1,1.855-2.7a7.585,7.585,0,0,1-.64-3.15V-7.6a7.654,7.654,0,0,1,.631-3.191A4.852,4.852,0,0,1,3.66-12.937a4.945,4.945,0,0,1,2.723-.756,4.836,4.836,0,0,1,3.428,1.169,4.9,4.9,0,0,1,1.461,3.238h-1.15q-.427-3.442-3.739-3.442a3.543,3.543,0,0,0-2.927,1.374,5.959,5.959,0,0,0-1.09,3.8V-5.9A6,6,0,0,0,3.428-2.172,3.422,3.422,0,0,0,6.3-.779,3.8,3.8,0,0,0,9-1.637a4.113,4.113,0,0,0,1.123-2.574ZM20.123,0a5.25,5.25,0,0,1-.213-1.4A3.871,3.871,0,0,1,18.42-.227,4.56,4.56,0,0,1,16.5.186a3.365,3.365,0,0,1-2.343-.807,2.629,2.629,0,0,1-.9-2.041,2.687,2.687,0,0,1,1.22-2.319,5.862,5.862,0,0,1,3.4-.854H19.9V-6.977a2.2,2.2,0,0,0-.663-1.693A2.742,2.742,0,0,0,17.3-9.287a3.027,3.027,0,0,0-1.92.594,1.764,1.764,0,0,0-.761,1.429l-1.113-.009a2.582,2.582,0,0,1,1.113-2.073,4.287,4.287,0,0,1,2.737-.877,3.91,3.91,0,0,1,2.649.84,3.013,3.013,0,0,1,1,2.343v4.75a5.891,5.891,0,0,0,.306,2.18V0ZM16.634-.8a3.727,3.727,0,0,0,1.99-.538A3.166,3.166,0,0,0,19.9-2.774V-4.982H17.915a4.975,4.975,0,0,0-2.6.608,1.824,1.824,0,0,0-.937,1.619,1.8,1.8,0,0,0,.626,1.4A2.359,2.359,0,0,0,16.634-.8ZM30.42-1.271A3.608,3.608,0,0,1,27.22.186a3.106,3.106,0,0,1-2.44-.932,4.084,4.084,0,0,1-.854-2.76v-6.531h1.1v6.392q0,2.867,2.319,2.867A2.843,2.843,0,0,0,30.4-2.774v-7.264h1.113V0H30.439Zm9.992-1.28a1.582,1.582,0,0,0-.663-1.327,5.116,5.116,0,0,0-2-.784,9.02,9.02,0,0,1-2.073-.649,2.762,2.762,0,0,1-1.095-.9,2.234,2.234,0,0,1-.357-1.28,2.388,2.388,0,0,1,.993-1.962,4.01,4.01,0,0,1,2.542-.775,4.127,4.127,0,0,1,2.7.83A2.665,2.665,0,0,1,41.47-7.227H40.356a1.8,1.8,0,0,0-.738-1.466,2.9,2.9,0,0,0-1.86-.584A2.9,2.9,0,0,0,36-8.79a1.5,1.5,0,0,0-.663,1.266,1.369,1.369,0,0,0,.552,1.164A5.839,5.839,0,0,0,37.9-5.6a9.462,9.462,0,0,1,2.189.733,2.836,2.836,0,0,1,1.081.937,2.4,2.4,0,0,1,.353,1.327A2.4,2.4,0,0,1,40.5-.575a4.38,4.38,0,0,1-2.677.761A4.5,4.5,0,0,1,34.98-.663a2.613,2.613,0,0,1-1.09-2.148H35a1.93,1.93,0,0,0,.821,1.517,3.356,3.356,0,0,0,2,.543,3.155,3.155,0,0,0,1.874-.51A1.531,1.531,0,0,0,40.412-2.551ZM50.357,0a5.25,5.25,0,0,1-.213-1.4A3.871,3.871,0,0,1,48.655-.227a4.56,4.56,0,0,1-1.916.413A3.365,3.365,0,0,1,44.4-.622a2.629,2.629,0,0,1-.9-2.041,2.687,2.687,0,0,1,1.22-2.319,5.862,5.862,0,0,1,3.4-.854h2.013V-6.977a2.2,2.2,0,0,0-.663-1.693,2.742,2.742,0,0,0-1.934-.617,3.027,3.027,0,0,0-1.92.594,1.764,1.764,0,0,0-.761,1.429l-1.113-.009a2.582,2.582,0,0,1,1.113-2.073,4.287,4.287,0,0,1,2.737-.877,3.91,3.91,0,0,1,2.649.84,3.013,3.013,0,0,1,1,2.343v4.75a5.891,5.891,0,0,0,.306,2.18V0ZM46.869-.8a3.727,3.727,0,0,0,1.99-.538,3.166,3.166,0,0,0,1.276-1.438V-4.982H48.149a4.975,4.975,0,0,0-2.6.608,1.824,1.824,0,0,0-.937,1.619,1.8,1.8,0,0,0,.626,1.4A2.359,2.359,0,0,0,46.869-.8ZM60.062,0H58.948V-10.038h1.113ZM58.753-12.937a.744.744,0,0,1,.2-.53.728.728,0,0,1,.557-.217.743.743,0,0,1,.561.217.735.735,0,0,1,.209.53.72.72,0,0,1-.209.526.752.752,0,0,1-.561.212.736.736,0,0,1-.557-.212A.728.728,0,0,1,58.753-12.937Zm5.381,2.9.037,1.716a3.986,3.986,0,0,1,1.41-1.415,3.665,3.665,0,0,1,1.865-.487,3.011,3.011,0,0,1,2.4.909,4.1,4.1,0,0,1,.8,2.728V0h-1.1V-6.6a3.067,3.067,0,0,0-.571-2,2.235,2.235,0,0,0-1.8-.659,2.808,2.808,0,0,0-1.823.645,3.777,3.777,0,0,0-1.174,1.74V0h-1.1V-10.038Zm8.934,4.926a6.051,6.051,0,0,1,1.044-3.725,3.359,3.359,0,0,1,2.834-1.387,3.491,3.491,0,0,1,3.1,1.6V-14.25h1.1V0H80.11l-.046-1.336A3.585,3.585,0,0,1,76.928.186a3.347,3.347,0,0,1-2.8-1.4,6.082,6.082,0,0,1-1.062-3.771Zm1.123.195a5.235,5.235,0,0,0,.77,3.029A2.49,2.49,0,0,0,77.132-.779a2.988,2.988,0,0,0,2.913-1.809V-7.3A2.966,2.966,0,0,0,77.15-9.259a2.52,2.52,0,0,0-2.18,1.1A5.594,5.594,0,0,0,74.191-4.917ZM85.314,0H84.2V-10.038h1.113ZM84.006-12.937a.744.744,0,0,1,.2-.53.728.728,0,0,1,.557-.217.743.743,0,0,1,.561.217.735.735,0,0,1,.209.53.72.72,0,0,1-.209.526.752.752,0,0,1-.561.212.736.736,0,0,1-.557-.212A.728.728,0,0,1,84.006-12.937Zm8.962,3.845a4.147,4.147,0,0,0-.751-.065,2.711,2.711,0,0,0-1.758.58,3.176,3.176,0,0,0-1.025,1.684V0h-1.1V-10.038h1.085l.019,1.6a2.952,2.952,0,0,1,2.83-1.781A1.826,1.826,0,0,1,93-10.1ZM98.262.186a4.358,4.358,0,0,1-2.315-.631A4.3,4.3,0,0,1,94.337-2.2a5.481,5.481,0,0,1-.575-2.528v-.4a5.907,5.907,0,0,1,.561-2.607A4.465,4.465,0,0,1,95.887-9.56a3.856,3.856,0,0,1,2.171-.663,3.624,3.624,0,0,1,2.9,1.248,5.061,5.061,0,0,1,1.072,3.409v.622H94.866v.213a4.2,4.2,0,0,0,.979,2.844A3.114,3.114,0,0,0,98.308-.751a3.617,3.617,0,0,0,1.573-.325,3.488,3.488,0,0,0,1.239-1.039l.7.529A4.05,4.05,0,0,1,98.262.186Zm-.2-9.463a2.775,2.775,0,0,0-2.111.918A4.243,4.243,0,0,0,94.9-5.891h6.021v-.121a3.684,3.684,0,0,0-.826-2.356A2.559,2.559,0,0,0,98.058-9.277ZM107.9-.751a2.932,2.932,0,0,0,1.944-.654,2.3,2.3,0,0,0,.849-1.693h1.067a3.143,3.143,0,0,1-.575,1.675,3.6,3.6,0,0,1-1.406,1.183A4.236,4.236,0,0,1,107.9.186a3.878,3.878,0,0,1-3.131-1.373,5.551,5.551,0,0,1-1.155-3.692v-.334a6.275,6.275,0,0,1,.52-2.625A4,4,0,0,1,105.623-9.6a4.11,4.11,0,0,1,2.268-.622,3.871,3.871,0,0,1,2.723.983,3.586,3.586,0,0,1,1.146,2.588h-1.067a2.73,2.73,0,0,0-.849-1.9,2.749,2.749,0,0,0-1.953-.724,2.768,2.768,0,0,0-2.333,1.085,4.911,4.911,0,0,0-.83,3.043v.325a4.8,4.8,0,0,0,.83,3A2.787,2.787,0,0,0,107.9-.751Zm7.8-11.856v2.57h2.078v.909H115.7v6.7a2.1,2.1,0,0,0,.3,1.245,1.169,1.169,0,0,0,1.007.409,6.907,6.907,0,0,0,.9-.093l.046.9a3.629,3.629,0,0,1-1.187.156,1.98,1.98,0,0,1-1.661-.663,3.123,3.123,0,0,1-.52-1.953v-6.7h-1.846v-.909h1.846v-2.57ZM126.418,0a5.25,5.25,0,0,1-.213-1.4,3.871,3.871,0,0,1-1.489,1.174A4.56,4.56,0,0,1,122.8.186a3.365,3.365,0,0,1-2.343-.807,2.629,2.629,0,0,1-.9-2.041,2.687,2.687,0,0,1,1.22-2.319,5.862,5.862,0,0,1,3.4-.854H126.2V-6.977a2.2,2.2,0,0,0-.663-1.693,2.742,2.742,0,0,0-1.934-.617,3.027,3.027,0,0,0-1.92.594,1.764,1.764,0,0,0-.761,1.429L119.8-7.273a2.582,2.582,0,0,1,1.113-2.073,4.287,4.287,0,0,1,2.737-.877,3.91,3.91,0,0,1,2.649.84,3.013,3.013,0,0,1,1,2.343v4.75a5.891,5.891,0,0,0,.306,2.18V0ZM122.93-.8a3.727,3.727,0,0,0,1.99-.538A3.166,3.166,0,0,0,126.2-2.774V-4.982H124.21a4.975,4.975,0,0,0-2.6.608,1.824,1.824,0,0,0-.937,1.619,1.8,1.8,0,0,0,.626,1.4A2.359,2.359,0,0,0,122.93-.8Zm20.234.8H134.7V-.854L139.332-6.1a12.15,12.15,0,0,0,1.6-2.189,3.65,3.65,0,0,0,.445-1.679A2.73,2.73,0,0,0,140.622-12a2.806,2.806,0,0,0-2.069-.747,2.919,2.919,0,0,0-2.2.872,3.128,3.128,0,0,0-.84,2.264h-1.1a4.243,4.243,0,0,1,.515-2.078,3.7,3.7,0,0,1,1.466-1.47,4.351,4.351,0,0,1,2.166-.533,4.084,4.084,0,0,1,2.9.974,3.453,3.453,0,0,1,1.044,2.653A4.5,4.5,0,0,1,141.907-8a15.378,15.378,0,0,1-2.073,2.8L136.067-.937h7.1Z" transform="translate(716.614 8743.056)" fill="#3c3c3b"/>
    <path id="Trazado_838887" data-name="Trazado 838887" d="M0,0V34.533" transform="translate(767.438 8388.361)" fill="none" stroke="#0a5e6b" stroke-linecap="round" stroke-width="1"/>
    <path id="Trazado_838817" data-name="Trazado 838817" d="M227.461,27.043,223.637,33.6h7.649Z" transform="translate(539.978 8356.146)" fill="#0a5e6b"/>
    <path id="Trazado_838888" data-name="Trazado 838888" d="M0,0V9.357" transform="translate(554.699 8418.889)" fill="none" stroke="#0a5e6b" stroke-width="1"/>
    <path id="Trazado_838818" data-name="Trazado 838818" d="M128.057,41l-3.824,6.557h7.649Z" transform="translate(426.643 8372.061)" fill="#0a5e6b"/>
    <path id="Trazado_838889" data-name="Trazado 838889" d="M0,0V9.357" transform="translate(727.004 8418.889)" fill="none" stroke="#0a5e6b" stroke-width="1"/>
    <path id="Trazado_838819" data-name="Trazado 838819" d="M208.568,41l-3.824,6.557h7.649Z" transform="translate(518.436 8372.061)" fill="#0a5e6b"/>
    <path id="Trazado_838890" data-name="Trazado 838890" d="M0,0V9.357" transform="translate(665.076 8495.388)" fill="none" stroke="#0a5e6b" stroke-width="1"/>
    <path id="Trazado_838820" data-name="Trazado 838820" d="M179.632,76.745,175.807,83.3h7.649Z" transform="translate(485.444 8412.814)" fill="#0a5e6b"/>
    <path id="Trazado_838891" data-name="Trazado 838891" d="M0,0V9.357" transform="translate(832.28 8576.258)" fill="none" stroke="#0a5e6b" stroke-width="1"/>
    <path id="Trazado_838821" data-name="Trazado 838821" d="M257.759,114.532l-3.824,6.557h7.649Z" transform="translate(574.521 8455.897)" fill="#0a5e6b"/>
    <path id="Trazado_838892" data-name="Trazado 838892" d="M0,0V9.357" transform="translate(668.765 8641.19)" fill="none" stroke="#0a5e6b" stroke-width="1"/>
    <path id="Trazado_838822" data-name="Trazado 838822" d="M181.355,144.872l-3.824,6.557h7.649Z" transform="translate(487.409 8490.489)" fill="#0a5e6b"/>
    <path id="Trazado_838893" data-name="Trazado 838893" d="M0,0V9.357" transform="translate(668.765 8693.646)" fill="none" stroke="#0a5e6b" stroke-width="1"/>
    <path id="Trazado_838823" data-name="Trazado 838823" d="M181.355,169.383l-3.824,6.557h7.649Z" transform="translate(487.409 8518.435)" fill="#0a5e6b"/>
    <path id="Trazado_838894" data-name="Trazado 838894" d="M0,0V9.357" transform="translate(984.549 8641.19)" fill="none" stroke="#0a5e6b" stroke-width="1"/>
    <path id="Trazado_838824" data-name="Trazado 838824" d="M328.908,144.872l-3.824,6.557h7.649Z" transform="translate(655.641 8490.489)" fill="#0a5e6b"/>
    <path id="Trazado_838895" data-name="Trazado 838895" d="M0,0V9.357" transform="translate(561.302 8711.86)" fill="none" stroke="#0a5e6b" stroke-width="1"/>
    <path id="Trazado_838825" data-name="Trazado 838825" d="M131.142,177.894l-3.824,6.557h7.649Z" transform="translate(430.16 8528.139)" fill="#0a5e6b"/>
    <path id="Trazado_838896" data-name="Trazado 838896" d="M0,0V9.357" transform="translate(786.017 8711.86)" fill="none" stroke="#0a5e6b" stroke-width="1"/>
    <path id="Trazado_838826" data-name="Trazado 838826" d="M236.142,177.894l-3.824,6.557h7.649Z" transform="translate(549.875 8528.139)" fill="#0a5e6b"/>
    <path id="Trazado_838897" data-name="Trazado 838897" d="M0,0V14.823" transform="translate(768.531 8472.802)" fill="none" stroke="#0a5e6b" stroke-linecap="round" stroke-width="1"/>
    <path id="Trazado_838827" data-name="Trazado 838827" d="M227.972,66.192l-3.824,6.557H231.8Z" transform="translate(540.56 8400.782)" fill="#0a5e6b"/>
    <path id="Trazado_838898" data-name="Trazado 838898" d="M0,0V14.823" transform="translate(555.793 8472.802)" fill="none" stroke="#0a5e6b" stroke-linecap="round" stroke-width="1"/>
    <path id="Trazado_838828" data-name="Trazado 838828" d="M128.568,66.192l-3.824,6.557h7.649Z" transform="translate(427.225 8400.782)" fill="#0a5e6b"/>
    <path id="Trazado_838899" data-name="Trazado 838899" d="M0,0V86.333" transform="translate(979.449 8418.889)" fill="none" stroke="#0a5e6b" stroke-width="1"/>
    <path id="Trazado_838900" data-name="Trazado 838900" d="M425.526,0H0" transform="translate(553.79 8410.701)" fill="none" stroke="#0a5e6b" stroke-linecap="round" stroke-width="1"/>
    <path id="Trazado_838901" data-name="Trazado 838901" d="M214.2,0H0" transform="translate(554.566 8487.563)" fill="none" stroke="#0a5e6b" stroke-width="1"/>
    <path id="Trazado_838829" data-name="Trazado 838829" d="M326.525,41,322.7,47.558h7.649Z" transform="translate(652.924 8372.061)" fill="#3c3c3b"/>
    <path id="Trazado_838902" data-name="Trazado 838902" d="M0,0V14.823" transform="translate(934.51 8551.009)" fill="none" stroke="#0a5e6b" stroke-linecap="round" stroke-width="1"/>
    <path id="Trazado_838830" data-name="Trazado 838830" d="M305.527,102.734l-3.824,6.557h7.649Z" transform="translate(628.982 8442.445)" fill="#0a5e6b"/>
    <path id="Trazado_838903" data-name="Trazado 838903" d="M0,0V14.823" transform="translate(721.771 8551.009)" fill="none" stroke="#0a5e6b" stroke-linecap="round" stroke-width="1"/>
    <path id="Trazado_838831" data-name="Trazado 838831" d="M206.123,102.734l-3.824,6.557h7.649Z" transform="translate(515.648 8442.445)" fill="#0a5e6b"/>
    <path id="Trazado_838904" data-name="Trazado 838904" d="M212.97,0H0" transform="translate(721.771 8565.769)" fill="none" stroke="#0a5e6b" stroke-width="1"/>
    <path id="Trazado_838905" data-name="Trazado 838905" d="M316.195,0H0" transform="translate(668.221 8634.254)" fill="none" stroke="#0a5e6b" stroke-linecap="round" stroke-width="1"/>
    <path id="Trazado_838906" data-name="Trazado 838906" d="M224.528,0H0" transform="translate(561.488 8703.466)" fill="none" stroke="#0a5e6b" stroke-linecap="round" stroke-width="1"/>
  </g>
</svg>
